M48
;DRILL file {KiCad 5.0.2+dfsg1-1~bpo9+1} date Mon 09 Sep 2019 09:30:15 PM CEST
;FORMAT={-:-/ absolute / inch / decimal}
FMAT,2
INCH,TZ
T1C0.0787
%
G90
G05
T1
X7.2928Y-4.9504
X7.2928Y-2.3524
X3.0093Y-2.3524
X3.3558Y-2.3524
X8.5213Y-2.3524
X8.8678Y-2.3524
X4.5843Y-2.3524
X4.9308Y-2.3524
X3.0093Y-3.2184
X3.3558Y-3.2184
X4.5843Y-3.2184
X4.9308Y-3.2184
X6.1593Y-3.2184
X6.5058Y-3.2184
X6.9463Y-4.9504
X6.1593Y-2.3524
X6.5058Y-2.3524
X6.9463Y-2.3524
X7.7343Y-2.3524
X8.0808Y-2.3524
X5.3723Y-2.3524
X5.7188Y-2.3524
X6.9463Y-3.2184
X7.2928Y-3.2184
X3.7973Y-3.2184
X4.1438Y-3.2184
X7.7333Y-3.2184
X8.0798Y-3.2184
X3.7973Y-2.3524
X4.1438Y-2.3524
X7.7343Y-4.9504
X8.0808Y-4.9504
X8.5213Y-3.2184
X8.8678Y-3.2184
X5.3713Y-3.2184
X5.7178Y-3.2184
T0
M30
