G04 #@! TF.GenerationSoftware,KiCad,Pcbnew,5.0.2+dfsg1-1~bpo9+1*
G04 #@! TF.CreationDate,2019-09-09T21:30:10+02:00*
G04 #@! TF.ProjectId,diymetro,6469796d-6574-4726-9f2e-6b696361645f,rev?*
G04 #@! TF.SameCoordinates,Original*
G04 #@! TF.FileFunction,Legend,Top*
G04 #@! TF.FilePolarity,Positive*
%FSLAX46Y46*%
G04 Gerber Fmt 4.6, Leading zero omitted, Abs format (unit mm)*
G04 Created by KiCad (PCBNEW 5.0.2+dfsg1-1~bpo9+1) date Mon 09 Sep 2019 09:30:10 PM CEST*
%MOMM*%
%LPD*%
G01*
G04 APERTURE LIST*
%ADD10C,0.300000*%
%ADD11C,0.150000*%
%ADD12C,0.120000*%
G04 APERTURE END LIST*
D10*
X143947428Y-134560571D02*
X143947428Y-135632000D01*
X143876000Y-135846285D01*
X143733142Y-135989142D01*
X143518857Y-136060571D01*
X143376000Y-136060571D01*
X145376000Y-136060571D02*
X144661714Y-136060571D01*
X144661714Y-134560571D01*
X146733142Y-135917714D02*
X146661714Y-135989142D01*
X146447428Y-136060571D01*
X146304571Y-136060571D01*
X146090285Y-135989142D01*
X145947428Y-135846285D01*
X145876000Y-135703428D01*
X145804571Y-135417714D01*
X145804571Y-135203428D01*
X145876000Y-134917714D01*
X145947428Y-134774857D01*
X146090285Y-134632000D01*
X146304571Y-134560571D01*
X146447428Y-134560571D01*
X146661714Y-134632000D01*
X146733142Y-134703428D01*
X147804571Y-134560571D02*
X147804571Y-135632000D01*
X147733142Y-135846285D01*
X147590285Y-135989142D01*
X147376000Y-136060571D01*
X147233142Y-136060571D01*
X149233142Y-136060571D02*
X148518857Y-136060571D01*
X148518857Y-134560571D01*
X150590285Y-135917714D02*
X150518857Y-135989142D01*
X150304571Y-136060571D01*
X150161714Y-136060571D01*
X149947428Y-135989142D01*
X149804571Y-135846285D01*
X149733142Y-135703428D01*
X149661714Y-135417714D01*
X149661714Y-135203428D01*
X149733142Y-134917714D01*
X149804571Y-134774857D01*
X149947428Y-134632000D01*
X150161714Y-134560571D01*
X150304571Y-134560571D01*
X150518857Y-134632000D01*
X150590285Y-134703428D01*
X151661714Y-134560571D02*
X151661714Y-135632000D01*
X151590285Y-135846285D01*
X151447428Y-135989142D01*
X151233142Y-136060571D01*
X151090285Y-136060571D01*
X153090285Y-136060571D02*
X152376000Y-136060571D01*
X152376000Y-134560571D01*
X154447428Y-135917714D02*
X154376000Y-135989142D01*
X154161714Y-136060571D01*
X154018857Y-136060571D01*
X153804571Y-135989142D01*
X153661714Y-135846285D01*
X153590285Y-135703428D01*
X153518857Y-135417714D01*
X153518857Y-135203428D01*
X153590285Y-134917714D01*
X153661714Y-134774857D01*
X153804571Y-134632000D01*
X154018857Y-134560571D01*
X154161714Y-134560571D01*
X154376000Y-134632000D01*
X154447428Y-134703428D01*
X155518857Y-134560571D02*
X155518857Y-135632000D01*
X155447428Y-135846285D01*
X155304571Y-135989142D01*
X155090285Y-136060571D01*
X154947428Y-136060571D01*
X156947428Y-136060571D02*
X156233142Y-136060571D01*
X156233142Y-134560571D01*
X158304571Y-135917714D02*
X158233142Y-135989142D01*
X158018857Y-136060571D01*
X157876000Y-136060571D01*
X157661714Y-135989142D01*
X157518857Y-135846285D01*
X157447428Y-135703428D01*
X157376000Y-135417714D01*
X157376000Y-135203428D01*
X157447428Y-134917714D01*
X157518857Y-134774857D01*
X157661714Y-134632000D01*
X157876000Y-134560571D01*
X158018857Y-134560571D01*
X158233142Y-134632000D01*
X158304571Y-134703428D01*
D11*
G04 #@! TO.C,SW1*
X76797400Y-97608000D02*
X79297400Y-97608000D01*
X84797400Y-97608000D02*
X82297400Y-97608000D01*
X76797400Y-110608000D02*
X79297400Y-110608000D01*
X84797400Y-110608000D02*
X82297400Y-110608000D01*
X76797400Y-110608000D02*
X76797400Y-97608000D01*
X84797400Y-97608000D02*
X84797400Y-110608000D01*
G04 #@! TO.C,SW7*
X196863200Y-97608000D02*
X199363200Y-97608000D01*
X204863200Y-97608000D02*
X202363200Y-97608000D01*
X196863200Y-110608000D02*
X199363200Y-110608000D01*
X204863200Y-110608000D02*
X202363200Y-110608000D01*
X196863200Y-110608000D02*
X196863200Y-97608000D01*
X204863200Y-97608000D02*
X204863200Y-110608000D01*
G04 #@! TO.C,SW6*
X176771800Y-97608000D02*
X179271800Y-97608000D01*
X184771800Y-97608000D02*
X182271800Y-97608000D01*
X176771800Y-110608000D02*
X179271800Y-110608000D01*
X184771800Y-110608000D02*
X182271800Y-110608000D01*
X176771800Y-110608000D02*
X176771800Y-97608000D01*
X184771800Y-97608000D02*
X184771800Y-110608000D01*
G04 #@! TO.C,SW2*
X96787200Y-97608000D02*
X99287200Y-97608000D01*
X104787200Y-97608000D02*
X102287200Y-97608000D01*
X96787200Y-110608000D02*
X99287200Y-110608000D01*
X104787200Y-110608000D02*
X102287200Y-110608000D01*
X96787200Y-110608000D02*
X96787200Y-97608000D01*
X104787200Y-97608000D02*
X104787200Y-110608000D01*
G04 #@! TO.C,SW3*
X116751600Y-97608000D02*
X119251600Y-97608000D01*
X124751600Y-97608000D02*
X122251600Y-97608000D01*
X116751600Y-110608000D02*
X119251600Y-110608000D01*
X124751600Y-110608000D02*
X122251600Y-110608000D01*
X116751600Y-110608000D02*
X116751600Y-97608000D01*
X124751600Y-97608000D02*
X124751600Y-110608000D01*
G04 #@! TO.C,SW4*
X136792200Y-97608000D02*
X139292200Y-97608000D01*
X144792200Y-97608000D02*
X142292200Y-97608000D01*
X136792200Y-110608000D02*
X139292200Y-110608000D01*
X144792200Y-110608000D02*
X142292200Y-110608000D01*
X136792200Y-110608000D02*
X136792200Y-97608000D01*
X144792200Y-97608000D02*
X144792200Y-110608000D01*
G04 #@! TO.C,SW5*
X156756600Y-97608000D02*
X159256600Y-97608000D01*
X164756600Y-97608000D02*
X162256600Y-97608000D01*
X156756600Y-110608000D02*
X159256600Y-110608000D01*
X164756600Y-110608000D02*
X162256600Y-110608000D01*
X156756600Y-110608000D02*
X156756600Y-97608000D01*
X164756600Y-97608000D02*
X164756600Y-110608000D01*
G04 #@! TO.C,SW8*
X216776800Y-97608000D02*
X219276800Y-97608000D01*
X224776800Y-97608000D02*
X222276800Y-97608000D01*
X216776800Y-110608000D02*
X219276800Y-110608000D01*
X224776800Y-110608000D02*
X222276800Y-110608000D01*
X216776800Y-110608000D02*
X216776800Y-97608000D01*
X224776800Y-97608000D02*
X224776800Y-110608000D01*
D12*
G04 #@! TO.C,RV1*
X175816200Y-119620400D02*
X185857200Y-119620400D01*
X184207200Y-131860400D02*
X185857200Y-131860400D01*
X181708200Y-131860400D02*
X182467200Y-131860400D01*
X179208200Y-131860400D02*
X179967200Y-131860400D01*
X175816200Y-131860400D02*
X177466200Y-131860400D01*
X185857200Y-123556400D02*
X185857200Y-119620400D01*
X185857200Y-131860400D02*
X185857200Y-127923400D01*
X175816200Y-123556400D02*
X175816200Y-119620400D01*
X175816200Y-131860400D02*
X175816200Y-127923400D01*
G04 #@! TO.C,RV2*
X195831400Y-119620400D02*
X205872400Y-119620400D01*
X204222400Y-131860400D02*
X205872400Y-131860400D01*
X201723400Y-131860400D02*
X202482400Y-131860400D01*
X199223400Y-131860400D02*
X199982400Y-131860400D01*
X195831400Y-131860400D02*
X197481400Y-131860400D01*
X205872400Y-123556400D02*
X205872400Y-119620400D01*
X205872400Y-131860400D02*
X205872400Y-127923400D01*
X195831400Y-123556400D02*
X195831400Y-119620400D01*
X195831400Y-131860400D02*
X195831400Y-127923400D01*
G04 #@! TO.C,D4*
X79288200Y-43320200D02*
X79288200Y-43476200D01*
X79288200Y-41004200D02*
X79288200Y-41160200D01*
X81889330Y-43320037D02*
G75*
G02X79807239Y-43320200I-1041130J1079837D01*
G01*
X81889330Y-41160363D02*
G75*
G03X79807239Y-41160200I-1041130J-1079837D01*
G01*
X82520535Y-43318808D02*
G75*
G02X79288200Y-43475716I-1672335J1078608D01*
G01*
X82520535Y-41161592D02*
G75*
G03X79288200Y-41004684I-1672335J-1078608D01*
G01*
G04 #@! TO.C,D5*
X102510335Y-41161592D02*
G75*
G03X99278000Y-41004684I-1672335J-1078608D01*
G01*
X102510335Y-43318808D02*
G75*
G02X99278000Y-43475716I-1672335J1078608D01*
G01*
X101879130Y-41160363D02*
G75*
G03X99797039Y-41160200I-1041130J-1079837D01*
G01*
X101879130Y-43320037D02*
G75*
G02X99797039Y-43320200I-1041130J1079837D01*
G01*
X99278000Y-41004200D02*
X99278000Y-41160200D01*
X99278000Y-43320200D02*
X99278000Y-43476200D01*
G04 #@! TO.C,D6*
X119267800Y-43320200D02*
X119267800Y-43476200D01*
X119267800Y-41004200D02*
X119267800Y-41160200D01*
X121868930Y-43320037D02*
G75*
G02X119786839Y-43320200I-1041130J1079837D01*
G01*
X121868930Y-41160363D02*
G75*
G03X119786839Y-41160200I-1041130J-1079837D01*
G01*
X122500135Y-43318808D02*
G75*
G02X119267800Y-43475716I-1672335J1078608D01*
G01*
X122500135Y-41161592D02*
G75*
G03X119267800Y-41004684I-1672335J-1078608D01*
G01*
G04 #@! TO.C,D7*
X142515335Y-41161592D02*
G75*
G03X139283000Y-41004684I-1672335J-1078608D01*
G01*
X142515335Y-43318808D02*
G75*
G02X139283000Y-43475716I-1672335J1078608D01*
G01*
X141884130Y-41160363D02*
G75*
G03X139802039Y-41160200I-1041130J-1079837D01*
G01*
X141884130Y-43320037D02*
G75*
G02X139802039Y-43320200I-1041130J1079837D01*
G01*
X139283000Y-41004200D02*
X139283000Y-41160200D01*
X139283000Y-43320200D02*
X139283000Y-43476200D01*
G04 #@! TO.C,D8*
X159272800Y-43320200D02*
X159272800Y-43476200D01*
X159272800Y-41004200D02*
X159272800Y-41160200D01*
X161873930Y-43320037D02*
G75*
G02X159791839Y-43320200I-1041130J1079837D01*
G01*
X161873930Y-41160363D02*
G75*
G03X159791839Y-41160200I-1041130J-1079837D01*
G01*
X162505135Y-43318808D02*
G75*
G02X159272800Y-43475716I-1672335J1078608D01*
G01*
X162505135Y-41161592D02*
G75*
G03X159272800Y-41004684I-1672335J-1078608D01*
G01*
G04 #@! TO.C,D9*
X182494935Y-41161592D02*
G75*
G03X179262600Y-41004684I-1672335J-1078608D01*
G01*
X182494935Y-43318808D02*
G75*
G02X179262600Y-43475716I-1672335J1078608D01*
G01*
X181863730Y-41160363D02*
G75*
G03X179781639Y-41160200I-1041130J-1079837D01*
G01*
X181863730Y-43320037D02*
G75*
G02X179781639Y-43320200I-1041130J1079837D01*
G01*
X179262600Y-41004200D02*
X179262600Y-41160200D01*
X179262600Y-43320200D02*
X179262600Y-43476200D01*
G04 #@! TO.C,D10*
X199277800Y-43320200D02*
X199277800Y-43476200D01*
X199277800Y-41004200D02*
X199277800Y-41160200D01*
X201878930Y-43320037D02*
G75*
G02X199796839Y-43320200I-1041130J1079837D01*
G01*
X201878930Y-41160363D02*
G75*
G03X199796839Y-41160200I-1041130J-1079837D01*
G01*
X202510135Y-43318808D02*
G75*
G02X199277800Y-43475716I-1672335J1078608D01*
G01*
X202510135Y-41161592D02*
G75*
G03X199277800Y-41004684I-1672335J-1078608D01*
G01*
G04 #@! TO.C,D11*
X222499935Y-41161592D02*
G75*
G03X219267600Y-41004684I-1672335J-1078608D01*
G01*
X222499935Y-43318808D02*
G75*
G02X219267600Y-43475716I-1672335J1078608D01*
G01*
X221868730Y-41160363D02*
G75*
G03X219786639Y-41160200I-1041130J-1079837D01*
G01*
X221868730Y-43320037D02*
G75*
G02X219786639Y-43320200I-1041130J1079837D01*
G01*
X219267600Y-41004200D02*
X219267600Y-41160200D01*
X219267600Y-43320200D02*
X219267600Y-43476200D01*
G04 #@! TO.C,J1*
X116302400Y-120750400D02*
X116302400Y-131250400D01*
X125302400Y-120750400D02*
X125302400Y-131250400D01*
X119506137Y-122661823D02*
G75*
G03X120802400Y-128145400I1296263J-2588577D01*
G01*
X122098663Y-122661823D02*
G75*
G02X120802400Y-128145400I-1296263J-2588577D01*
G01*
X125302400Y-131250400D02*
X121802400Y-131250400D01*
X119802400Y-131250400D02*
X116302400Y-131250400D01*
X125302400Y-120750400D02*
X121702400Y-120750400D01*
X119902400Y-120750400D02*
X116302400Y-120750400D01*
X122602400Y-125250400D02*
G75*
G03X122602400Y-125250400I-1800000J0D01*
G01*
X120382400Y-119970400D02*
X120382400Y-120570400D01*
X121222400Y-119970400D02*
X121222400Y-120570400D01*
X119402400Y-117590400D02*
X119402400Y-118690400D01*
X119402400Y-117590400D02*
X120722400Y-117590400D01*
G04 #@! TO.C,J2*
X99438000Y-117590400D02*
X100758000Y-117590400D01*
X99438000Y-117590400D02*
X99438000Y-118690400D01*
X101258000Y-119970400D02*
X101258000Y-120570400D01*
X100418000Y-119970400D02*
X100418000Y-120570400D01*
X102638000Y-125250400D02*
G75*
G03X102638000Y-125250400I-1800000J0D01*
G01*
X99938000Y-120750400D02*
X96338000Y-120750400D01*
X105338000Y-120750400D02*
X101738000Y-120750400D01*
X99838000Y-131250400D02*
X96338000Y-131250400D01*
X105338000Y-131250400D02*
X101838000Y-131250400D01*
X102134263Y-122661823D02*
G75*
G02X100838000Y-128145400I-1296263J-2588577D01*
G01*
X99541737Y-122661823D02*
G75*
G03X100838000Y-128145400I1296263J-2588577D01*
G01*
X105338000Y-120750400D02*
X105338000Y-131250400D01*
X96338000Y-120750400D02*
X96338000Y-131250400D01*
G04 #@! TO.C,J3*
X76322800Y-120750400D02*
X76322800Y-131250400D01*
X85322800Y-120750400D02*
X85322800Y-131250400D01*
X79526537Y-122661823D02*
G75*
G03X80822800Y-128145400I1296263J-2588577D01*
G01*
X82119063Y-122661823D02*
G75*
G02X80822800Y-128145400I-1296263J-2588577D01*
G01*
X85322800Y-131250400D02*
X81822800Y-131250400D01*
X79822800Y-131250400D02*
X76322800Y-131250400D01*
X85322800Y-120750400D02*
X81722800Y-120750400D01*
X79922800Y-120750400D02*
X76322800Y-120750400D01*
X82622800Y-125250400D02*
G75*
G03X82622800Y-125250400I-1800000J0D01*
G01*
X80402800Y-119970400D02*
X80402800Y-120570400D01*
X81242800Y-119970400D02*
X81242800Y-120570400D01*
X79422800Y-117590400D02*
X79422800Y-118690400D01*
X79422800Y-117590400D02*
X80742800Y-117590400D01*
G04 #@! TO.C,J4*
X159432800Y-117590400D02*
X160752800Y-117590400D01*
X159432800Y-117590400D02*
X159432800Y-118690400D01*
X161252800Y-119970400D02*
X161252800Y-120570400D01*
X160412800Y-119970400D02*
X160412800Y-120570400D01*
X162632800Y-125250400D02*
G75*
G03X162632800Y-125250400I-1800000J0D01*
G01*
X159932800Y-120750400D02*
X156332800Y-120750400D01*
X165332800Y-120750400D02*
X161732800Y-120750400D01*
X159832800Y-131250400D02*
X156332800Y-131250400D01*
X165332800Y-131250400D02*
X161832800Y-131250400D01*
X162129063Y-122661823D02*
G75*
G02X160832800Y-128145400I-1296263J-2588577D01*
G01*
X159536537Y-122661823D02*
G75*
G03X160832800Y-128145400I1296263J-2588577D01*
G01*
X165332800Y-120750400D02*
X165332800Y-131250400D01*
X156332800Y-120750400D02*
X156332800Y-131250400D01*
G04 #@! TO.C,J6*
X136317600Y-120750400D02*
X136317600Y-131250400D01*
X145317600Y-120750400D02*
X145317600Y-131250400D01*
X139521337Y-122661823D02*
G75*
G03X140817600Y-128145400I1296263J-2588577D01*
G01*
X142113863Y-122661823D02*
G75*
G02X140817600Y-128145400I-1296263J-2588577D01*
G01*
X145317600Y-131250400D02*
X141817600Y-131250400D01*
X139817600Y-131250400D02*
X136317600Y-131250400D01*
X145317600Y-120750400D02*
X141717600Y-120750400D01*
X139917600Y-120750400D02*
X136317600Y-120750400D01*
X142617600Y-125250400D02*
G75*
G03X142617600Y-125250400I-1800000J0D01*
G01*
X140397600Y-119970400D02*
X140397600Y-120570400D01*
X141237600Y-119970400D02*
X141237600Y-120570400D01*
X139417600Y-117590400D02*
X139417600Y-118690400D01*
X139417600Y-117590400D02*
X140737600Y-117590400D01*
G04 #@! TO.C,RV3*
X75816400Y-65871200D02*
X75816400Y-61934200D01*
X75816400Y-57567200D02*
X75816400Y-53631200D01*
X85857400Y-65871200D02*
X85857400Y-61934200D01*
X85857400Y-57567200D02*
X85857400Y-53631200D01*
X75816400Y-65871200D02*
X77466400Y-65871200D01*
X79208400Y-65871200D02*
X79967400Y-65871200D01*
X81708400Y-65871200D02*
X82467400Y-65871200D01*
X84207400Y-65871200D02*
X85857400Y-65871200D01*
X75816400Y-53631200D02*
X85857400Y-53631200D01*
G04 #@! TO.C,RV4*
X95831600Y-53631200D02*
X105872600Y-53631200D01*
X104222600Y-65871200D02*
X105872600Y-65871200D01*
X101723600Y-65871200D02*
X102482600Y-65871200D01*
X99223600Y-65871200D02*
X99982600Y-65871200D01*
X95831600Y-65871200D02*
X97481600Y-65871200D01*
X105872600Y-57567200D02*
X105872600Y-53631200D01*
X105872600Y-65871200D02*
X105872600Y-61934200D01*
X95831600Y-57567200D02*
X95831600Y-53631200D01*
X95831600Y-65871200D02*
X95831600Y-61934200D01*
G04 #@! TO.C,RV5*
X115821400Y-65871200D02*
X115821400Y-61934200D01*
X115821400Y-57567200D02*
X115821400Y-53631200D01*
X125862400Y-65871200D02*
X125862400Y-61934200D01*
X125862400Y-57567200D02*
X125862400Y-53631200D01*
X115821400Y-65871200D02*
X117471400Y-65871200D01*
X119213400Y-65871200D02*
X119972400Y-65871200D01*
X121713400Y-65871200D02*
X122472400Y-65871200D01*
X124212400Y-65871200D02*
X125862400Y-65871200D01*
X115821400Y-53631200D02*
X125862400Y-53631200D01*
G04 #@! TO.C,RV6*
X135836600Y-53631200D02*
X145877600Y-53631200D01*
X144227600Y-65871200D02*
X145877600Y-65871200D01*
X141728600Y-65871200D02*
X142487600Y-65871200D01*
X139228600Y-65871200D02*
X139987600Y-65871200D01*
X135836600Y-65871200D02*
X137486600Y-65871200D01*
X145877600Y-57567200D02*
X145877600Y-53631200D01*
X145877600Y-65871200D02*
X145877600Y-61934200D01*
X135836600Y-57567200D02*
X135836600Y-53631200D01*
X135836600Y-65871200D02*
X135836600Y-61934200D01*
G04 #@! TO.C,RV7*
X155826400Y-65871200D02*
X155826400Y-61934200D01*
X155826400Y-57567200D02*
X155826400Y-53631200D01*
X165867400Y-65871200D02*
X165867400Y-61934200D01*
X165867400Y-57567200D02*
X165867400Y-53631200D01*
X155826400Y-65871200D02*
X157476400Y-65871200D01*
X159218400Y-65871200D02*
X159977400Y-65871200D01*
X161718400Y-65871200D02*
X162477400Y-65871200D01*
X164217400Y-65871200D02*
X165867400Y-65871200D01*
X155826400Y-53631200D02*
X165867400Y-53631200D01*
G04 #@! TO.C,RV8*
X175816200Y-53631200D02*
X185857200Y-53631200D01*
X184207200Y-65871200D02*
X185857200Y-65871200D01*
X181708200Y-65871200D02*
X182467200Y-65871200D01*
X179208200Y-65871200D02*
X179967200Y-65871200D01*
X175816200Y-65871200D02*
X177466200Y-65871200D01*
X185857200Y-57567200D02*
X185857200Y-53631200D01*
X185857200Y-65871200D02*
X185857200Y-61934200D01*
X175816200Y-57567200D02*
X175816200Y-53631200D01*
X175816200Y-65871200D02*
X175816200Y-61934200D01*
G04 #@! TO.C,RV9*
X195831400Y-65871200D02*
X195831400Y-61934200D01*
X195831400Y-57567200D02*
X195831400Y-53631200D01*
X205872400Y-65871200D02*
X205872400Y-61934200D01*
X205872400Y-57567200D02*
X205872400Y-53631200D01*
X195831400Y-65871200D02*
X197481400Y-65871200D01*
X199223400Y-65871200D02*
X199982400Y-65871200D01*
X201723400Y-65871200D02*
X202482400Y-65871200D01*
X204222400Y-65871200D02*
X205872400Y-65871200D01*
X195831400Y-53631200D02*
X205872400Y-53631200D01*
G04 #@! TO.C,RV10*
X215821200Y-53631200D02*
X225862200Y-53631200D01*
X224212200Y-65871200D02*
X225862200Y-65871200D01*
X221713200Y-65871200D02*
X222472200Y-65871200D01*
X219213200Y-65871200D02*
X219972200Y-65871200D01*
X215821200Y-65871200D02*
X217471200Y-65871200D01*
X225862200Y-57567200D02*
X225862200Y-53631200D01*
X225862200Y-65871200D02*
X225862200Y-61934200D01*
X215821200Y-57567200D02*
X215821200Y-53631200D01*
X215821200Y-65871200D02*
X215821200Y-61934200D01*
G04 #@! TO.C,RV11*
X75816400Y-75627600D02*
X85857400Y-75627600D01*
X84207400Y-87867600D02*
X85857400Y-87867600D01*
X81708400Y-87867600D02*
X82467400Y-87867600D01*
X79208400Y-87867600D02*
X79967400Y-87867600D01*
X75816400Y-87867600D02*
X77466400Y-87867600D01*
X85857400Y-79563600D02*
X85857400Y-75627600D01*
X85857400Y-87867600D02*
X85857400Y-83930600D01*
X75816400Y-79563600D02*
X75816400Y-75627600D01*
X75816400Y-87867600D02*
X75816400Y-83930600D01*
G04 #@! TO.C,RV12*
X95831600Y-87867600D02*
X95831600Y-83930600D01*
X95831600Y-79563600D02*
X95831600Y-75627600D01*
X105872600Y-87867600D02*
X105872600Y-83930600D01*
X105872600Y-79563600D02*
X105872600Y-75627600D01*
X95831600Y-87867600D02*
X97481600Y-87867600D01*
X99223600Y-87867600D02*
X99982600Y-87867600D01*
X101723600Y-87867600D02*
X102482600Y-87867600D01*
X104222600Y-87867600D02*
X105872600Y-87867600D01*
X95831600Y-75627600D02*
X105872600Y-75627600D01*
G04 #@! TO.C,RV13*
X115821400Y-87867600D02*
X115821400Y-83930600D01*
X115821400Y-79563600D02*
X115821400Y-75627600D01*
X125862400Y-87867600D02*
X125862400Y-83930600D01*
X125862400Y-79563600D02*
X125862400Y-75627600D01*
X115821400Y-87867600D02*
X117471400Y-87867600D01*
X119213400Y-87867600D02*
X119972400Y-87867600D01*
X121713400Y-87867600D02*
X122472400Y-87867600D01*
X124212400Y-87867600D02*
X125862400Y-87867600D01*
X115821400Y-75627600D02*
X125862400Y-75627600D01*
G04 #@! TO.C,RV14*
X135811200Y-75627600D02*
X145852200Y-75627600D01*
X144202200Y-87867600D02*
X145852200Y-87867600D01*
X141703200Y-87867600D02*
X142462200Y-87867600D01*
X139203200Y-87867600D02*
X139962200Y-87867600D01*
X135811200Y-87867600D02*
X137461200Y-87867600D01*
X145852200Y-79563600D02*
X145852200Y-75627600D01*
X145852200Y-87867600D02*
X145852200Y-83930600D01*
X135811200Y-79563600D02*
X135811200Y-75627600D01*
X135811200Y-87867600D02*
X135811200Y-83930600D01*
G04 #@! TO.C,RV15*
X155826400Y-87867600D02*
X155826400Y-83930600D01*
X155826400Y-79563600D02*
X155826400Y-75627600D01*
X165867400Y-87867600D02*
X165867400Y-83930600D01*
X165867400Y-79563600D02*
X165867400Y-75627600D01*
X155826400Y-87867600D02*
X157476400Y-87867600D01*
X159218400Y-87867600D02*
X159977400Y-87867600D01*
X161718400Y-87867600D02*
X162477400Y-87867600D01*
X164217400Y-87867600D02*
X165867400Y-87867600D01*
X155826400Y-75627600D02*
X165867400Y-75627600D01*
G04 #@! TO.C,RV16*
X175816200Y-75627600D02*
X185857200Y-75627600D01*
X184207200Y-87867600D02*
X185857200Y-87867600D01*
X181708200Y-87867600D02*
X182467200Y-87867600D01*
X179208200Y-87867600D02*
X179967200Y-87867600D01*
X175816200Y-87867600D02*
X177466200Y-87867600D01*
X185857200Y-79563600D02*
X185857200Y-75627600D01*
X185857200Y-87867600D02*
X185857200Y-83930600D01*
X175816200Y-79563600D02*
X175816200Y-75627600D01*
X175816200Y-87867600D02*
X175816200Y-83930600D01*
G04 #@! TO.C,RV17*
X195806000Y-87867600D02*
X195806000Y-83930600D01*
X195806000Y-79563600D02*
X195806000Y-75627600D01*
X205847000Y-87867600D02*
X205847000Y-83930600D01*
X205847000Y-79563600D02*
X205847000Y-75627600D01*
X195806000Y-87867600D02*
X197456000Y-87867600D01*
X199198000Y-87867600D02*
X199957000Y-87867600D01*
X201698000Y-87867600D02*
X202457000Y-87867600D01*
X204197000Y-87867600D02*
X205847000Y-87867600D01*
X195806000Y-75627600D02*
X205847000Y-75627600D01*
G04 #@! TO.C,RV18*
X215821200Y-75627600D02*
X225862200Y-75627600D01*
X224212200Y-87867600D02*
X225862200Y-87867600D01*
X221713200Y-87867600D02*
X222472200Y-87867600D01*
X219213200Y-87867600D02*
X219972200Y-87867600D01*
X215821200Y-87867600D02*
X217471200Y-87867600D01*
X225862200Y-79563600D02*
X225862200Y-75627600D01*
X225862200Y-87867600D02*
X225862200Y-83930600D01*
X215821200Y-79563600D02*
X215821200Y-75627600D01*
X215821200Y-87867600D02*
X215821200Y-83930600D01*
D11*
G04 #@! TO.C,SW9*
X233977600Y-125222000D02*
G75*
G03X233977600Y-125222000I-13150000J0D01*
G01*
G04 #@! TO.C,SW1*
X86202161Y-105441333D02*
X86249780Y-105298476D01*
X86249780Y-105060380D01*
X86202161Y-104965142D01*
X86154542Y-104917523D01*
X86059304Y-104869904D01*
X85964066Y-104869904D01*
X85868828Y-104917523D01*
X85821209Y-104965142D01*
X85773590Y-105060380D01*
X85725971Y-105250857D01*
X85678352Y-105346095D01*
X85630733Y-105393714D01*
X85535495Y-105441333D01*
X85440257Y-105441333D01*
X85345019Y-105393714D01*
X85297400Y-105346095D01*
X85249780Y-105250857D01*
X85249780Y-105012761D01*
X85297400Y-104869904D01*
X85249780Y-104536571D02*
X86249780Y-104298476D01*
X85535495Y-104108000D01*
X86249780Y-103917523D01*
X85249780Y-103679428D01*
X86249780Y-102774666D02*
X86249780Y-103346095D01*
X86249780Y-103060380D02*
X85249780Y-103060380D01*
X85392638Y-103155619D01*
X85487876Y-103250857D01*
X85535495Y-103346095D01*
G04 #@! TO.C,SW7*
X206267961Y-105441333D02*
X206315580Y-105298476D01*
X206315580Y-105060380D01*
X206267961Y-104965142D01*
X206220342Y-104917523D01*
X206125104Y-104869904D01*
X206029866Y-104869904D01*
X205934628Y-104917523D01*
X205887009Y-104965142D01*
X205839390Y-105060380D01*
X205791771Y-105250857D01*
X205744152Y-105346095D01*
X205696533Y-105393714D01*
X205601295Y-105441333D01*
X205506057Y-105441333D01*
X205410819Y-105393714D01*
X205363200Y-105346095D01*
X205315580Y-105250857D01*
X205315580Y-105012761D01*
X205363200Y-104869904D01*
X205315580Y-104536571D02*
X206315580Y-104298476D01*
X205601295Y-104108000D01*
X206315580Y-103917523D01*
X205315580Y-103679428D01*
X205315580Y-103393714D02*
X205315580Y-102727047D01*
X206315580Y-103155619D01*
G04 #@! TO.C,SW6*
X176299761Y-105473333D02*
X176347380Y-105330476D01*
X176347380Y-105092380D01*
X176299761Y-104997142D01*
X176252142Y-104949523D01*
X176156904Y-104901904D01*
X176061666Y-104901904D01*
X175966428Y-104949523D01*
X175918809Y-104997142D01*
X175871190Y-105092380D01*
X175823571Y-105282857D01*
X175775952Y-105378095D01*
X175728333Y-105425714D01*
X175633095Y-105473333D01*
X175537857Y-105473333D01*
X175442619Y-105425714D01*
X175395000Y-105378095D01*
X175347380Y-105282857D01*
X175347380Y-105044761D01*
X175395000Y-104901904D01*
X175347380Y-104568571D02*
X176347380Y-104330476D01*
X175633095Y-104140000D01*
X176347380Y-103949523D01*
X175347380Y-103711428D01*
X175347380Y-102901904D02*
X175347380Y-103092380D01*
X175395000Y-103187619D01*
X175442619Y-103235238D01*
X175585476Y-103330476D01*
X175775952Y-103378095D01*
X176156904Y-103378095D01*
X176252142Y-103330476D01*
X176299761Y-103282857D01*
X176347380Y-103187619D01*
X176347380Y-102997142D01*
X176299761Y-102901904D01*
X176252142Y-102854285D01*
X176156904Y-102806666D01*
X175918809Y-102806666D01*
X175823571Y-102854285D01*
X175775952Y-102901904D01*
X175728333Y-102997142D01*
X175728333Y-103187619D01*
X175775952Y-103282857D01*
X175823571Y-103330476D01*
X175918809Y-103378095D01*
G04 #@! TO.C,SW2*
X106191961Y-105441333D02*
X106239580Y-105298476D01*
X106239580Y-105060380D01*
X106191961Y-104965142D01*
X106144342Y-104917523D01*
X106049104Y-104869904D01*
X105953866Y-104869904D01*
X105858628Y-104917523D01*
X105811009Y-104965142D01*
X105763390Y-105060380D01*
X105715771Y-105250857D01*
X105668152Y-105346095D01*
X105620533Y-105393714D01*
X105525295Y-105441333D01*
X105430057Y-105441333D01*
X105334819Y-105393714D01*
X105287200Y-105346095D01*
X105239580Y-105250857D01*
X105239580Y-105012761D01*
X105287200Y-104869904D01*
X105239580Y-104536571D02*
X106239580Y-104298476D01*
X105525295Y-104108000D01*
X106239580Y-103917523D01*
X105239580Y-103679428D01*
X105334819Y-103346095D02*
X105287200Y-103298476D01*
X105239580Y-103203238D01*
X105239580Y-102965142D01*
X105287200Y-102869904D01*
X105334819Y-102822285D01*
X105430057Y-102774666D01*
X105525295Y-102774666D01*
X105668152Y-102822285D01*
X106239580Y-103393714D01*
X106239580Y-102774666D01*
G04 #@! TO.C,SW3*
X126156361Y-105441333D02*
X126203980Y-105298476D01*
X126203980Y-105060380D01*
X126156361Y-104965142D01*
X126108742Y-104917523D01*
X126013504Y-104869904D01*
X125918266Y-104869904D01*
X125823028Y-104917523D01*
X125775409Y-104965142D01*
X125727790Y-105060380D01*
X125680171Y-105250857D01*
X125632552Y-105346095D01*
X125584933Y-105393714D01*
X125489695Y-105441333D01*
X125394457Y-105441333D01*
X125299219Y-105393714D01*
X125251600Y-105346095D01*
X125203980Y-105250857D01*
X125203980Y-105012761D01*
X125251600Y-104869904D01*
X125203980Y-104536571D02*
X126203980Y-104298476D01*
X125489695Y-104108000D01*
X126203980Y-103917523D01*
X125203980Y-103679428D01*
X125203980Y-103393714D02*
X125203980Y-102774666D01*
X125584933Y-103108000D01*
X125584933Y-102965142D01*
X125632552Y-102869904D01*
X125680171Y-102822285D01*
X125775409Y-102774666D01*
X126013504Y-102774666D01*
X126108742Y-102822285D01*
X126156361Y-102869904D01*
X126203980Y-102965142D01*
X126203980Y-103250857D01*
X126156361Y-103346095D01*
X126108742Y-103393714D01*
G04 #@! TO.C,SW4*
X146196961Y-105441333D02*
X146244580Y-105298476D01*
X146244580Y-105060380D01*
X146196961Y-104965142D01*
X146149342Y-104917523D01*
X146054104Y-104869904D01*
X145958866Y-104869904D01*
X145863628Y-104917523D01*
X145816009Y-104965142D01*
X145768390Y-105060380D01*
X145720771Y-105250857D01*
X145673152Y-105346095D01*
X145625533Y-105393714D01*
X145530295Y-105441333D01*
X145435057Y-105441333D01*
X145339819Y-105393714D01*
X145292200Y-105346095D01*
X145244580Y-105250857D01*
X145244580Y-105012761D01*
X145292200Y-104869904D01*
X145244580Y-104536571D02*
X146244580Y-104298476D01*
X145530295Y-104108000D01*
X146244580Y-103917523D01*
X145244580Y-103679428D01*
X145577914Y-102869904D02*
X146244580Y-102869904D01*
X145196961Y-103108000D02*
X145911247Y-103346095D01*
X145911247Y-102727047D01*
G04 #@! TO.C,SW5*
X166161361Y-105441333D02*
X166208980Y-105298476D01*
X166208980Y-105060380D01*
X166161361Y-104965142D01*
X166113742Y-104917523D01*
X166018504Y-104869904D01*
X165923266Y-104869904D01*
X165828028Y-104917523D01*
X165780409Y-104965142D01*
X165732790Y-105060380D01*
X165685171Y-105250857D01*
X165637552Y-105346095D01*
X165589933Y-105393714D01*
X165494695Y-105441333D01*
X165399457Y-105441333D01*
X165304219Y-105393714D01*
X165256600Y-105346095D01*
X165208980Y-105250857D01*
X165208980Y-105012761D01*
X165256600Y-104869904D01*
X165208980Y-104536571D02*
X166208980Y-104298476D01*
X165494695Y-104108000D01*
X166208980Y-103917523D01*
X165208980Y-103679428D01*
X165208980Y-102822285D02*
X165208980Y-103298476D01*
X165685171Y-103346095D01*
X165637552Y-103298476D01*
X165589933Y-103203238D01*
X165589933Y-102965142D01*
X165637552Y-102869904D01*
X165685171Y-102822285D01*
X165780409Y-102774666D01*
X166018504Y-102774666D01*
X166113742Y-102822285D01*
X166161361Y-102869904D01*
X166208980Y-102965142D01*
X166208980Y-103203238D01*
X166161361Y-103298476D01*
X166113742Y-103346095D01*
G04 #@! TO.C,SW8*
X226181561Y-105441333D02*
X226229180Y-105298476D01*
X226229180Y-105060380D01*
X226181561Y-104965142D01*
X226133942Y-104917523D01*
X226038704Y-104869904D01*
X225943466Y-104869904D01*
X225848228Y-104917523D01*
X225800609Y-104965142D01*
X225752990Y-105060380D01*
X225705371Y-105250857D01*
X225657752Y-105346095D01*
X225610133Y-105393714D01*
X225514895Y-105441333D01*
X225419657Y-105441333D01*
X225324419Y-105393714D01*
X225276800Y-105346095D01*
X225229180Y-105250857D01*
X225229180Y-105012761D01*
X225276800Y-104869904D01*
X225229180Y-104536571D02*
X226229180Y-104298476D01*
X225514895Y-104108000D01*
X226229180Y-103917523D01*
X225229180Y-103679428D01*
X225657752Y-103155619D02*
X225610133Y-103250857D01*
X225562514Y-103298476D01*
X225467276Y-103346095D01*
X225419657Y-103346095D01*
X225324419Y-103298476D01*
X225276800Y-103250857D01*
X225229180Y-103155619D01*
X225229180Y-102965142D01*
X225276800Y-102869904D01*
X225324419Y-102822285D01*
X225419657Y-102774666D01*
X225467276Y-102774666D01*
X225562514Y-102822285D01*
X225610133Y-102869904D01*
X225657752Y-102965142D01*
X225657752Y-103155619D01*
X225705371Y-103250857D01*
X225752990Y-103298476D01*
X225848228Y-103346095D01*
X226038704Y-103346095D01*
X226133942Y-103298476D01*
X226181561Y-103250857D01*
X226229180Y-103155619D01*
X226229180Y-102965142D01*
X226181561Y-102869904D01*
X226133942Y-102822285D01*
X226038704Y-102774666D01*
X225848228Y-102774666D01*
X225752990Y-102822285D01*
X225705371Y-102869904D01*
X225657752Y-102965142D01*
G04 #@! TO.C,RV1*
X173639580Y-127285638D02*
X173163390Y-127618971D01*
X173639580Y-127857066D02*
X172639580Y-127857066D01*
X172639580Y-127476114D01*
X172687200Y-127380876D01*
X172734819Y-127333257D01*
X172830057Y-127285638D01*
X172972914Y-127285638D01*
X173068152Y-127333257D01*
X173115771Y-127380876D01*
X173163390Y-127476114D01*
X173163390Y-127857066D01*
X172639580Y-126999923D02*
X173639580Y-126666590D01*
X172639580Y-126333257D01*
X173639580Y-125476114D02*
X173639580Y-126047542D01*
X173639580Y-125761828D02*
X172639580Y-125761828D01*
X172782438Y-125857066D01*
X172877676Y-125952304D01*
X172925295Y-126047542D01*
G04 #@! TO.C,RV2*
X193654780Y-127285638D02*
X193178590Y-127618971D01*
X193654780Y-127857066D02*
X192654780Y-127857066D01*
X192654780Y-127476114D01*
X192702400Y-127380876D01*
X192750019Y-127333257D01*
X192845257Y-127285638D01*
X192988114Y-127285638D01*
X193083352Y-127333257D01*
X193130971Y-127380876D01*
X193178590Y-127476114D01*
X193178590Y-127857066D01*
X192654780Y-126999923D02*
X193654780Y-126666590D01*
X192654780Y-126333257D01*
X192750019Y-126047542D02*
X192702400Y-125999923D01*
X192654780Y-125904685D01*
X192654780Y-125666590D01*
X192702400Y-125571352D01*
X192750019Y-125523733D01*
X192845257Y-125476114D01*
X192940495Y-125476114D01*
X193083352Y-125523733D01*
X193654780Y-126095161D01*
X193654780Y-125476114D01*
G04 #@! TO.C,D4*
X83589904Y-42616380D02*
X83589904Y-41616380D01*
X83828000Y-41616380D01*
X83970857Y-41664000D01*
X84066095Y-41759238D01*
X84113714Y-41854476D01*
X84161333Y-42044952D01*
X84161333Y-42187809D01*
X84113714Y-42378285D01*
X84066095Y-42473523D01*
X83970857Y-42568761D01*
X83828000Y-42616380D01*
X83589904Y-42616380D01*
X85018476Y-41949714D02*
X85018476Y-42616380D01*
X84780380Y-41568761D02*
X84542285Y-42283047D01*
X85161333Y-42283047D01*
G04 #@! TO.C,D5*
X103655904Y-42616380D02*
X103655904Y-41616380D01*
X103894000Y-41616380D01*
X104036857Y-41664000D01*
X104132095Y-41759238D01*
X104179714Y-41854476D01*
X104227333Y-42044952D01*
X104227333Y-42187809D01*
X104179714Y-42378285D01*
X104132095Y-42473523D01*
X104036857Y-42568761D01*
X103894000Y-42616380D01*
X103655904Y-42616380D01*
X105132095Y-41616380D02*
X104655904Y-41616380D01*
X104608285Y-42092571D01*
X104655904Y-42044952D01*
X104751142Y-41997333D01*
X104989238Y-41997333D01*
X105084476Y-42044952D01*
X105132095Y-42092571D01*
X105179714Y-42187809D01*
X105179714Y-42425904D01*
X105132095Y-42521142D01*
X105084476Y-42568761D01*
X104989238Y-42616380D01*
X104751142Y-42616380D01*
X104655904Y-42568761D01*
X104608285Y-42521142D01*
G04 #@! TO.C,D6*
X123467904Y-42616380D02*
X123467904Y-41616380D01*
X123706000Y-41616380D01*
X123848857Y-41664000D01*
X123944095Y-41759238D01*
X123991714Y-41854476D01*
X124039333Y-42044952D01*
X124039333Y-42187809D01*
X123991714Y-42378285D01*
X123944095Y-42473523D01*
X123848857Y-42568761D01*
X123706000Y-42616380D01*
X123467904Y-42616380D01*
X124896476Y-41616380D02*
X124706000Y-41616380D01*
X124610761Y-41664000D01*
X124563142Y-41711619D01*
X124467904Y-41854476D01*
X124420285Y-42044952D01*
X124420285Y-42425904D01*
X124467904Y-42521142D01*
X124515523Y-42568761D01*
X124610761Y-42616380D01*
X124801238Y-42616380D01*
X124896476Y-42568761D01*
X124944095Y-42521142D01*
X124991714Y-42425904D01*
X124991714Y-42187809D01*
X124944095Y-42092571D01*
X124896476Y-42044952D01*
X124801238Y-41997333D01*
X124610761Y-41997333D01*
X124515523Y-42044952D01*
X124467904Y-42092571D01*
X124420285Y-42187809D01*
G04 #@! TO.C,D7*
X143533904Y-42616380D02*
X143533904Y-41616380D01*
X143772000Y-41616380D01*
X143914857Y-41664000D01*
X144010095Y-41759238D01*
X144057714Y-41854476D01*
X144105333Y-42044952D01*
X144105333Y-42187809D01*
X144057714Y-42378285D01*
X144010095Y-42473523D01*
X143914857Y-42568761D01*
X143772000Y-42616380D01*
X143533904Y-42616380D01*
X144438666Y-41616380D02*
X145105333Y-41616380D01*
X144676761Y-42616380D01*
G04 #@! TO.C,D8*
X163599904Y-42616380D02*
X163599904Y-41616380D01*
X163838000Y-41616380D01*
X163980857Y-41664000D01*
X164076095Y-41759238D01*
X164123714Y-41854476D01*
X164171333Y-42044952D01*
X164171333Y-42187809D01*
X164123714Y-42378285D01*
X164076095Y-42473523D01*
X163980857Y-42568761D01*
X163838000Y-42616380D01*
X163599904Y-42616380D01*
X164742761Y-42044952D02*
X164647523Y-41997333D01*
X164599904Y-41949714D01*
X164552285Y-41854476D01*
X164552285Y-41806857D01*
X164599904Y-41711619D01*
X164647523Y-41664000D01*
X164742761Y-41616380D01*
X164933238Y-41616380D01*
X165028476Y-41664000D01*
X165076095Y-41711619D01*
X165123714Y-41806857D01*
X165123714Y-41854476D01*
X165076095Y-41949714D01*
X165028476Y-41997333D01*
X164933238Y-42044952D01*
X164742761Y-42044952D01*
X164647523Y-42092571D01*
X164599904Y-42140190D01*
X164552285Y-42235428D01*
X164552285Y-42425904D01*
X164599904Y-42521142D01*
X164647523Y-42568761D01*
X164742761Y-42616380D01*
X164933238Y-42616380D01*
X165028476Y-42568761D01*
X165076095Y-42521142D01*
X165123714Y-42425904D01*
X165123714Y-42235428D01*
X165076095Y-42140190D01*
X165028476Y-42092571D01*
X164933238Y-42044952D01*
G04 #@! TO.C,D9*
X183411904Y-42616380D02*
X183411904Y-41616380D01*
X183650000Y-41616380D01*
X183792857Y-41664000D01*
X183888095Y-41759238D01*
X183935714Y-41854476D01*
X183983333Y-42044952D01*
X183983333Y-42187809D01*
X183935714Y-42378285D01*
X183888095Y-42473523D01*
X183792857Y-42568761D01*
X183650000Y-42616380D01*
X183411904Y-42616380D01*
X184459523Y-42616380D02*
X184650000Y-42616380D01*
X184745238Y-42568761D01*
X184792857Y-42521142D01*
X184888095Y-42378285D01*
X184935714Y-42187809D01*
X184935714Y-41806857D01*
X184888095Y-41711619D01*
X184840476Y-41664000D01*
X184745238Y-41616380D01*
X184554761Y-41616380D01*
X184459523Y-41664000D01*
X184411904Y-41711619D01*
X184364285Y-41806857D01*
X184364285Y-42044952D01*
X184411904Y-42140190D01*
X184459523Y-42187809D01*
X184554761Y-42235428D01*
X184745238Y-42235428D01*
X184840476Y-42187809D01*
X184888095Y-42140190D01*
X184935714Y-42044952D01*
G04 #@! TO.C,D10*
X203509714Y-42616380D02*
X203509714Y-41616380D01*
X203747809Y-41616380D01*
X203890666Y-41664000D01*
X203985904Y-41759238D01*
X204033523Y-41854476D01*
X204081142Y-42044952D01*
X204081142Y-42187809D01*
X204033523Y-42378285D01*
X203985904Y-42473523D01*
X203890666Y-42568761D01*
X203747809Y-42616380D01*
X203509714Y-42616380D01*
X205033523Y-42616380D02*
X204462095Y-42616380D01*
X204747809Y-42616380D02*
X204747809Y-41616380D01*
X204652571Y-41759238D01*
X204557333Y-41854476D01*
X204462095Y-41902095D01*
X205652571Y-41616380D02*
X205747809Y-41616380D01*
X205843047Y-41664000D01*
X205890666Y-41711619D01*
X205938285Y-41806857D01*
X205985904Y-41997333D01*
X205985904Y-42235428D01*
X205938285Y-42425904D01*
X205890666Y-42521142D01*
X205843047Y-42568761D01*
X205747809Y-42616380D01*
X205652571Y-42616380D01*
X205557333Y-42568761D01*
X205509714Y-42521142D01*
X205462095Y-42425904D01*
X205414476Y-42235428D01*
X205414476Y-41997333D01*
X205462095Y-41806857D01*
X205509714Y-41711619D01*
X205557333Y-41664000D01*
X205652571Y-41616380D01*
G04 #@! TO.C,D11*
X223575714Y-42616380D02*
X223575714Y-41616380D01*
X223813809Y-41616380D01*
X223956666Y-41664000D01*
X224051904Y-41759238D01*
X224099523Y-41854476D01*
X224147142Y-42044952D01*
X224147142Y-42187809D01*
X224099523Y-42378285D01*
X224051904Y-42473523D01*
X223956666Y-42568761D01*
X223813809Y-42616380D01*
X223575714Y-42616380D01*
X225099523Y-42616380D02*
X224528095Y-42616380D01*
X224813809Y-42616380D02*
X224813809Y-41616380D01*
X224718571Y-41759238D01*
X224623333Y-41854476D01*
X224528095Y-41902095D01*
X226051904Y-42616380D02*
X225480476Y-42616380D01*
X225766190Y-42616380D02*
X225766190Y-41616380D01*
X225670952Y-41759238D01*
X225575714Y-41854476D01*
X225480476Y-41902095D01*
G04 #@! TO.C,J1*
X116439066Y-119302780D02*
X116439066Y-120017066D01*
X116391447Y-120159923D01*
X116296209Y-120255161D01*
X116153352Y-120302780D01*
X116058114Y-120302780D01*
X117439066Y-120302780D02*
X116867638Y-120302780D01*
X117153352Y-120302780D02*
X117153352Y-119302780D01*
X117058114Y-119445638D01*
X116962876Y-119540876D01*
X116867638Y-119588495D01*
G04 #@! TO.C,J2*
X96474666Y-119302780D02*
X96474666Y-120017066D01*
X96427047Y-120159923D01*
X96331809Y-120255161D01*
X96188952Y-120302780D01*
X96093714Y-120302780D01*
X96903238Y-119398019D02*
X96950857Y-119350400D01*
X97046095Y-119302780D01*
X97284190Y-119302780D01*
X97379428Y-119350400D01*
X97427047Y-119398019D01*
X97474666Y-119493257D01*
X97474666Y-119588495D01*
X97427047Y-119731352D01*
X96855619Y-120302780D01*
X97474666Y-120302780D01*
G04 #@! TO.C,J3*
X76459466Y-119302780D02*
X76459466Y-120017066D01*
X76411847Y-120159923D01*
X76316609Y-120255161D01*
X76173752Y-120302780D01*
X76078514Y-120302780D01*
X76840419Y-119302780D02*
X77459466Y-119302780D01*
X77126133Y-119683733D01*
X77268990Y-119683733D01*
X77364228Y-119731352D01*
X77411847Y-119778971D01*
X77459466Y-119874209D01*
X77459466Y-120112304D01*
X77411847Y-120207542D01*
X77364228Y-120255161D01*
X77268990Y-120302780D01*
X76983276Y-120302780D01*
X76888038Y-120255161D01*
X76840419Y-120207542D01*
G04 #@! TO.C,J4*
X156469466Y-119302780D02*
X156469466Y-120017066D01*
X156421847Y-120159923D01*
X156326609Y-120255161D01*
X156183752Y-120302780D01*
X156088514Y-120302780D01*
X157374228Y-119636114D02*
X157374228Y-120302780D01*
X157136133Y-119255161D02*
X156898038Y-119969447D01*
X157517085Y-119969447D01*
G04 #@! TO.C,J6*
X136454266Y-119302780D02*
X136454266Y-120017066D01*
X136406647Y-120159923D01*
X136311409Y-120255161D01*
X136168552Y-120302780D01*
X136073314Y-120302780D01*
X137359028Y-119302780D02*
X137168552Y-119302780D01*
X137073314Y-119350400D01*
X137025695Y-119398019D01*
X136930457Y-119540876D01*
X136882838Y-119731352D01*
X136882838Y-120112304D01*
X136930457Y-120207542D01*
X136978076Y-120255161D01*
X137073314Y-120302780D01*
X137263790Y-120302780D01*
X137359028Y-120255161D01*
X137406647Y-120207542D01*
X137454266Y-120112304D01*
X137454266Y-119874209D01*
X137406647Y-119778971D01*
X137359028Y-119731352D01*
X137263790Y-119683733D01*
X137073314Y-119683733D01*
X136978076Y-119731352D01*
X136930457Y-119778971D01*
X136882838Y-119874209D01*
G04 #@! TO.C,RV3*
X73604380Y-61301238D02*
X73128190Y-61634571D01*
X73604380Y-61872666D02*
X72604380Y-61872666D01*
X72604380Y-61491714D01*
X72652000Y-61396476D01*
X72699619Y-61348857D01*
X72794857Y-61301238D01*
X72937714Y-61301238D01*
X73032952Y-61348857D01*
X73080571Y-61396476D01*
X73128190Y-61491714D01*
X73128190Y-61872666D01*
X72604380Y-61015523D02*
X73604380Y-60682190D01*
X72604380Y-60348857D01*
X72604380Y-60110761D02*
X72604380Y-59491714D01*
X72985333Y-59825047D01*
X72985333Y-59682190D01*
X73032952Y-59586952D01*
X73080571Y-59539333D01*
X73175809Y-59491714D01*
X73413904Y-59491714D01*
X73509142Y-59539333D01*
X73556761Y-59586952D01*
X73604380Y-59682190D01*
X73604380Y-59967904D01*
X73556761Y-60063142D01*
X73509142Y-60110761D01*
G04 #@! TO.C,RV4*
X93654980Y-61296438D02*
X93178790Y-61629771D01*
X93654980Y-61867866D02*
X92654980Y-61867866D01*
X92654980Y-61486914D01*
X92702600Y-61391676D01*
X92750219Y-61344057D01*
X92845457Y-61296438D01*
X92988314Y-61296438D01*
X93083552Y-61344057D01*
X93131171Y-61391676D01*
X93178790Y-61486914D01*
X93178790Y-61867866D01*
X92654980Y-61010723D02*
X93654980Y-60677390D01*
X92654980Y-60344057D01*
X92988314Y-59582152D02*
X93654980Y-59582152D01*
X92607361Y-59820247D02*
X93321647Y-60058342D01*
X93321647Y-59439295D01*
G04 #@! TO.C,RV5*
X113644780Y-61296438D02*
X113168590Y-61629771D01*
X113644780Y-61867866D02*
X112644780Y-61867866D01*
X112644780Y-61486914D01*
X112692400Y-61391676D01*
X112740019Y-61344057D01*
X112835257Y-61296438D01*
X112978114Y-61296438D01*
X113073352Y-61344057D01*
X113120971Y-61391676D01*
X113168590Y-61486914D01*
X113168590Y-61867866D01*
X112644780Y-61010723D02*
X113644780Y-60677390D01*
X112644780Y-60344057D01*
X112644780Y-59534533D02*
X112644780Y-60010723D01*
X113120971Y-60058342D01*
X113073352Y-60010723D01*
X113025733Y-59915485D01*
X113025733Y-59677390D01*
X113073352Y-59582152D01*
X113120971Y-59534533D01*
X113216209Y-59486914D01*
X113454304Y-59486914D01*
X113549542Y-59534533D01*
X113597161Y-59582152D01*
X113644780Y-59677390D01*
X113644780Y-59915485D01*
X113597161Y-60010723D01*
X113549542Y-60058342D01*
G04 #@! TO.C,RV6*
X133659980Y-61296438D02*
X133183790Y-61629771D01*
X133659980Y-61867866D02*
X132659980Y-61867866D01*
X132659980Y-61486914D01*
X132707600Y-61391676D01*
X132755219Y-61344057D01*
X132850457Y-61296438D01*
X132993314Y-61296438D01*
X133088552Y-61344057D01*
X133136171Y-61391676D01*
X133183790Y-61486914D01*
X133183790Y-61867866D01*
X132659980Y-61010723D02*
X133659980Y-60677390D01*
X132659980Y-60344057D01*
X132659980Y-59582152D02*
X132659980Y-59772628D01*
X132707600Y-59867866D01*
X132755219Y-59915485D01*
X132898076Y-60010723D01*
X133088552Y-60058342D01*
X133469504Y-60058342D01*
X133564742Y-60010723D01*
X133612361Y-59963104D01*
X133659980Y-59867866D01*
X133659980Y-59677390D01*
X133612361Y-59582152D01*
X133564742Y-59534533D01*
X133469504Y-59486914D01*
X133231409Y-59486914D01*
X133136171Y-59534533D01*
X133088552Y-59582152D01*
X133040933Y-59677390D01*
X133040933Y-59867866D01*
X133088552Y-59963104D01*
X133136171Y-60010723D01*
X133231409Y-60058342D01*
G04 #@! TO.C,RV7*
X153649780Y-61296438D02*
X153173590Y-61629771D01*
X153649780Y-61867866D02*
X152649780Y-61867866D01*
X152649780Y-61486914D01*
X152697400Y-61391676D01*
X152745019Y-61344057D01*
X152840257Y-61296438D01*
X152983114Y-61296438D01*
X153078352Y-61344057D01*
X153125971Y-61391676D01*
X153173590Y-61486914D01*
X153173590Y-61867866D01*
X152649780Y-61010723D02*
X153649780Y-60677390D01*
X152649780Y-60344057D01*
X152649780Y-60105961D02*
X152649780Y-59439295D01*
X153649780Y-59867866D01*
G04 #@! TO.C,RV8*
X173639580Y-61296438D02*
X173163390Y-61629771D01*
X173639580Y-61867866D02*
X172639580Y-61867866D01*
X172639580Y-61486914D01*
X172687200Y-61391676D01*
X172734819Y-61344057D01*
X172830057Y-61296438D01*
X172972914Y-61296438D01*
X173068152Y-61344057D01*
X173115771Y-61391676D01*
X173163390Y-61486914D01*
X173163390Y-61867866D01*
X172639580Y-61010723D02*
X173639580Y-60677390D01*
X172639580Y-60344057D01*
X173068152Y-59867866D02*
X173020533Y-59963104D01*
X172972914Y-60010723D01*
X172877676Y-60058342D01*
X172830057Y-60058342D01*
X172734819Y-60010723D01*
X172687200Y-59963104D01*
X172639580Y-59867866D01*
X172639580Y-59677390D01*
X172687200Y-59582152D01*
X172734819Y-59534533D01*
X172830057Y-59486914D01*
X172877676Y-59486914D01*
X172972914Y-59534533D01*
X173020533Y-59582152D01*
X173068152Y-59677390D01*
X173068152Y-59867866D01*
X173115771Y-59963104D01*
X173163390Y-60010723D01*
X173258628Y-60058342D01*
X173449104Y-60058342D01*
X173544342Y-60010723D01*
X173591961Y-59963104D01*
X173639580Y-59867866D01*
X173639580Y-59677390D01*
X173591961Y-59582152D01*
X173544342Y-59534533D01*
X173449104Y-59486914D01*
X173258628Y-59486914D01*
X173163390Y-59534533D01*
X173115771Y-59582152D01*
X173068152Y-59677390D01*
G04 #@! TO.C,RV9*
X193654780Y-61296438D02*
X193178590Y-61629771D01*
X193654780Y-61867866D02*
X192654780Y-61867866D01*
X192654780Y-61486914D01*
X192702400Y-61391676D01*
X192750019Y-61344057D01*
X192845257Y-61296438D01*
X192988114Y-61296438D01*
X193083352Y-61344057D01*
X193130971Y-61391676D01*
X193178590Y-61486914D01*
X193178590Y-61867866D01*
X192654780Y-61010723D02*
X193654780Y-60677390D01*
X192654780Y-60344057D01*
X193654780Y-59963104D02*
X193654780Y-59772628D01*
X193607161Y-59677390D01*
X193559542Y-59629771D01*
X193416685Y-59534533D01*
X193226209Y-59486914D01*
X192845257Y-59486914D01*
X192750019Y-59534533D01*
X192702400Y-59582152D01*
X192654780Y-59677390D01*
X192654780Y-59867866D01*
X192702400Y-59963104D01*
X192750019Y-60010723D01*
X192845257Y-60058342D01*
X193083352Y-60058342D01*
X193178590Y-60010723D01*
X193226209Y-59963104D01*
X193273828Y-59867866D01*
X193273828Y-59677390D01*
X193226209Y-59582152D01*
X193178590Y-59534533D01*
X193083352Y-59486914D01*
G04 #@! TO.C,RV10*
X213644580Y-61772628D02*
X213168390Y-62105961D01*
X213644580Y-62344057D02*
X212644580Y-62344057D01*
X212644580Y-61963104D01*
X212692200Y-61867866D01*
X212739819Y-61820247D01*
X212835057Y-61772628D01*
X212977914Y-61772628D01*
X213073152Y-61820247D01*
X213120771Y-61867866D01*
X213168390Y-61963104D01*
X213168390Y-62344057D01*
X212644580Y-61486914D02*
X213644580Y-61153580D01*
X212644580Y-60820247D01*
X213644580Y-59963104D02*
X213644580Y-60534533D01*
X213644580Y-60248819D02*
X212644580Y-60248819D01*
X212787438Y-60344057D01*
X212882676Y-60439295D01*
X212930295Y-60534533D01*
X212644580Y-59344057D02*
X212644580Y-59248819D01*
X212692200Y-59153580D01*
X212739819Y-59105961D01*
X212835057Y-59058342D01*
X213025533Y-59010723D01*
X213263628Y-59010723D01*
X213454104Y-59058342D01*
X213549342Y-59105961D01*
X213596961Y-59153580D01*
X213644580Y-59248819D01*
X213644580Y-59344057D01*
X213596961Y-59439295D01*
X213549342Y-59486914D01*
X213454104Y-59534533D01*
X213263628Y-59582152D01*
X213025533Y-59582152D01*
X212835057Y-59534533D01*
X212739819Y-59486914D01*
X212692200Y-59439295D01*
X212644580Y-59344057D01*
G04 #@! TO.C,RV11*
X73604380Y-83875428D02*
X73128190Y-84208761D01*
X73604380Y-84446857D02*
X72604380Y-84446857D01*
X72604380Y-84065904D01*
X72652000Y-83970666D01*
X72699619Y-83923047D01*
X72794857Y-83875428D01*
X72937714Y-83875428D01*
X73032952Y-83923047D01*
X73080571Y-83970666D01*
X73128190Y-84065904D01*
X73128190Y-84446857D01*
X72604380Y-83589714D02*
X73604380Y-83256380D01*
X72604380Y-82923047D01*
X73604380Y-82065904D02*
X73604380Y-82637333D01*
X73604380Y-82351619D02*
X72604380Y-82351619D01*
X72747238Y-82446857D01*
X72842476Y-82542095D01*
X72890095Y-82637333D01*
X73604380Y-81113523D02*
X73604380Y-81684952D01*
X73604380Y-81399238D02*
X72604380Y-81399238D01*
X72747238Y-81494476D01*
X72842476Y-81589714D01*
X72890095Y-81684952D01*
G04 #@! TO.C,RV12*
X93654980Y-83769028D02*
X93178790Y-84102361D01*
X93654980Y-84340457D02*
X92654980Y-84340457D01*
X92654980Y-83959504D01*
X92702600Y-83864266D01*
X92750219Y-83816647D01*
X92845457Y-83769028D01*
X92988314Y-83769028D01*
X93083552Y-83816647D01*
X93131171Y-83864266D01*
X93178790Y-83959504D01*
X93178790Y-84340457D01*
X92654980Y-83483314D02*
X93654980Y-83149980D01*
X92654980Y-82816647D01*
X93654980Y-81959504D02*
X93654980Y-82530933D01*
X93654980Y-82245219D02*
X92654980Y-82245219D01*
X92797838Y-82340457D01*
X92893076Y-82435695D01*
X92940695Y-82530933D01*
X92750219Y-81578552D02*
X92702600Y-81530933D01*
X92654980Y-81435695D01*
X92654980Y-81197600D01*
X92702600Y-81102361D01*
X92750219Y-81054742D01*
X92845457Y-81007123D01*
X92940695Y-81007123D01*
X93083552Y-81054742D01*
X93654980Y-81626171D01*
X93654980Y-81007123D01*
G04 #@! TO.C,RV13*
X113644780Y-83769028D02*
X113168590Y-84102361D01*
X113644780Y-84340457D02*
X112644780Y-84340457D01*
X112644780Y-83959504D01*
X112692400Y-83864266D01*
X112740019Y-83816647D01*
X112835257Y-83769028D01*
X112978114Y-83769028D01*
X113073352Y-83816647D01*
X113120971Y-83864266D01*
X113168590Y-83959504D01*
X113168590Y-84340457D01*
X112644780Y-83483314D02*
X113644780Y-83149980D01*
X112644780Y-82816647D01*
X113644780Y-81959504D02*
X113644780Y-82530933D01*
X113644780Y-82245219D02*
X112644780Y-82245219D01*
X112787638Y-82340457D01*
X112882876Y-82435695D01*
X112930495Y-82530933D01*
X112644780Y-81626171D02*
X112644780Y-81007123D01*
X113025733Y-81340457D01*
X113025733Y-81197600D01*
X113073352Y-81102361D01*
X113120971Y-81054742D01*
X113216209Y-81007123D01*
X113454304Y-81007123D01*
X113549542Y-81054742D01*
X113597161Y-81102361D01*
X113644780Y-81197600D01*
X113644780Y-81483314D01*
X113597161Y-81578552D01*
X113549542Y-81626171D01*
G04 #@! TO.C,RV14*
X133634580Y-83769028D02*
X133158390Y-84102361D01*
X133634580Y-84340457D02*
X132634580Y-84340457D01*
X132634580Y-83959504D01*
X132682200Y-83864266D01*
X132729819Y-83816647D01*
X132825057Y-83769028D01*
X132967914Y-83769028D01*
X133063152Y-83816647D01*
X133110771Y-83864266D01*
X133158390Y-83959504D01*
X133158390Y-84340457D01*
X132634580Y-83483314D02*
X133634580Y-83149980D01*
X132634580Y-82816647D01*
X133634580Y-81959504D02*
X133634580Y-82530933D01*
X133634580Y-82245219D02*
X132634580Y-82245219D01*
X132777438Y-82340457D01*
X132872676Y-82435695D01*
X132920295Y-82530933D01*
X132967914Y-81102361D02*
X133634580Y-81102361D01*
X132586961Y-81340457D02*
X133301247Y-81578552D01*
X133301247Y-80959504D01*
G04 #@! TO.C,RV15*
X153649780Y-83769028D02*
X153173590Y-84102361D01*
X153649780Y-84340457D02*
X152649780Y-84340457D01*
X152649780Y-83959504D01*
X152697400Y-83864266D01*
X152745019Y-83816647D01*
X152840257Y-83769028D01*
X152983114Y-83769028D01*
X153078352Y-83816647D01*
X153125971Y-83864266D01*
X153173590Y-83959504D01*
X153173590Y-84340457D01*
X152649780Y-83483314D02*
X153649780Y-83149980D01*
X152649780Y-82816647D01*
X153649780Y-81959504D02*
X153649780Y-82530933D01*
X153649780Y-82245219D02*
X152649780Y-82245219D01*
X152792638Y-82340457D01*
X152887876Y-82435695D01*
X152935495Y-82530933D01*
X152649780Y-81054742D02*
X152649780Y-81530933D01*
X153125971Y-81578552D01*
X153078352Y-81530933D01*
X153030733Y-81435695D01*
X153030733Y-81197600D01*
X153078352Y-81102361D01*
X153125971Y-81054742D01*
X153221209Y-81007123D01*
X153459304Y-81007123D01*
X153554542Y-81054742D01*
X153602161Y-81102361D01*
X153649780Y-81197600D01*
X153649780Y-81435695D01*
X153602161Y-81530933D01*
X153554542Y-81578552D01*
G04 #@! TO.C,RV16*
X173639580Y-83769028D02*
X173163390Y-84102361D01*
X173639580Y-84340457D02*
X172639580Y-84340457D01*
X172639580Y-83959504D01*
X172687200Y-83864266D01*
X172734819Y-83816647D01*
X172830057Y-83769028D01*
X172972914Y-83769028D01*
X173068152Y-83816647D01*
X173115771Y-83864266D01*
X173163390Y-83959504D01*
X173163390Y-84340457D01*
X172639580Y-83483314D02*
X173639580Y-83149980D01*
X172639580Y-82816647D01*
X173639580Y-81959504D02*
X173639580Y-82530933D01*
X173639580Y-82245219D02*
X172639580Y-82245219D01*
X172782438Y-82340457D01*
X172877676Y-82435695D01*
X172925295Y-82530933D01*
X172639580Y-81102361D02*
X172639580Y-81292838D01*
X172687200Y-81388076D01*
X172734819Y-81435695D01*
X172877676Y-81530933D01*
X173068152Y-81578552D01*
X173449104Y-81578552D01*
X173544342Y-81530933D01*
X173591961Y-81483314D01*
X173639580Y-81388076D01*
X173639580Y-81197600D01*
X173591961Y-81102361D01*
X173544342Y-81054742D01*
X173449104Y-81007123D01*
X173211009Y-81007123D01*
X173115771Y-81054742D01*
X173068152Y-81102361D01*
X173020533Y-81197600D01*
X173020533Y-81388076D01*
X173068152Y-81483314D01*
X173115771Y-81530933D01*
X173211009Y-81578552D01*
G04 #@! TO.C,RV17*
X193629380Y-83769028D02*
X193153190Y-84102361D01*
X193629380Y-84340457D02*
X192629380Y-84340457D01*
X192629380Y-83959504D01*
X192677000Y-83864266D01*
X192724619Y-83816647D01*
X192819857Y-83769028D01*
X192962714Y-83769028D01*
X193057952Y-83816647D01*
X193105571Y-83864266D01*
X193153190Y-83959504D01*
X193153190Y-84340457D01*
X192629380Y-83483314D02*
X193629380Y-83149980D01*
X192629380Y-82816647D01*
X193629380Y-81959504D02*
X193629380Y-82530933D01*
X193629380Y-82245219D02*
X192629380Y-82245219D01*
X192772238Y-82340457D01*
X192867476Y-82435695D01*
X192915095Y-82530933D01*
X192629380Y-81626171D02*
X192629380Y-80959504D01*
X193629380Y-81388076D01*
G04 #@! TO.C,RV18*
X220797380Y-82605428D02*
X220321190Y-82938761D01*
X220797380Y-83176857D02*
X219797380Y-83176857D01*
X219797380Y-82795904D01*
X219845000Y-82700666D01*
X219892619Y-82653047D01*
X219987857Y-82605428D01*
X220130714Y-82605428D01*
X220225952Y-82653047D01*
X220273571Y-82700666D01*
X220321190Y-82795904D01*
X220321190Y-83176857D01*
X219797380Y-82319714D02*
X220797380Y-81986380D01*
X219797380Y-81653047D01*
X220797380Y-80795904D02*
X220797380Y-81367333D01*
X220797380Y-81081619D02*
X219797380Y-81081619D01*
X219940238Y-81176857D01*
X220035476Y-81272095D01*
X220083095Y-81367333D01*
X220225952Y-80224476D02*
X220178333Y-80319714D01*
X220130714Y-80367333D01*
X220035476Y-80414952D01*
X219987857Y-80414952D01*
X219892619Y-80367333D01*
X219845000Y-80319714D01*
X219797380Y-80224476D01*
X219797380Y-80034000D01*
X219845000Y-79938761D01*
X219892619Y-79891142D01*
X219987857Y-79843523D01*
X220035476Y-79843523D01*
X220130714Y-79891142D01*
X220178333Y-79938761D01*
X220225952Y-80034000D01*
X220225952Y-80224476D01*
X220273571Y-80319714D01*
X220321190Y-80367333D01*
X220416428Y-80414952D01*
X220606904Y-80414952D01*
X220702142Y-80367333D01*
X220749761Y-80319714D01*
X220797380Y-80224476D01*
X220797380Y-80034000D01*
X220749761Y-79938761D01*
X220702142Y-79891142D01*
X220606904Y-79843523D01*
X220416428Y-79843523D01*
X220321190Y-79891142D01*
X220273571Y-79938761D01*
X220225952Y-80034000D01*
G04 #@! TO.C,SW9*
X219494266Y-111551761D02*
X219637123Y-111599380D01*
X219875219Y-111599380D01*
X219970457Y-111551761D01*
X220018076Y-111504142D01*
X220065695Y-111408904D01*
X220065695Y-111313666D01*
X220018076Y-111218428D01*
X219970457Y-111170809D01*
X219875219Y-111123190D01*
X219684742Y-111075571D01*
X219589504Y-111027952D01*
X219541885Y-110980333D01*
X219494266Y-110885095D01*
X219494266Y-110789857D01*
X219541885Y-110694619D01*
X219589504Y-110647000D01*
X219684742Y-110599380D01*
X219922838Y-110599380D01*
X220065695Y-110647000D01*
X220399028Y-110599380D02*
X220637123Y-111599380D01*
X220827600Y-110885095D01*
X221018076Y-111599380D01*
X221256171Y-110599380D01*
X221684742Y-111599380D02*
X221875219Y-111599380D01*
X221970457Y-111551761D01*
X222018076Y-111504142D01*
X222113314Y-111361285D01*
X222160933Y-111170809D01*
X222160933Y-110789857D01*
X222113314Y-110694619D01*
X222065695Y-110647000D01*
X221970457Y-110599380D01*
X221779980Y-110599380D01*
X221684742Y-110647000D01*
X221637123Y-110694619D01*
X221589504Y-110789857D01*
X221589504Y-111027952D01*
X221637123Y-111123190D01*
X221684742Y-111170809D01*
X221779980Y-111218428D01*
X221970457Y-111218428D01*
X222065695Y-111170809D01*
X222113314Y-111123190D01*
X222160933Y-111027952D01*
G04 #@! TD*
M02*
