M48
;DRILL file {KiCad 5.0.2+dfsg1-1~bpo9+1} date Mon 09 Sep 2019 09:30:15 PM CEST
;FORMAT={-:-/ absolute / inch / decimal}
FMAT,2
INCH,TZ
T1C0.0157
T2C0.0315
T3C0.0354
T4C0.0394
T5C0.0400
T6C0.0433
T7C0.0551
T8C0.0630
T9C0.0709
T10C0.0866
%
G90
G05
T1
X3.03Y-4.33
X3.77Y-3.52
X3.77Y-3.63
X3.86Y-4.34
X4.12Y-4.33
X4.9Y-4.33
X5.15Y-3.39
X5.15Y-3.63
X5.15Y-4.33
X5.39Y-4.32
X5.47Y-1.91
X5.47Y-2.79
X5.48Y-4.44
X5.49Y-3.67
X5.54Y-3.41
X5.68Y-4.24
X5.7Y-4.38
X5.9148Y-2.6952
X5.97Y-4.81
X5.98Y-3.6
X5.99Y-3.99
X5.9926Y-3.2629
X5.9938Y-3.3461
X6.Y-2.91
X6.01Y-4.34
X6.02Y-2.69
X6.0317Y-3.2668
X6.04Y-3.6
X6.04Y-3.96
X6.04Y-4.52
X6.05Y-2.91
X6.05Y-4.34
X6.0555Y-3.3491
X6.0724Y-3.2829
X6.08Y-3.99
X6.1Y-2.91
X6.1Y-3.6
X6.1Y-4.35
X6.11Y-3.3491
X6.12Y-2.63
X6.12Y-4.81
X6.13Y-1.966
X6.15Y-4.25
X6.16Y-3.41
X6.2Y-4.2
X6.21Y-3.32
X6.282Y-1.663
X6.33Y-4.4842
X6.44Y-1.78
X6.48Y-4.32
X6.52Y-4.97
X6.8Y-3.46
X6.8Y-3.91
X6.88Y-4.29
X7.09Y-4.39
X7.14Y-4.51
X7.15Y-4.69
X7.17Y-4.42
X7.3Y-2.47
X7.42Y-3.0715
X7.44Y-2.52
X7.4447Y-4.1169
X7.4697Y-3.11
X7.5291Y-4.1867
X7.54Y-3.88
X7.5437Y-3.43
X7.5615Y-3.57
X7.63Y-3.0915
X7.67Y-3.12
X7.72Y-4.54
X7.75Y-4.43
X7.78Y-4.59
X7.81Y-3.85
X7.88Y-4.63
X7.89Y-3.375
X8.145Y-3.375
X8.31Y-4.32
X8.36Y-4.81
X8.46Y-4.95
T2
X6.9779Y-3.68
X7.17Y-3.68
X7.364Y-3.377
X7.364Y-3.477
X7.364Y-3.577
X7.364Y-3.677
X7.364Y-3.777
X7.364Y-3.877
X7.364Y-3.977
X7.364Y-4.077
X7.364Y-4.177
X7.364Y-4.277
X7.364Y-4.377
X7.364Y-4.477
X7.364Y-4.577
X7.364Y-4.677
X7.664Y-3.377
X7.664Y-3.477
X7.664Y-3.577
X7.664Y-3.677
X7.664Y-3.777
X7.664Y-3.877
X7.664Y-3.977
X7.664Y-4.077
X7.664Y-4.177
X7.664Y-4.277
X7.664Y-4.377
X7.664Y-4.477
X7.664Y-4.577
X7.664Y-4.677
T3
X8.644Y-1.663
X8.744Y-1.663
X3.133Y-1.663
X3.233Y-1.663
X5.495Y-1.663
X5.595Y-1.663
X8.26Y-3.22
X8.36Y-3.22
X7.857Y-1.663
X7.957Y-1.663
X4.707Y-1.663
X4.807Y-1.663
X6.282Y-1.663
X6.382Y-1.663
X7.069Y-1.663
X7.169Y-1.663
X3.92Y-1.663
X4.02Y-1.663
T4
X3.0841Y-3.494
X3.1826Y-3.494
X3.281Y-3.494
X4.6591Y-3.494
X4.7576Y-3.494
X4.856Y-3.494
X6.2341Y-3.494
X6.3326Y-3.494
X6.431Y-3.494
X7.0211Y-5.226
X7.1196Y-5.226
X7.218Y-5.226
X6.2341Y-2.628
X6.3326Y-2.628
X6.431Y-2.628
X7.0211Y-2.628
X7.1196Y-2.628
X7.218Y-2.628
X7.8091Y-2.628
X7.9076Y-2.628
X8.006Y-2.628
X7.25Y-4.48
X7.25Y-4.58
X5.4471Y-2.628
X5.5456Y-2.628
X5.644Y-2.628
X7.0211Y-3.494
X7.1196Y-3.494
X7.218Y-3.494
X3.8721Y-3.494
X3.9706Y-3.494
X4.069Y-3.494
X7.8081Y-3.494
X7.9066Y-3.494
X8.005Y-3.494
X3.8721Y-2.628
X3.9706Y-2.628
X4.069Y-2.628
X3.87Y-4.5
X3.97Y-4.5
X4.07Y-4.5
X7.8091Y-5.226
X7.9076Y-5.226
X8.006Y-5.226
X8.2Y-3.63
X8.2Y-3.73
X8.3Y-3.63
X8.3Y-3.73
X8.4Y-3.63
X8.4Y-3.73
X8.5961Y-3.494
X8.6946Y-3.494
X8.793Y-3.494
X5.4461Y-3.494
X5.5446Y-3.494
X5.643Y-3.494
X3.0841Y-2.628
X3.1826Y-2.628
X3.281Y-2.628
X8.5961Y-2.628
X8.6946Y-2.628
X8.793Y-2.628
X4.6591Y-2.628
X4.7576Y-2.628
X4.856Y-2.628
T5
X3.53Y-4.095
X3.53Y-4.195
X3.53Y-4.295
X3.53Y-4.395
X3.53Y-4.495
X3.53Y-4.595
X3.53Y-4.695
X3.53Y-4.795
X3.63Y-4.095
X3.63Y-4.195
X3.63Y-4.295
X3.63Y-4.395
X3.63Y-4.495
X3.63Y-4.595
X3.63Y-4.695
X3.63Y-4.795
T6
X6.5741Y-4.66
X6.5741Y-4.8372
X6.83Y-4.66
X6.83Y-4.8372
T7
X8.2757Y-4.8179
X8.2757Y-5.0421
X8.3878Y-4.6238
X8.3878Y-5.2362
X8.5819Y-4.5117
X8.5819Y-5.3483
X8.5826Y-4.8212
X8.8061Y-4.5117
X8.8061Y-5.3483
X9.0002Y-4.6238
X9.0002Y-5.2362
X9.1123Y-4.8179
X9.1123Y-5.0421
T8
X3.97Y-4.676
X5.544Y-4.676
X4.756Y-4.676
X3.182Y-4.676
X6.332Y-4.676
T9
X4.756Y-4.798
X4.756Y-5.1248
X3.182Y-4.798
X3.182Y-5.1248
X6.332Y-4.798
X6.332Y-5.1248
X3.97Y-4.798
X3.97Y-5.1248
X5.544Y-4.798
X5.544Y-5.1248
T10
X7.908Y-3.9129
X7.908Y-4.0987
X7.908Y-4.2846
X6.329Y-3.9129
X6.329Y-4.0987
X6.329Y-4.2846
X4.754Y-3.9129
X4.754Y-4.0987
X4.754Y-4.2846
X3.968Y-3.9129
X3.968Y-4.0987
X3.968Y-4.2846
X3.181Y-3.9129
X3.181Y-4.0987
X3.181Y-4.2846
X5.543Y-3.9129
X5.543Y-4.0987
X5.543Y-4.2846
X8.692Y-3.9129
X8.692Y-4.0987
X8.692Y-4.2846
X7.117Y-3.9129
X7.117Y-4.0987
X7.117Y-4.2846
T0
M30
