G04 #@! TF.GenerationSoftware,KiCad,Pcbnew,5.0.2+dfsg1-1~bpo9+1*
G04 #@! TF.CreationDate,2019-09-09T21:30:10+02:00*
G04 #@! TF.ProjectId,diymetro,6469796d-6574-4726-9f2e-6b696361645f,rev?*
G04 #@! TF.SameCoordinates,Original*
G04 #@! TF.FileFunction,Legend,Bot*
G04 #@! TF.FilePolarity,Positive*
%FSLAX46Y46*%
G04 Gerber Fmt 4.6, Leading zero omitted, Abs format (unit mm)*
G04 Created by KiCad (PCBNEW 5.0.2+dfsg1-1~bpo9+1) date Mon 09 Sep 2019 09:30:10 PM CEST*
%MOMM*%
%LPD*%
G01*
G04 APERTURE LIST*
%ADD10C,0.200000*%
%ADD11C,0.300000*%
%ADD12C,0.250000*%
%ADD13C,0.150000*%
%ADD14C,0.120000*%
G04 APERTURE END LIST*
D10*
X212296190Y-97734380D02*
X212296190Y-96734380D01*
X211248571Y-97639142D02*
X211296190Y-97686761D01*
X211439047Y-97734380D01*
X211534285Y-97734380D01*
X211677142Y-97686761D01*
X211772380Y-97591523D01*
X211820000Y-97496285D01*
X211867619Y-97305809D01*
X211867619Y-97162952D01*
X211820000Y-96972476D01*
X211772380Y-96877238D01*
X211677142Y-96782000D01*
X211534285Y-96734380D01*
X211439047Y-96734380D01*
X211296190Y-96782000D01*
X211248571Y-96829619D01*
X210867619Y-97686761D02*
X210724761Y-97734380D01*
X210486666Y-97734380D01*
X210391428Y-97686761D01*
X210343809Y-97639142D01*
X210296190Y-97543904D01*
X210296190Y-97448666D01*
X210343809Y-97353428D01*
X210391428Y-97305809D01*
X210486666Y-97258190D01*
X210677142Y-97210571D01*
X210772380Y-97162952D01*
X210820000Y-97115333D01*
X210867619Y-97020095D01*
X210867619Y-96924857D01*
X210820000Y-96829619D01*
X210772380Y-96782000D01*
X210677142Y-96734380D01*
X210439047Y-96734380D01*
X210296190Y-96782000D01*
X209867619Y-97734380D02*
X209867619Y-96734380D01*
X209486666Y-96734380D01*
X209391428Y-96782000D01*
X209343809Y-96829619D01*
X209296190Y-96924857D01*
X209296190Y-97067714D01*
X209343809Y-97162952D01*
X209391428Y-97210571D01*
X209486666Y-97258190D01*
X209867619Y-97258190D01*
X185388095Y-119022761D02*
X185245238Y-119070380D01*
X185007142Y-119070380D01*
X184911904Y-119022761D01*
X184864285Y-118975142D01*
X184816666Y-118879904D01*
X184816666Y-118784666D01*
X184864285Y-118689428D01*
X184911904Y-118641809D01*
X185007142Y-118594190D01*
X185197619Y-118546571D01*
X185292857Y-118498952D01*
X185340476Y-118451333D01*
X185388095Y-118356095D01*
X185388095Y-118260857D01*
X185340476Y-118165619D01*
X185292857Y-118118000D01*
X185197619Y-118070380D01*
X184959523Y-118070380D01*
X184816666Y-118118000D01*
X184388095Y-118546571D02*
X184054761Y-118546571D01*
X183911904Y-119070380D02*
X184388095Y-119070380D01*
X184388095Y-118070380D01*
X183911904Y-118070380D01*
X182911904Y-119070380D02*
X183245238Y-118594190D01*
X183483333Y-119070380D02*
X183483333Y-118070380D01*
X183102380Y-118070380D01*
X183007142Y-118118000D01*
X182959523Y-118165619D01*
X182911904Y-118260857D01*
X182911904Y-118403714D01*
X182959523Y-118498952D01*
X183007142Y-118546571D01*
X183102380Y-118594190D01*
X183483333Y-118594190D01*
D11*
X215138000Y-96547714D02*
X215066571Y-96619142D01*
X215138000Y-96690571D01*
X215209428Y-96619142D01*
X215138000Y-96547714D01*
X215138000Y-96690571D01*
D12*
X226032452Y-70596476D02*
X225318166Y-70596476D01*
X225675309Y-71846476D02*
X225675309Y-70596476D01*
X224722928Y-71846476D02*
X224841976Y-71786952D01*
X224901500Y-71727428D01*
X224961023Y-71608380D01*
X224961023Y-71251238D01*
X224901500Y-71132190D01*
X224841976Y-71072666D01*
X224722928Y-71013142D01*
X224544357Y-71013142D01*
X224425309Y-71072666D01*
X224365785Y-71132190D01*
X224306261Y-71251238D01*
X224306261Y-71608380D01*
X224365785Y-71727428D01*
X224425309Y-71786952D01*
X224544357Y-71846476D01*
X224722928Y-71846476D01*
X223770547Y-71846476D02*
X223770547Y-71013142D01*
X223770547Y-71132190D02*
X223711023Y-71072666D01*
X223591976Y-71013142D01*
X223413404Y-71013142D01*
X223294357Y-71072666D01*
X223234833Y-71191714D01*
X223234833Y-71846476D01*
X223234833Y-71191714D02*
X223175309Y-71072666D01*
X223056261Y-71013142D01*
X222877690Y-71013142D01*
X222758642Y-71072666D01*
X222699119Y-71191714D01*
X222699119Y-71846476D01*
X221568166Y-71846476D02*
X221568166Y-71191714D01*
X221627690Y-71072666D01*
X221746738Y-71013142D01*
X221984833Y-71013142D01*
X222103880Y-71072666D01*
X221568166Y-71786952D02*
X221687214Y-71846476D01*
X221984833Y-71846476D01*
X222103880Y-71786952D01*
X222163404Y-71667904D01*
X222163404Y-71548857D01*
X222103880Y-71429809D01*
X221984833Y-71370285D01*
X221687214Y-71370285D01*
X221568166Y-71310761D01*
X220972928Y-71846476D02*
X220972928Y-71013142D01*
X220972928Y-71251238D02*
X220913404Y-71132190D01*
X220853880Y-71072666D01*
X220734833Y-71013142D01*
X220615785Y-71013142D01*
X219663404Y-71013142D02*
X219663404Y-71846476D01*
X220199119Y-71013142D02*
X220199119Y-71667904D01*
X220139595Y-71786952D01*
X220020547Y-71846476D01*
X219841976Y-71846476D01*
X219722928Y-71786952D01*
X219663404Y-71727428D01*
X219127690Y-71786952D02*
X219008642Y-71846476D01*
X218770547Y-71846476D01*
X218651500Y-71786952D01*
X218591976Y-71667904D01*
X218591976Y-71608380D01*
X218651500Y-71489333D01*
X218770547Y-71429809D01*
X218949119Y-71429809D01*
X219068166Y-71370285D01*
X219127690Y-71251238D01*
X219127690Y-71191714D01*
X219068166Y-71072666D01*
X218949119Y-71013142D01*
X218770547Y-71013142D01*
X218651500Y-71072666D01*
X217163404Y-71786952D02*
X216984833Y-71846476D01*
X216687214Y-71846476D01*
X216568166Y-71786952D01*
X216508642Y-71727428D01*
X216449119Y-71608380D01*
X216449119Y-71489333D01*
X216508642Y-71370285D01*
X216568166Y-71310761D01*
X216687214Y-71251238D01*
X216925309Y-71191714D01*
X217044357Y-71132190D01*
X217103880Y-71072666D01*
X217163404Y-70953619D01*
X217163404Y-70834571D01*
X217103880Y-70715523D01*
X217044357Y-70656000D01*
X216925309Y-70596476D01*
X216627690Y-70596476D01*
X216449119Y-70656000D01*
X215437214Y-71786952D02*
X215556261Y-71846476D01*
X215794357Y-71846476D01*
X215913404Y-71786952D01*
X215972928Y-71667904D01*
X215972928Y-71191714D01*
X215913404Y-71072666D01*
X215794357Y-71013142D01*
X215556261Y-71013142D01*
X215437214Y-71072666D01*
X215377690Y-71191714D01*
X215377690Y-71310761D01*
X215972928Y-71429809D01*
X214306261Y-71013142D02*
X214306261Y-72263142D01*
X214306261Y-71786952D02*
X214425309Y-71846476D01*
X214663404Y-71846476D01*
X214782452Y-71786952D01*
X214841976Y-71727428D01*
X214901500Y-71608380D01*
X214901500Y-71251238D01*
X214841976Y-71132190D01*
X214782452Y-71072666D01*
X214663404Y-71013142D01*
X214425309Y-71013142D01*
X214306261Y-71072666D01*
X213175309Y-71013142D02*
X213175309Y-71846476D01*
X213711023Y-71013142D02*
X213711023Y-71667904D01*
X213651500Y-71786952D01*
X213532452Y-71846476D01*
X213353880Y-71846476D01*
X213234833Y-71786952D01*
X213175309Y-71727428D01*
X212103880Y-71786952D02*
X212222928Y-71846476D01*
X212461023Y-71846476D01*
X212580071Y-71786952D01*
X212639595Y-71667904D01*
X212639595Y-71191714D01*
X212580071Y-71072666D01*
X212461023Y-71013142D01*
X212222928Y-71013142D01*
X212103880Y-71072666D01*
X212044357Y-71191714D01*
X212044357Y-71310761D01*
X212639595Y-71429809D01*
X211508642Y-71013142D02*
X211508642Y-71846476D01*
X211508642Y-71132190D02*
X211449119Y-71072666D01*
X211330071Y-71013142D01*
X211151500Y-71013142D01*
X211032452Y-71072666D01*
X210972928Y-71191714D01*
X210972928Y-71846476D01*
X209841976Y-71786952D02*
X209961023Y-71846476D01*
X210199119Y-71846476D01*
X210318166Y-71786952D01*
X210377690Y-71727428D01*
X210437214Y-71608380D01*
X210437214Y-71251238D01*
X210377690Y-71132190D01*
X210318166Y-71072666D01*
X210199119Y-71013142D01*
X209961023Y-71013142D01*
X209841976Y-71072666D01*
X208830071Y-71786952D02*
X208949119Y-71846476D01*
X209187214Y-71846476D01*
X209306261Y-71786952D01*
X209365785Y-71667904D01*
X209365785Y-71191714D01*
X209306261Y-71072666D01*
X209187214Y-71013142D01*
X208949119Y-71013142D01*
X208830071Y-71072666D01*
X208770547Y-71191714D01*
X208770547Y-71310761D01*
X209365785Y-71429809D01*
X208234833Y-71846476D02*
X208234833Y-71013142D01*
X208234833Y-71251238D02*
X208175309Y-71132190D01*
X208115785Y-71072666D01*
X207996738Y-71013142D01*
X207877690Y-71013142D01*
X206627690Y-71013142D02*
X206330071Y-71846476D01*
X206032452Y-71013142D01*
X204901500Y-71846476D02*
X205615785Y-71846476D01*
X205258642Y-71846476D02*
X205258642Y-70596476D01*
X205377690Y-70775047D01*
X205496738Y-70894095D01*
X205615785Y-70953619D01*
X204365785Y-71727428D02*
X204306261Y-71786952D01*
X204365785Y-71846476D01*
X204425309Y-71786952D01*
X204365785Y-71727428D01*
X204365785Y-71846476D01*
X203532452Y-70596476D02*
X203413404Y-70596476D01*
X203294357Y-70656000D01*
X203234833Y-70715523D01*
X203175309Y-70834571D01*
X203115785Y-71072666D01*
X203115785Y-71370285D01*
X203175309Y-71608380D01*
X203234833Y-71727428D01*
X203294357Y-71786952D01*
X203413404Y-71846476D01*
X203532452Y-71846476D01*
X203651500Y-71786952D01*
X203711023Y-71727428D01*
X203770547Y-71608380D01*
X203830071Y-71370285D01*
X203830071Y-71072666D01*
X203770547Y-70834571D01*
X203711023Y-70715523D01*
X203651500Y-70656000D01*
X203532452Y-70596476D01*
X225318166Y-73138142D02*
X225318166Y-74150047D01*
X225377690Y-74269095D01*
X225437214Y-74328619D01*
X225556261Y-74388142D01*
X225734833Y-74388142D01*
X225853880Y-74328619D01*
X225318166Y-73911952D02*
X225437214Y-73971476D01*
X225675309Y-73971476D01*
X225794357Y-73911952D01*
X225853880Y-73852428D01*
X225913404Y-73733380D01*
X225913404Y-73376238D01*
X225853880Y-73257190D01*
X225794357Y-73197666D01*
X225675309Y-73138142D01*
X225437214Y-73138142D01*
X225318166Y-73197666D01*
X224722928Y-73971476D02*
X224722928Y-73138142D01*
X224722928Y-72721476D02*
X224782452Y-72781000D01*
X224722928Y-72840523D01*
X224663404Y-72781000D01*
X224722928Y-72721476D01*
X224722928Y-72840523D01*
X224306261Y-73138142D02*
X223830071Y-73138142D01*
X224127690Y-72721476D02*
X224127690Y-73792904D01*
X224068166Y-73911952D01*
X223949119Y-73971476D01*
X223830071Y-73971476D01*
X223413404Y-73971476D02*
X223413404Y-72721476D01*
X222877690Y-73971476D02*
X222877690Y-73316714D01*
X222937214Y-73197666D01*
X223056261Y-73138142D01*
X223234833Y-73138142D01*
X223353880Y-73197666D01*
X223413404Y-73257190D01*
X221746738Y-73138142D02*
X221746738Y-73971476D01*
X222282452Y-73138142D02*
X222282452Y-73792904D01*
X222222928Y-73911952D01*
X222103880Y-73971476D01*
X221925309Y-73971476D01*
X221806261Y-73911952D01*
X221746738Y-73852428D01*
X221151500Y-73971476D02*
X221151500Y-72721476D01*
X221151500Y-73197666D02*
X221032452Y-73138142D01*
X220794357Y-73138142D01*
X220675309Y-73197666D01*
X220615785Y-73257190D01*
X220556261Y-73376238D01*
X220556261Y-73733380D01*
X220615785Y-73852428D01*
X220675309Y-73911952D01*
X220794357Y-73971476D01*
X221032452Y-73971476D01*
X221151500Y-73911952D01*
X220020547Y-73852428D02*
X219961023Y-73911952D01*
X220020547Y-73971476D01*
X220080071Y-73911952D01*
X220020547Y-73852428D01*
X220020547Y-73971476D01*
X218889595Y-73911952D02*
X219008642Y-73971476D01*
X219246738Y-73971476D01*
X219365785Y-73911952D01*
X219425309Y-73852428D01*
X219484833Y-73733380D01*
X219484833Y-73376238D01*
X219425309Y-73257190D01*
X219365785Y-73197666D01*
X219246738Y-73138142D01*
X219008642Y-73138142D01*
X218889595Y-73197666D01*
X218175309Y-73971476D02*
X218294357Y-73911952D01*
X218353880Y-73852428D01*
X218413404Y-73733380D01*
X218413404Y-73376238D01*
X218353880Y-73257190D01*
X218294357Y-73197666D01*
X218175309Y-73138142D01*
X217996738Y-73138142D01*
X217877690Y-73197666D01*
X217818166Y-73257190D01*
X217758642Y-73376238D01*
X217758642Y-73733380D01*
X217818166Y-73852428D01*
X217877690Y-73911952D01*
X217996738Y-73971476D01*
X218175309Y-73971476D01*
X217222928Y-73971476D02*
X217222928Y-73138142D01*
X217222928Y-73257190D02*
X217163404Y-73197666D01*
X217044357Y-73138142D01*
X216865785Y-73138142D01*
X216746738Y-73197666D01*
X216687214Y-73316714D01*
X216687214Y-73971476D01*
X216687214Y-73316714D02*
X216627690Y-73197666D01*
X216508642Y-73138142D01*
X216330071Y-73138142D01*
X216211023Y-73197666D01*
X216151500Y-73316714D01*
X216151500Y-73971476D01*
X214663404Y-72661952D02*
X215734833Y-74269095D01*
X214425309Y-73138142D02*
X213949119Y-73138142D01*
X214246738Y-72721476D02*
X214246738Y-73792904D01*
X214187214Y-73911952D01*
X214068166Y-73971476D01*
X213949119Y-73971476D01*
X213353880Y-73971476D02*
X213472928Y-73911952D01*
X213532452Y-73852428D01*
X213591976Y-73733380D01*
X213591976Y-73376238D01*
X213532452Y-73257190D01*
X213472928Y-73197666D01*
X213353880Y-73138142D01*
X213175309Y-73138142D01*
X213056261Y-73197666D01*
X212996738Y-73257190D01*
X212937214Y-73376238D01*
X212937214Y-73733380D01*
X212996738Y-73852428D01*
X213056261Y-73911952D01*
X213175309Y-73971476D01*
X213353880Y-73971476D01*
X212401500Y-73971476D02*
X212401500Y-73138142D01*
X212401500Y-73257190D02*
X212341976Y-73197666D01*
X212222928Y-73138142D01*
X212044357Y-73138142D01*
X211925309Y-73197666D01*
X211865785Y-73316714D01*
X211865785Y-73971476D01*
X211865785Y-73316714D02*
X211806261Y-73197666D01*
X211687214Y-73138142D01*
X211508642Y-73138142D01*
X211389595Y-73197666D01*
X211330071Y-73316714D01*
X211330071Y-73971476D01*
X210199119Y-73971476D02*
X210199119Y-73316714D01*
X210258642Y-73197666D01*
X210377690Y-73138142D01*
X210615785Y-73138142D01*
X210734833Y-73197666D01*
X210199119Y-73911952D02*
X210318166Y-73971476D01*
X210615785Y-73971476D01*
X210734833Y-73911952D01*
X210794357Y-73792904D01*
X210794357Y-73673857D01*
X210734833Y-73554809D01*
X210615785Y-73495285D01*
X210318166Y-73495285D01*
X210199119Y-73435761D01*
X209603880Y-73971476D02*
X209603880Y-73138142D01*
X209603880Y-73376238D02*
X209544357Y-73257190D01*
X209484833Y-73197666D01*
X209365785Y-73138142D01*
X209246738Y-73138142D01*
X208294357Y-73138142D02*
X208294357Y-73971476D01*
X208830071Y-73138142D02*
X208830071Y-73792904D01*
X208770547Y-73911952D01*
X208651500Y-73971476D01*
X208472928Y-73971476D01*
X208353880Y-73911952D01*
X208294357Y-73852428D01*
X207758642Y-73911952D02*
X207639595Y-73971476D01*
X207401500Y-73971476D01*
X207282452Y-73911952D01*
X207222928Y-73792904D01*
X207222928Y-73733380D01*
X207282452Y-73614333D01*
X207401500Y-73554809D01*
X207580071Y-73554809D01*
X207699119Y-73495285D01*
X207758642Y-73376238D01*
X207758642Y-73316714D01*
X207699119Y-73197666D01*
X207580071Y-73138142D01*
X207401500Y-73138142D01*
X207282452Y-73197666D01*
X205794357Y-72661952D02*
X206865785Y-74269095D01*
X204841976Y-73971476D02*
X204841976Y-72721476D01*
X204841976Y-73911952D02*
X204961023Y-73971476D01*
X205199119Y-73971476D01*
X205318166Y-73911952D01*
X205377690Y-73852428D01*
X205437214Y-73733380D01*
X205437214Y-73376238D01*
X205377690Y-73257190D01*
X205318166Y-73197666D01*
X205199119Y-73138142D01*
X204961023Y-73138142D01*
X204841976Y-73197666D01*
X204246738Y-73971476D02*
X204246738Y-73138142D01*
X204246738Y-72721476D02*
X204306261Y-72781000D01*
X204246738Y-72840523D01*
X204187214Y-72781000D01*
X204246738Y-72721476D01*
X204246738Y-72840523D01*
X203770547Y-73138142D02*
X203472928Y-73971476D01*
X203175309Y-73138142D02*
X203472928Y-73971476D01*
X203591976Y-74269095D01*
X203651500Y-74328619D01*
X203770547Y-74388142D01*
X202699119Y-73971476D02*
X202699119Y-73138142D01*
X202699119Y-73257190D02*
X202639595Y-73197666D01*
X202520547Y-73138142D01*
X202341976Y-73138142D01*
X202222928Y-73197666D01*
X202163404Y-73316714D01*
X202163404Y-73971476D01*
X202163404Y-73316714D02*
X202103880Y-73197666D01*
X201984833Y-73138142D01*
X201806261Y-73138142D01*
X201687214Y-73197666D01*
X201627690Y-73316714D01*
X201627690Y-73971476D01*
X200556261Y-73911952D02*
X200675309Y-73971476D01*
X200913404Y-73971476D01*
X201032452Y-73911952D01*
X201091976Y-73792904D01*
X201091976Y-73316714D01*
X201032452Y-73197666D01*
X200913404Y-73138142D01*
X200675309Y-73138142D01*
X200556261Y-73197666D01*
X200496738Y-73316714D01*
X200496738Y-73435761D01*
X201091976Y-73554809D01*
X200139595Y-73138142D02*
X199663404Y-73138142D01*
X199961023Y-72721476D02*
X199961023Y-73792904D01*
X199901500Y-73911952D01*
X199782452Y-73971476D01*
X199663404Y-73971476D01*
X199246738Y-73971476D02*
X199246738Y-73138142D01*
X199246738Y-73376238D02*
X199187214Y-73257190D01*
X199127690Y-73197666D01*
X199008642Y-73138142D01*
X198889595Y-73138142D01*
X198294357Y-73971476D02*
X198413404Y-73911952D01*
X198472928Y-73852428D01*
X198532452Y-73733380D01*
X198532452Y-73376238D01*
X198472928Y-73257190D01*
X198413404Y-73197666D01*
X198294357Y-73138142D01*
X198115785Y-73138142D01*
X197996738Y-73197666D01*
X197937214Y-73257190D01*
X197877690Y-73376238D01*
X197877690Y-73733380D01*
X197937214Y-73852428D01*
X197996738Y-73911952D01*
X198115785Y-73971476D01*
X198294357Y-73971476D01*
X225853880Y-76096476D02*
X225853880Y-74846476D01*
X225258642Y-75263142D02*
X225258642Y-76096476D01*
X225258642Y-75382190D02*
X225199119Y-75322666D01*
X225080071Y-75263142D01*
X224901500Y-75263142D01*
X224782452Y-75322666D01*
X224722928Y-75441714D01*
X224722928Y-76096476D01*
X224187214Y-76036952D02*
X224068166Y-76096476D01*
X223830071Y-76096476D01*
X223711023Y-76036952D01*
X223651500Y-75917904D01*
X223651500Y-75858380D01*
X223711023Y-75739333D01*
X223830071Y-75679809D01*
X224008642Y-75679809D01*
X224127690Y-75620285D01*
X224187214Y-75501238D01*
X224187214Y-75441714D01*
X224127690Y-75322666D01*
X224008642Y-75263142D01*
X223830071Y-75263142D01*
X223711023Y-75322666D01*
X223115785Y-75263142D02*
X223115785Y-76513142D01*
X223115785Y-75322666D02*
X222996738Y-75263142D01*
X222758642Y-75263142D01*
X222639595Y-75322666D01*
X222580071Y-75382190D01*
X222520547Y-75501238D01*
X222520547Y-75858380D01*
X222580071Y-75977428D01*
X222639595Y-76036952D01*
X222758642Y-76096476D01*
X222996738Y-76096476D01*
X223115785Y-76036952D01*
X221984833Y-76096476D02*
X221984833Y-75263142D01*
X221984833Y-74846476D02*
X222044357Y-74906000D01*
X221984833Y-74965523D01*
X221925309Y-74906000D01*
X221984833Y-74846476D01*
X221984833Y-74965523D01*
X221389595Y-76096476D02*
X221389595Y-75263142D01*
X221389595Y-75501238D02*
X221330071Y-75382190D01*
X221270547Y-75322666D01*
X221151500Y-75263142D01*
X221032452Y-75263142D01*
X220139595Y-76036952D02*
X220258642Y-76096476D01*
X220496738Y-76096476D01*
X220615785Y-76036952D01*
X220675309Y-75917904D01*
X220675309Y-75441714D01*
X220615785Y-75322666D01*
X220496738Y-75263142D01*
X220258642Y-75263142D01*
X220139595Y-75322666D01*
X220080071Y-75441714D01*
X220080071Y-75560761D01*
X220675309Y-75679809D01*
X219008642Y-76096476D02*
X219008642Y-74846476D01*
X219008642Y-76036952D02*
X219127690Y-76096476D01*
X219365785Y-76096476D01*
X219484833Y-76036952D01*
X219544357Y-75977428D01*
X219603880Y-75858380D01*
X219603880Y-75501238D01*
X219544357Y-75382190D01*
X219484833Y-75322666D01*
X219365785Y-75263142D01*
X219127690Y-75263142D01*
X219008642Y-75322666D01*
X217461023Y-76096476D02*
X217461023Y-74846476D01*
X217461023Y-75322666D02*
X217341976Y-75263142D01*
X217103880Y-75263142D01*
X216984833Y-75322666D01*
X216925309Y-75382190D01*
X216865785Y-75501238D01*
X216865785Y-75858380D01*
X216925309Y-75977428D01*
X216984833Y-76036952D01*
X217103880Y-76096476D01*
X217341976Y-76096476D01*
X217461023Y-76036952D01*
X216449119Y-75263142D02*
X216151500Y-76096476D01*
X215853880Y-75263142D02*
X216151500Y-76096476D01*
X216270547Y-76394095D01*
X216330071Y-76453619D01*
X216449119Y-76513142D01*
X213711023Y-76096476D02*
X214127690Y-75501238D01*
X214425309Y-76096476D02*
X214425309Y-74846476D01*
X213949119Y-74846476D01*
X213830071Y-74906000D01*
X213770547Y-74965523D01*
X213711023Y-75084571D01*
X213711023Y-75263142D01*
X213770547Y-75382190D01*
X213830071Y-75441714D01*
X213949119Y-75501238D01*
X214425309Y-75501238D01*
X213294357Y-75263142D02*
X212996738Y-76096476D01*
X212699119Y-75263142D02*
X212996738Y-76096476D01*
X213115785Y-76394095D01*
X213175309Y-76453619D01*
X213294357Y-76513142D01*
X212222928Y-76096476D02*
X212222928Y-74846476D01*
X212103880Y-75620285D02*
X211746738Y-76096476D01*
X211746738Y-75263142D02*
X212222928Y-75739333D01*
X209246738Y-76096476D02*
X209306261Y-76096476D01*
X209425309Y-76036952D01*
X209603880Y-75858380D01*
X209901500Y-75501238D01*
X210020547Y-75322666D01*
X210080071Y-75144095D01*
X210080071Y-75025047D01*
X210020547Y-74906000D01*
X209901500Y-74846476D01*
X209841976Y-74846476D01*
X209722928Y-74906000D01*
X209663404Y-75025047D01*
X209663404Y-75084571D01*
X209722928Y-75203619D01*
X209782452Y-75263142D01*
X210139595Y-75501238D01*
X210199119Y-75560761D01*
X210258642Y-75679809D01*
X210258642Y-75858380D01*
X210199119Y-75977428D01*
X210139595Y-76036952D01*
X210020547Y-76096476D01*
X209841976Y-76096476D01*
X209722928Y-76036952D01*
X209663404Y-75977428D01*
X209484833Y-75739333D01*
X209425309Y-75560761D01*
X209425309Y-75441714D01*
X207758642Y-76096476D02*
X207758642Y-74846476D01*
X207163404Y-75263142D02*
X207163404Y-76096476D01*
X207163404Y-75382190D02*
X207103880Y-75322666D01*
X206984833Y-75263142D01*
X206806261Y-75263142D01*
X206687214Y-75322666D01*
X206627690Y-75441714D01*
X206627690Y-76096476D01*
X206211023Y-75263142D02*
X205734833Y-75263142D01*
X206032452Y-74846476D02*
X206032452Y-75917904D01*
X205972928Y-76036952D01*
X205853880Y-76096476D01*
X205734833Y-76096476D01*
X204841976Y-76036952D02*
X204961023Y-76096476D01*
X205199119Y-76096476D01*
X205318166Y-76036952D01*
X205377690Y-75917904D01*
X205377690Y-75441714D01*
X205318166Y-75322666D01*
X205199119Y-75263142D01*
X204961023Y-75263142D01*
X204841976Y-75322666D01*
X204782452Y-75441714D01*
X204782452Y-75560761D01*
X205377690Y-75679809D01*
X204068166Y-76096476D02*
X204187214Y-76036952D01*
X204246738Y-75917904D01*
X204246738Y-74846476D01*
X203413404Y-76096476D02*
X203532452Y-76036952D01*
X203591976Y-75917904D01*
X203591976Y-74846476D01*
X202937214Y-76096476D02*
X202937214Y-75263142D01*
X202937214Y-74846476D02*
X202996738Y-74906000D01*
X202937214Y-74965523D01*
X202877690Y-74906000D01*
X202937214Y-74846476D01*
X202937214Y-74965523D01*
X202341976Y-75263142D02*
X202341976Y-76334571D01*
X202401500Y-76453619D01*
X202520547Y-76513142D01*
X202580071Y-76513142D01*
X202341976Y-74846476D02*
X202401500Y-74906000D01*
X202341976Y-74965523D01*
X202282452Y-74906000D01*
X202341976Y-74846476D01*
X202341976Y-74965523D01*
X201270547Y-76036952D02*
X201389595Y-76096476D01*
X201627690Y-76096476D01*
X201746738Y-76036952D01*
X201806261Y-75917904D01*
X201806261Y-75441714D01*
X201746738Y-75322666D01*
X201627690Y-75263142D01*
X201389595Y-75263142D01*
X201270547Y-75322666D01*
X201211023Y-75441714D01*
X201211023Y-75560761D01*
X201806261Y-75679809D01*
X200496738Y-76096476D02*
X200615785Y-76036952D01*
X200675309Y-75917904D01*
X200675309Y-74846476D01*
D13*
X87360571Y-125785619D02*
X87027238Y-126261809D01*
X86789142Y-125785619D02*
X86789142Y-126785619D01*
X87170095Y-126785619D01*
X87265333Y-126738000D01*
X87312952Y-126690380D01*
X87360571Y-126595142D01*
X87360571Y-126452285D01*
X87312952Y-126357047D01*
X87265333Y-126309428D01*
X87170095Y-126261809D01*
X86789142Y-126261809D01*
X87789142Y-126309428D02*
X88122476Y-126309428D01*
X88265333Y-125785619D02*
X87789142Y-125785619D01*
X87789142Y-126785619D01*
X88265333Y-126785619D01*
X88693904Y-125785619D02*
X88693904Y-126785619D01*
X88932000Y-126785619D01*
X89074857Y-126738000D01*
X89170095Y-126642761D01*
X89217714Y-126547523D01*
X89265333Y-126357047D01*
X89265333Y-126214190D01*
X89217714Y-126023714D01*
X89170095Y-125928476D01*
X89074857Y-125833238D01*
X88932000Y-125785619D01*
X88693904Y-125785619D01*
X90408190Y-125833238D02*
X90551047Y-125785619D01*
X90789142Y-125785619D01*
X90884380Y-125833238D01*
X90932000Y-125880857D01*
X90979619Y-125976095D01*
X90979619Y-126071333D01*
X90932000Y-126166571D01*
X90884380Y-126214190D01*
X90789142Y-126261809D01*
X90598666Y-126309428D01*
X90503428Y-126357047D01*
X90455809Y-126404666D01*
X90408190Y-126499904D01*
X90408190Y-126595142D01*
X90455809Y-126690380D01*
X90503428Y-126738000D01*
X90598666Y-126785619D01*
X90836761Y-126785619D01*
X90979619Y-126738000D01*
X91265333Y-126785619D02*
X91836761Y-126785619D01*
X91551047Y-125785619D02*
X91551047Y-126785619D01*
X92741523Y-125785619D02*
X92408190Y-126261809D01*
X92170095Y-125785619D02*
X92170095Y-126785619D01*
X92551047Y-126785619D01*
X92646285Y-126738000D01*
X92693904Y-126690380D01*
X92741523Y-126595142D01*
X92741523Y-126452285D01*
X92693904Y-126357047D01*
X92646285Y-126309428D01*
X92551047Y-126261809D01*
X92170095Y-126261809D01*
X93170095Y-125785619D02*
X93170095Y-126785619D01*
X93646285Y-125785619D02*
X93646285Y-126785619D01*
X94027238Y-126785619D01*
X94122476Y-126738000D01*
X94170095Y-126690380D01*
X94217714Y-126595142D01*
X94217714Y-126452285D01*
X94170095Y-126357047D01*
X94122476Y-126309428D01*
X94027238Y-126261809D01*
X93646285Y-126261809D01*
X94646285Y-126309428D02*
X94979619Y-126309428D01*
X95122476Y-125785619D02*
X94646285Y-125785619D01*
X94646285Y-126785619D01*
X95122476Y-126785619D01*
X213812380Y-126055714D02*
X213336190Y-125722380D01*
X213812380Y-125484285D02*
X212812380Y-125484285D01*
X212812380Y-125865238D01*
X212860000Y-125960476D01*
X212907619Y-126008095D01*
X213002857Y-126055714D01*
X213145714Y-126055714D01*
X213240952Y-126008095D01*
X213288571Y-125960476D01*
X213336190Y-125865238D01*
X213336190Y-125484285D01*
X212812380Y-126389047D02*
X212812380Y-127008095D01*
X213193333Y-126674761D01*
X213193333Y-126817619D01*
X213240952Y-126912857D01*
X213288571Y-126960476D01*
X213383809Y-127008095D01*
X213621904Y-127008095D01*
X213717142Y-126960476D01*
X213764761Y-126912857D01*
X213812380Y-126817619D01*
X213812380Y-126531904D01*
X213764761Y-126436666D01*
X213717142Y-126389047D01*
X212907619Y-127389047D02*
X212860000Y-127436666D01*
X212812380Y-127531904D01*
X212812380Y-127770000D01*
X212860000Y-127865238D01*
X212907619Y-127912857D01*
X213002857Y-127960476D01*
X213098095Y-127960476D01*
X213240952Y-127912857D01*
X213812380Y-127341428D01*
X213812380Y-127960476D01*
X213431428Y-128389047D02*
X213431428Y-129150952D01*
X213145714Y-130055714D02*
X213812380Y-130055714D01*
X212764761Y-129817619D02*
X213479047Y-129579523D01*
X213479047Y-130198571D01*
X213145714Y-131008095D02*
X213812380Y-131008095D01*
X212764761Y-130770000D02*
X213479047Y-130531904D01*
X213479047Y-131150952D01*
D14*
G04 #@! TO.C,U1*
X145476000Y-107074000D02*
X145876000Y-107074000D01*
X145876000Y-107074000D02*
X145876000Y-105674000D01*
X145476000Y-107074000D02*
X145476000Y-111874000D01*
X156276000Y-107074000D02*
X156276000Y-111874000D01*
G04 #@! TO.C,R1*
X88268564Y-129942000D02*
X87064436Y-129942000D01*
X88268564Y-128122000D02*
X87064436Y-128122000D01*
G04 #@! TO.C,R2*
X92579436Y-128122000D02*
X93783564Y-128122000D01*
X92579436Y-129942000D02*
X93783564Y-129942000D01*
G04 #@! TO.C,R3*
X151490000Y-129380064D02*
X151490000Y-128175936D01*
X153310000Y-129380064D02*
X153310000Y-128175936D01*
G04 #@! TO.C,R4*
X156104000Y-128175936D02*
X156104000Y-129380064D01*
X154284000Y-128175936D02*
X154284000Y-129380064D01*
G04 #@! TO.C,R5*
X148442000Y-129380064D02*
X148442000Y-128175936D01*
X150262000Y-129380064D02*
X150262000Y-128175936D01*
G04 #@! TO.C,R6*
X145648000Y-129416564D02*
X145648000Y-128212436D01*
X147468000Y-129416564D02*
X147468000Y-128212436D01*
G04 #@! TO.C,R7*
X145648000Y-123538064D02*
X145648000Y-122333936D01*
X147468000Y-123538064D02*
X147468000Y-122333936D01*
G04 #@! TO.C,R8*
X76052000Y-101694064D02*
X76052000Y-100489936D01*
X77872000Y-101694064D02*
X77872000Y-100489936D01*
G04 #@! TO.C,R9*
X76052000Y-107790064D02*
X76052000Y-106585936D01*
X77872000Y-107790064D02*
X77872000Y-106585936D01*
G04 #@! TO.C,R10*
X103738000Y-101694064D02*
X103738000Y-100489936D01*
X105558000Y-101694064D02*
X105558000Y-100489936D01*
G04 #@! TO.C,R11*
X103738000Y-107790064D02*
X103738000Y-106585936D01*
X105558000Y-107790064D02*
X105558000Y-106585936D01*
G04 #@! TO.C,R12*
X123550000Y-101694064D02*
X123550000Y-100489936D01*
X125370000Y-101694064D02*
X125370000Y-100489936D01*
G04 #@! TO.C,R13*
X123550000Y-107790064D02*
X123550000Y-106585936D01*
X125370000Y-107790064D02*
X125370000Y-106585936D01*
G04 #@! TO.C,R14*
X135996000Y-101694064D02*
X135996000Y-100489936D01*
X137816000Y-101694064D02*
X137816000Y-100489936D01*
G04 #@! TO.C,R15*
X135996000Y-107790064D02*
X135996000Y-106585936D01*
X137816000Y-107790064D02*
X137816000Y-106585936D01*
G04 #@! TO.C,R16*
X163682000Y-101694064D02*
X163682000Y-100489936D01*
X165502000Y-101694064D02*
X165502000Y-100489936D01*
G04 #@! TO.C,R17*
X163682000Y-107790064D02*
X163682000Y-106585936D01*
X165502000Y-107790064D02*
X165502000Y-106585936D01*
G04 #@! TO.C,R18*
X175874000Y-101694064D02*
X175874000Y-100489936D01*
X177694000Y-101694064D02*
X177694000Y-100489936D01*
G04 #@! TO.C,R19*
X175874000Y-107790064D02*
X175874000Y-106585936D01*
X177694000Y-107790064D02*
X177694000Y-106585936D01*
G04 #@! TO.C,R20*
X203560000Y-101694064D02*
X203560000Y-100489936D01*
X205380000Y-101694064D02*
X205380000Y-100489936D01*
G04 #@! TO.C,R21*
X203560000Y-107790064D02*
X203560000Y-106585936D01*
X205380000Y-107790064D02*
X205380000Y-106585936D01*
G04 #@! TO.C,R22*
X216006000Y-101694064D02*
X216006000Y-100489936D01*
X217826000Y-101694064D02*
X217826000Y-100489936D01*
G04 #@! TO.C,R23*
X216006000Y-107790064D02*
X216006000Y-106585936D01*
X217826000Y-107790064D02*
X217826000Y-106585936D01*
G04 #@! TO.C,R24*
X80387436Y-44302000D02*
X81591564Y-44302000D01*
X80387436Y-46122000D02*
X81591564Y-46122000D01*
G04 #@! TO.C,R25*
X100235936Y-44302000D02*
X101440064Y-44302000D01*
X100235936Y-46122000D02*
X101440064Y-46122000D01*
G04 #@! TO.C,R26*
X120301936Y-44302000D02*
X121506064Y-44302000D01*
X120301936Y-46122000D02*
X121506064Y-46122000D01*
G04 #@! TO.C,R27*
X140331436Y-44302000D02*
X141535564Y-44302000D01*
X140331436Y-46122000D02*
X141535564Y-46122000D01*
G04 #@! TO.C,R28*
X160216436Y-44302000D02*
X161420564Y-44302000D01*
X160216436Y-46122000D02*
X161420564Y-46122000D01*
G04 #@! TO.C,R29*
X180282436Y-44302000D02*
X181486564Y-44302000D01*
X180282436Y-46122000D02*
X181486564Y-46122000D01*
G04 #@! TO.C,R30*
X200311936Y-44302000D02*
X201516064Y-44302000D01*
X200311936Y-46122000D02*
X201516064Y-46122000D01*
G04 #@! TO.C,R31*
X220341436Y-44302000D02*
X221545564Y-44302000D01*
X220341436Y-46122000D02*
X221545564Y-46122000D01*
G04 #@! TO.C,R32*
X214270000Y-121317936D02*
X214270000Y-122522064D01*
X212450000Y-121317936D02*
X212450000Y-122522064D01*
G04 #@! TO.C,R33*
X218407064Y-120925000D02*
X217202936Y-120925000D01*
X218407064Y-119105000D02*
X217202936Y-119105000D01*
G04 #@! TO.C,R34*
X218407064Y-118385000D02*
X217202936Y-118385000D01*
X218407064Y-116565000D02*
X217202936Y-116565000D01*
G04 #@! TO.C,R35*
X224757064Y-120925000D02*
X223552936Y-120925000D01*
X224757064Y-119105000D02*
X223552936Y-119105000D01*
G04 #@! TO.C,R36*
X224757064Y-123465000D02*
X223552936Y-123465000D01*
X224757064Y-121645000D02*
X223552936Y-121645000D01*
G04 #@! TO.C,R37*
X224757064Y-126005000D02*
X223552936Y-126005000D01*
X224757064Y-124185000D02*
X223552936Y-124185000D01*
G04 #@! TO.C,R38*
X223552936Y-126725000D02*
X224757064Y-126725000D01*
X223552936Y-128545000D02*
X224757064Y-128545000D01*
G04 #@! TO.C,R39*
X223552936Y-129265000D02*
X224757064Y-129265000D01*
X223552936Y-131085000D02*
X224757064Y-131085000D01*
G04 #@! TO.C,R40*
X223552936Y-131805000D02*
X224757064Y-131805000D01*
X223552936Y-133625000D02*
X224757064Y-133625000D01*
G04 #@! TO.C,R41*
X217202936Y-131805000D02*
X218407064Y-131805000D01*
X217202936Y-133625000D02*
X218407064Y-133625000D01*
G04 #@! TO.C,R42*
X217202936Y-129265000D02*
X218407064Y-129265000D01*
X217202936Y-131085000D02*
X218407064Y-131085000D01*
G04 #@! TO.C,R43*
X217202936Y-126725000D02*
X218407064Y-126725000D01*
X217202936Y-128545000D02*
X218407064Y-128545000D01*
G04 #@! TO.C,R44*
X217202936Y-124185000D02*
X218407064Y-124185000D01*
X217202936Y-126005000D02*
X218407064Y-126005000D01*
G04 #@! TO.C,R45*
X164751936Y-114914000D02*
X165956064Y-114914000D01*
X164751936Y-116734000D02*
X165956064Y-116734000D01*
G04 #@! TO.C,Y1*
X176478000Y-95997000D02*
G75*
G02X176478000Y-90947000I0J2525000D01*
G01*
X182878000Y-95997000D02*
G75*
G03X182878000Y-90947000I0J2525000D01*
G01*
X182878000Y-95997000D02*
X176478000Y-95997000D01*
X182878000Y-90947000D02*
X176478000Y-90947000D01*
G04 #@! TO.C,C1*
X141253936Y-111866000D02*
X142458064Y-111866000D01*
X141253936Y-113686000D02*
X142458064Y-113686000D01*
G04 #@! TO.C,C2*
X141259936Y-47604000D02*
X142464064Y-47604000D01*
X141259936Y-49424000D02*
X142464064Y-49424000D01*
G04 #@! TO.C,C3*
X141129936Y-70972000D02*
X142334064Y-70972000D01*
X141129936Y-72792000D02*
X142334064Y-72792000D01*
G04 #@! TO.C,C4*
X141637936Y-92308000D02*
X142842064Y-92308000D01*
X141637936Y-94128000D02*
X142842064Y-94128000D01*
G04 #@! TO.C,D1*
X85345000Y-130437000D02*
X89230000Y-130437000D01*
X85345000Y-132707000D02*
X85345000Y-130437000D01*
X89230000Y-132707000D02*
X85345000Y-132707000D01*
G04 #@! TO.C,D2*
X91618000Y-130437000D02*
X95503000Y-130437000D01*
X95503000Y-130437000D02*
X95503000Y-132707000D01*
X95503000Y-132707000D02*
X91618000Y-132707000D01*
G04 #@! TO.C,D3*
X192023000Y-124071000D02*
X188138000Y-124071000D01*
X192023000Y-121801000D02*
X192023000Y-124071000D01*
X188138000Y-121801000D02*
X192023000Y-121801000D01*
G04 #@! TO.C,D12*
X158290000Y-70747000D02*
X162175000Y-70747000D01*
X162175000Y-70747000D02*
X162175000Y-73017000D01*
X162175000Y-73017000D02*
X158290000Y-73017000D01*
G04 #@! TO.C,D13*
X148217000Y-83896000D02*
X148217000Y-80011000D01*
X148217000Y-80011000D02*
X150487000Y-80011000D01*
X150487000Y-80011000D02*
X150487000Y-83896000D01*
G04 #@! TO.C,J5*
X95607000Y-127143000D02*
X95607000Y-98663000D01*
X95607000Y-98663000D02*
X86257000Y-98663000D01*
X86257000Y-98663000D02*
X86257000Y-127143000D01*
X86257000Y-127143000D02*
X95607000Y-127143000D01*
X86007000Y-127393000D02*
X86007000Y-124853000D01*
X86007000Y-127393000D02*
X88547000Y-127393000D01*
G04 #@! TO.C,U2*
X145476000Y-42812000D02*
X145876000Y-42812000D01*
X145876000Y-42812000D02*
X145876000Y-41412000D01*
X145476000Y-42812000D02*
X145476000Y-47612000D01*
X156276000Y-42812000D02*
X156276000Y-47612000D01*
G04 #@! TO.C,U3*
X156276000Y-66180000D02*
X156276000Y-70980000D01*
X145476000Y-66180000D02*
X145476000Y-70980000D01*
X145876000Y-66180000D02*
X145876000Y-64780000D01*
X145476000Y-66180000D02*
X145876000Y-66180000D01*
G04 #@! TO.C,U4*
X156276000Y-87516000D02*
X156276000Y-92316000D01*
X145476000Y-87516000D02*
X145476000Y-92316000D01*
X145876000Y-87516000D02*
X145876000Y-86116000D01*
X145476000Y-87516000D02*
X145876000Y-87516000D01*
G04 #@! TO.C,C5*
X171810000Y-90075936D02*
X171810000Y-91280064D01*
X173630000Y-90075936D02*
X173630000Y-91280064D01*
G04 #@! TO.C,C6*
X171810000Y-97122064D02*
X171810000Y-95917936D01*
X173630000Y-97122064D02*
X173630000Y-95917936D01*
G04 #@! TO.C,J7*
X206950000Y-96072000D02*
X206950000Y-90872000D01*
X212090000Y-96072000D02*
X206950000Y-96072000D01*
X214690000Y-90872000D02*
X206950000Y-90872000D01*
X212090000Y-96072000D02*
X212090000Y-93472000D01*
X212090000Y-93472000D02*
X214690000Y-93472000D01*
X214690000Y-93472000D02*
X214690000Y-90872000D01*
X213360000Y-96072000D02*
X214690000Y-96072000D01*
X214690000Y-96072000D02*
X214690000Y-94742000D01*
G04 #@! TO.C,SW10*
X172482000Y-123864000D02*
X167982000Y-123864000D01*
X173732000Y-119864000D02*
X173732000Y-121364000D01*
X167982000Y-117364000D02*
X172482000Y-117364000D01*
X166732000Y-121364000D02*
X166732000Y-119864000D01*
G04 #@! TO.C,U5*
X191855600Y-120125800D02*
G75*
G03X189855600Y-120125800I-1000000J0D01*
G01*
X189855600Y-120125800D02*
X188205600Y-120125800D01*
X188205600Y-120125800D02*
X188205600Y-84445800D01*
X188205600Y-84445800D02*
X193505600Y-84445800D01*
X193505600Y-84445800D02*
X193505600Y-120125800D01*
X193505600Y-120125800D02*
X191855600Y-120125800D01*
G04 #@! TO.C,Q1*
X155192000Y-121610000D02*
X155192000Y-122540000D01*
X155192000Y-124770000D02*
X155192000Y-123840000D01*
X155192000Y-124770000D02*
X153032000Y-124770000D01*
X155192000Y-121610000D02*
X153732000Y-121610000D01*
G04 #@! TO.C,Q2*
X151382000Y-121610000D02*
X149922000Y-121610000D01*
X151382000Y-124770000D02*
X149222000Y-124770000D01*
X151382000Y-124770000D02*
X151382000Y-123840000D01*
X151382000Y-121610000D02*
X151382000Y-122540000D01*
G04 #@! TO.C,D14*
X212746335Y-82866608D02*
G75*
G02X209514000Y-83023516I-1672335J1078608D01*
G01*
X212746335Y-80709392D02*
G75*
G03X209514000Y-80552484I-1672335J-1078608D01*
G01*
X212115130Y-82867837D02*
G75*
G02X210033039Y-82868000I-1041130J1079837D01*
G01*
X212115130Y-80708163D02*
G75*
G03X210033039Y-80708000I-1041130J-1079837D01*
G01*
X209514000Y-83024000D02*
X209514000Y-82868000D01*
X209514000Y-80708000D02*
X209514000Y-80552000D01*
G04 #@! TO.C,R46*
X210344936Y-86508000D02*
X211549064Y-86508000D01*
X210344936Y-84688000D02*
X211549064Y-84688000D01*
G04 #@! TO.C,J8*
X185480000Y-117662000D02*
X182820000Y-117662000D01*
X185480000Y-115062000D02*
X185480000Y-117662000D01*
X182820000Y-115062000D02*
X182820000Y-117662000D01*
X185480000Y-115062000D02*
X182820000Y-115062000D01*
X185480000Y-113792000D02*
X185480000Y-112462000D01*
X185480000Y-112462000D02*
X184150000Y-112462000D01*
G04 #@! TO.C,C7*
X198268000Y-97884064D02*
X198268000Y-96679936D01*
X196448000Y-97884064D02*
X196448000Y-96679936D01*
G04 #@! TO.C,C8*
X185314000Y-101759936D02*
X185314000Y-102964064D01*
X183494000Y-101759936D02*
X183494000Y-102964064D01*
D13*
G04 #@! TO.C,C9*
X96774000Y-113030000D02*
X104902000Y-113030000D01*
X104902000Y-113030000D02*
X104902000Y-115570000D01*
X104902000Y-115570000D02*
X96774000Y-115570000D01*
X96774000Y-115570000D02*
X96774000Y-113030000D01*
X102108000Y-115570000D02*
X102108000Y-113030000D01*
G04 #@! TO.C,U1*
X151637904Y-104354380D02*
X151637904Y-105163904D01*
X151590285Y-105259142D01*
X151542666Y-105306761D01*
X151447428Y-105354380D01*
X151256952Y-105354380D01*
X151161714Y-105306761D01*
X151114095Y-105259142D01*
X151066476Y-105163904D01*
X151066476Y-104354380D01*
X150066476Y-105354380D02*
X150637904Y-105354380D01*
X150352190Y-105354380D02*
X150352190Y-104354380D01*
X150447428Y-104497238D01*
X150542666Y-104592476D01*
X150637904Y-104640095D01*
G04 #@! TO.C,R1*
X84494666Y-129484380D02*
X84828000Y-129008190D01*
X85066095Y-129484380D02*
X85066095Y-128484380D01*
X84685142Y-128484380D01*
X84589904Y-128532000D01*
X84542285Y-128579619D01*
X84494666Y-128674857D01*
X84494666Y-128817714D01*
X84542285Y-128912952D01*
X84589904Y-128960571D01*
X84685142Y-129008190D01*
X85066095Y-129008190D01*
X83542285Y-129484380D02*
X84113714Y-129484380D01*
X83828000Y-129484380D02*
X83828000Y-128484380D01*
X83923238Y-128627238D01*
X84018476Y-128722476D01*
X84113714Y-128770095D01*
G04 #@! TO.C,R2*
X96686666Y-129484380D02*
X97020000Y-129008190D01*
X97258095Y-129484380D02*
X97258095Y-128484380D01*
X96877142Y-128484380D01*
X96781904Y-128532000D01*
X96734285Y-128579619D01*
X96686666Y-128674857D01*
X96686666Y-128817714D01*
X96734285Y-128912952D01*
X96781904Y-128960571D01*
X96877142Y-129008190D01*
X97258095Y-129008190D01*
X96305714Y-128579619D02*
X96258095Y-128532000D01*
X96162857Y-128484380D01*
X95924761Y-128484380D01*
X95829523Y-128532000D01*
X95781904Y-128579619D01*
X95734285Y-128674857D01*
X95734285Y-128770095D01*
X95781904Y-128912952D01*
X96353333Y-129484380D01*
X95734285Y-129484380D01*
G04 #@! TO.C,R3*
X152852380Y-131913333D02*
X152376190Y-131580000D01*
X152852380Y-131341904D02*
X151852380Y-131341904D01*
X151852380Y-131722857D01*
X151900000Y-131818095D01*
X151947619Y-131865714D01*
X152042857Y-131913333D01*
X152185714Y-131913333D01*
X152280952Y-131865714D01*
X152328571Y-131818095D01*
X152376190Y-131722857D01*
X152376190Y-131341904D01*
X151852380Y-132246666D02*
X151852380Y-132865714D01*
X152233333Y-132532380D01*
X152233333Y-132675238D01*
X152280952Y-132770476D01*
X152328571Y-132818095D01*
X152423809Y-132865714D01*
X152661904Y-132865714D01*
X152757142Y-132818095D01*
X152804761Y-132770476D01*
X152852380Y-132675238D01*
X152852380Y-132389523D01*
X152804761Y-132294285D01*
X152757142Y-132246666D01*
G04 #@! TO.C,R4*
X155646380Y-131913333D02*
X155170190Y-131580000D01*
X155646380Y-131341904D02*
X154646380Y-131341904D01*
X154646380Y-131722857D01*
X154694000Y-131818095D01*
X154741619Y-131865714D01*
X154836857Y-131913333D01*
X154979714Y-131913333D01*
X155074952Y-131865714D01*
X155122571Y-131818095D01*
X155170190Y-131722857D01*
X155170190Y-131341904D01*
X154979714Y-132770476D02*
X155646380Y-132770476D01*
X154598761Y-132532380D02*
X155313047Y-132294285D01*
X155313047Y-132913333D01*
G04 #@! TO.C,R5*
X149804380Y-131913333D02*
X149328190Y-131580000D01*
X149804380Y-131341904D02*
X148804380Y-131341904D01*
X148804380Y-131722857D01*
X148852000Y-131818095D01*
X148899619Y-131865714D01*
X148994857Y-131913333D01*
X149137714Y-131913333D01*
X149232952Y-131865714D01*
X149280571Y-131818095D01*
X149328190Y-131722857D01*
X149328190Y-131341904D01*
X148804380Y-132818095D02*
X148804380Y-132341904D01*
X149280571Y-132294285D01*
X149232952Y-132341904D01*
X149185333Y-132437142D01*
X149185333Y-132675238D01*
X149232952Y-132770476D01*
X149280571Y-132818095D01*
X149375809Y-132865714D01*
X149613904Y-132865714D01*
X149709142Y-132818095D01*
X149756761Y-132770476D01*
X149804380Y-132675238D01*
X149804380Y-132437142D01*
X149756761Y-132341904D01*
X149709142Y-132294285D01*
G04 #@! TO.C,R6*
X147010380Y-131913333D02*
X146534190Y-131580000D01*
X147010380Y-131341904D02*
X146010380Y-131341904D01*
X146010380Y-131722857D01*
X146058000Y-131818095D01*
X146105619Y-131865714D01*
X146200857Y-131913333D01*
X146343714Y-131913333D01*
X146438952Y-131865714D01*
X146486571Y-131818095D01*
X146534190Y-131722857D01*
X146534190Y-131341904D01*
X146010380Y-132770476D02*
X146010380Y-132580000D01*
X146058000Y-132484761D01*
X146105619Y-132437142D01*
X146248476Y-132341904D01*
X146438952Y-132294285D01*
X146819904Y-132294285D01*
X146915142Y-132341904D01*
X146962761Y-132389523D01*
X147010380Y-132484761D01*
X147010380Y-132675238D01*
X146962761Y-132770476D01*
X146915142Y-132818095D01*
X146819904Y-132865714D01*
X146581809Y-132865714D01*
X146486571Y-132818095D01*
X146438952Y-132770476D01*
X146391333Y-132675238D01*
X146391333Y-132484761D01*
X146438952Y-132389523D01*
X146486571Y-132341904D01*
X146581809Y-132294285D01*
G04 #@! TO.C,R7*
X147010380Y-119213333D02*
X146534190Y-118880000D01*
X147010380Y-118641904D02*
X146010380Y-118641904D01*
X146010380Y-119022857D01*
X146058000Y-119118095D01*
X146105619Y-119165714D01*
X146200857Y-119213333D01*
X146343714Y-119213333D01*
X146438952Y-119165714D01*
X146486571Y-119118095D01*
X146534190Y-119022857D01*
X146534190Y-118641904D01*
X146010380Y-119546666D02*
X146010380Y-120213333D01*
X147010380Y-119784761D01*
G04 #@! TO.C,R8*
X75636380Y-100925333D02*
X75160190Y-100592000D01*
X75636380Y-100353904D02*
X74636380Y-100353904D01*
X74636380Y-100734857D01*
X74684000Y-100830095D01*
X74731619Y-100877714D01*
X74826857Y-100925333D01*
X74969714Y-100925333D01*
X75064952Y-100877714D01*
X75112571Y-100830095D01*
X75160190Y-100734857D01*
X75160190Y-100353904D01*
X75064952Y-101496761D02*
X75017333Y-101401523D01*
X74969714Y-101353904D01*
X74874476Y-101306285D01*
X74826857Y-101306285D01*
X74731619Y-101353904D01*
X74684000Y-101401523D01*
X74636380Y-101496761D01*
X74636380Y-101687238D01*
X74684000Y-101782476D01*
X74731619Y-101830095D01*
X74826857Y-101877714D01*
X74874476Y-101877714D01*
X74969714Y-101830095D01*
X75017333Y-101782476D01*
X75064952Y-101687238D01*
X75064952Y-101496761D01*
X75112571Y-101401523D01*
X75160190Y-101353904D01*
X75255428Y-101306285D01*
X75445904Y-101306285D01*
X75541142Y-101353904D01*
X75588761Y-101401523D01*
X75636380Y-101496761D01*
X75636380Y-101687238D01*
X75588761Y-101782476D01*
X75541142Y-101830095D01*
X75445904Y-101877714D01*
X75255428Y-101877714D01*
X75160190Y-101830095D01*
X75112571Y-101782476D01*
X75064952Y-101687238D01*
G04 #@! TO.C,R9*
X75636380Y-107021333D02*
X75160190Y-106688000D01*
X75636380Y-106449904D02*
X74636380Y-106449904D01*
X74636380Y-106830857D01*
X74684000Y-106926095D01*
X74731619Y-106973714D01*
X74826857Y-107021333D01*
X74969714Y-107021333D01*
X75064952Y-106973714D01*
X75112571Y-106926095D01*
X75160190Y-106830857D01*
X75160190Y-106449904D01*
X75636380Y-107497523D02*
X75636380Y-107688000D01*
X75588761Y-107783238D01*
X75541142Y-107830857D01*
X75398285Y-107926095D01*
X75207809Y-107973714D01*
X74826857Y-107973714D01*
X74731619Y-107926095D01*
X74684000Y-107878476D01*
X74636380Y-107783238D01*
X74636380Y-107592761D01*
X74684000Y-107497523D01*
X74731619Y-107449904D01*
X74826857Y-107402285D01*
X75064952Y-107402285D01*
X75160190Y-107449904D01*
X75207809Y-107497523D01*
X75255428Y-107592761D01*
X75255428Y-107783238D01*
X75207809Y-107878476D01*
X75160190Y-107926095D01*
X75064952Y-107973714D01*
G04 #@! TO.C,R10*
X106920380Y-100449142D02*
X106444190Y-100115809D01*
X106920380Y-99877714D02*
X105920380Y-99877714D01*
X105920380Y-100258666D01*
X105968000Y-100353904D01*
X106015619Y-100401523D01*
X106110857Y-100449142D01*
X106253714Y-100449142D01*
X106348952Y-100401523D01*
X106396571Y-100353904D01*
X106444190Y-100258666D01*
X106444190Y-99877714D01*
X106920380Y-101401523D02*
X106920380Y-100830095D01*
X106920380Y-101115809D02*
X105920380Y-101115809D01*
X106063238Y-101020571D01*
X106158476Y-100925333D01*
X106206095Y-100830095D01*
X105920380Y-102020571D02*
X105920380Y-102115809D01*
X105968000Y-102211047D01*
X106015619Y-102258666D01*
X106110857Y-102306285D01*
X106301333Y-102353904D01*
X106539428Y-102353904D01*
X106729904Y-102306285D01*
X106825142Y-102258666D01*
X106872761Y-102211047D01*
X106920380Y-102115809D01*
X106920380Y-102020571D01*
X106872761Y-101925333D01*
X106825142Y-101877714D01*
X106729904Y-101830095D01*
X106539428Y-101782476D01*
X106301333Y-101782476D01*
X106110857Y-101830095D01*
X106015619Y-101877714D01*
X105968000Y-101925333D01*
X105920380Y-102020571D01*
G04 #@! TO.C,R11*
X106920380Y-106545142D02*
X106444190Y-106211809D01*
X106920380Y-105973714D02*
X105920380Y-105973714D01*
X105920380Y-106354666D01*
X105968000Y-106449904D01*
X106015619Y-106497523D01*
X106110857Y-106545142D01*
X106253714Y-106545142D01*
X106348952Y-106497523D01*
X106396571Y-106449904D01*
X106444190Y-106354666D01*
X106444190Y-105973714D01*
X106920380Y-107497523D02*
X106920380Y-106926095D01*
X106920380Y-107211809D02*
X105920380Y-107211809D01*
X106063238Y-107116571D01*
X106158476Y-107021333D01*
X106206095Y-106926095D01*
X106920380Y-108449904D02*
X106920380Y-107878476D01*
X106920380Y-108164190D02*
X105920380Y-108164190D01*
X106063238Y-108068952D01*
X106158476Y-107973714D01*
X106206095Y-107878476D01*
G04 #@! TO.C,R12*
X126732380Y-100449142D02*
X126256190Y-100115809D01*
X126732380Y-99877714D02*
X125732380Y-99877714D01*
X125732380Y-100258666D01*
X125780000Y-100353904D01*
X125827619Y-100401523D01*
X125922857Y-100449142D01*
X126065714Y-100449142D01*
X126160952Y-100401523D01*
X126208571Y-100353904D01*
X126256190Y-100258666D01*
X126256190Y-99877714D01*
X126732380Y-101401523D02*
X126732380Y-100830095D01*
X126732380Y-101115809D02*
X125732380Y-101115809D01*
X125875238Y-101020571D01*
X125970476Y-100925333D01*
X126018095Y-100830095D01*
X125827619Y-101782476D02*
X125780000Y-101830095D01*
X125732380Y-101925333D01*
X125732380Y-102163428D01*
X125780000Y-102258666D01*
X125827619Y-102306285D01*
X125922857Y-102353904D01*
X126018095Y-102353904D01*
X126160952Y-102306285D01*
X126732380Y-101734857D01*
X126732380Y-102353904D01*
G04 #@! TO.C,R13*
X126732380Y-106545142D02*
X126256190Y-106211809D01*
X126732380Y-105973714D02*
X125732380Y-105973714D01*
X125732380Y-106354666D01*
X125780000Y-106449904D01*
X125827619Y-106497523D01*
X125922857Y-106545142D01*
X126065714Y-106545142D01*
X126160952Y-106497523D01*
X126208571Y-106449904D01*
X126256190Y-106354666D01*
X126256190Y-105973714D01*
X126732380Y-107497523D02*
X126732380Y-106926095D01*
X126732380Y-107211809D02*
X125732380Y-107211809D01*
X125875238Y-107116571D01*
X125970476Y-107021333D01*
X126018095Y-106926095D01*
X125732380Y-107830857D02*
X125732380Y-108449904D01*
X126113333Y-108116571D01*
X126113333Y-108259428D01*
X126160952Y-108354666D01*
X126208571Y-108402285D01*
X126303809Y-108449904D01*
X126541904Y-108449904D01*
X126637142Y-108402285D01*
X126684761Y-108354666D01*
X126732380Y-108259428D01*
X126732380Y-107973714D01*
X126684761Y-107878476D01*
X126637142Y-107830857D01*
G04 #@! TO.C,R14*
X135580380Y-100449142D02*
X135104190Y-100115809D01*
X135580380Y-99877714D02*
X134580380Y-99877714D01*
X134580380Y-100258666D01*
X134628000Y-100353904D01*
X134675619Y-100401523D01*
X134770857Y-100449142D01*
X134913714Y-100449142D01*
X135008952Y-100401523D01*
X135056571Y-100353904D01*
X135104190Y-100258666D01*
X135104190Y-99877714D01*
X135580380Y-101401523D02*
X135580380Y-100830095D01*
X135580380Y-101115809D02*
X134580380Y-101115809D01*
X134723238Y-101020571D01*
X134818476Y-100925333D01*
X134866095Y-100830095D01*
X134913714Y-102258666D02*
X135580380Y-102258666D01*
X134532761Y-102020571D02*
X135247047Y-101782476D01*
X135247047Y-102401523D01*
G04 #@! TO.C,R15*
X135580380Y-106545142D02*
X135104190Y-106211809D01*
X135580380Y-105973714D02*
X134580380Y-105973714D01*
X134580380Y-106354666D01*
X134628000Y-106449904D01*
X134675619Y-106497523D01*
X134770857Y-106545142D01*
X134913714Y-106545142D01*
X135008952Y-106497523D01*
X135056571Y-106449904D01*
X135104190Y-106354666D01*
X135104190Y-105973714D01*
X135580380Y-107497523D02*
X135580380Y-106926095D01*
X135580380Y-107211809D02*
X134580380Y-107211809D01*
X134723238Y-107116571D01*
X134818476Y-107021333D01*
X134866095Y-106926095D01*
X134580380Y-108402285D02*
X134580380Y-107926095D01*
X135056571Y-107878476D01*
X135008952Y-107926095D01*
X134961333Y-108021333D01*
X134961333Y-108259428D01*
X135008952Y-108354666D01*
X135056571Y-108402285D01*
X135151809Y-108449904D01*
X135389904Y-108449904D01*
X135485142Y-108402285D01*
X135532761Y-108354666D01*
X135580380Y-108259428D01*
X135580380Y-108021333D01*
X135532761Y-107926095D01*
X135485142Y-107878476D01*
G04 #@! TO.C,R16*
X166864380Y-100449142D02*
X166388190Y-100115809D01*
X166864380Y-99877714D02*
X165864380Y-99877714D01*
X165864380Y-100258666D01*
X165912000Y-100353904D01*
X165959619Y-100401523D01*
X166054857Y-100449142D01*
X166197714Y-100449142D01*
X166292952Y-100401523D01*
X166340571Y-100353904D01*
X166388190Y-100258666D01*
X166388190Y-99877714D01*
X166864380Y-101401523D02*
X166864380Y-100830095D01*
X166864380Y-101115809D02*
X165864380Y-101115809D01*
X166007238Y-101020571D01*
X166102476Y-100925333D01*
X166150095Y-100830095D01*
X165864380Y-102258666D02*
X165864380Y-102068190D01*
X165912000Y-101972952D01*
X165959619Y-101925333D01*
X166102476Y-101830095D01*
X166292952Y-101782476D01*
X166673904Y-101782476D01*
X166769142Y-101830095D01*
X166816761Y-101877714D01*
X166864380Y-101972952D01*
X166864380Y-102163428D01*
X166816761Y-102258666D01*
X166769142Y-102306285D01*
X166673904Y-102353904D01*
X166435809Y-102353904D01*
X166340571Y-102306285D01*
X166292952Y-102258666D01*
X166245333Y-102163428D01*
X166245333Y-101972952D01*
X166292952Y-101877714D01*
X166340571Y-101830095D01*
X166435809Y-101782476D01*
G04 #@! TO.C,R17*
X166864380Y-106545142D02*
X166388190Y-106211809D01*
X166864380Y-105973714D02*
X165864380Y-105973714D01*
X165864380Y-106354666D01*
X165912000Y-106449904D01*
X165959619Y-106497523D01*
X166054857Y-106545142D01*
X166197714Y-106545142D01*
X166292952Y-106497523D01*
X166340571Y-106449904D01*
X166388190Y-106354666D01*
X166388190Y-105973714D01*
X166864380Y-107497523D02*
X166864380Y-106926095D01*
X166864380Y-107211809D02*
X165864380Y-107211809D01*
X166007238Y-107116571D01*
X166102476Y-107021333D01*
X166150095Y-106926095D01*
X165864380Y-107830857D02*
X165864380Y-108497523D01*
X166864380Y-108068952D01*
G04 #@! TO.C,R18*
X175458380Y-100449142D02*
X174982190Y-100115809D01*
X175458380Y-99877714D02*
X174458380Y-99877714D01*
X174458380Y-100258666D01*
X174506000Y-100353904D01*
X174553619Y-100401523D01*
X174648857Y-100449142D01*
X174791714Y-100449142D01*
X174886952Y-100401523D01*
X174934571Y-100353904D01*
X174982190Y-100258666D01*
X174982190Y-99877714D01*
X175458380Y-101401523D02*
X175458380Y-100830095D01*
X175458380Y-101115809D02*
X174458380Y-101115809D01*
X174601238Y-101020571D01*
X174696476Y-100925333D01*
X174744095Y-100830095D01*
X174886952Y-101972952D02*
X174839333Y-101877714D01*
X174791714Y-101830095D01*
X174696476Y-101782476D01*
X174648857Y-101782476D01*
X174553619Y-101830095D01*
X174506000Y-101877714D01*
X174458380Y-101972952D01*
X174458380Y-102163428D01*
X174506000Y-102258666D01*
X174553619Y-102306285D01*
X174648857Y-102353904D01*
X174696476Y-102353904D01*
X174791714Y-102306285D01*
X174839333Y-102258666D01*
X174886952Y-102163428D01*
X174886952Y-101972952D01*
X174934571Y-101877714D01*
X174982190Y-101830095D01*
X175077428Y-101782476D01*
X175267904Y-101782476D01*
X175363142Y-101830095D01*
X175410761Y-101877714D01*
X175458380Y-101972952D01*
X175458380Y-102163428D01*
X175410761Y-102258666D01*
X175363142Y-102306285D01*
X175267904Y-102353904D01*
X175077428Y-102353904D01*
X174982190Y-102306285D01*
X174934571Y-102258666D01*
X174886952Y-102163428D01*
G04 #@! TO.C,R19*
X175458380Y-106545142D02*
X174982190Y-106211809D01*
X175458380Y-105973714D02*
X174458380Y-105973714D01*
X174458380Y-106354666D01*
X174506000Y-106449904D01*
X174553619Y-106497523D01*
X174648857Y-106545142D01*
X174791714Y-106545142D01*
X174886952Y-106497523D01*
X174934571Y-106449904D01*
X174982190Y-106354666D01*
X174982190Y-105973714D01*
X175458380Y-107497523D02*
X175458380Y-106926095D01*
X175458380Y-107211809D02*
X174458380Y-107211809D01*
X174601238Y-107116571D01*
X174696476Y-107021333D01*
X174744095Y-106926095D01*
X175458380Y-107973714D02*
X175458380Y-108164190D01*
X175410761Y-108259428D01*
X175363142Y-108307047D01*
X175220285Y-108402285D01*
X175029809Y-108449904D01*
X174648857Y-108449904D01*
X174553619Y-108402285D01*
X174506000Y-108354666D01*
X174458380Y-108259428D01*
X174458380Y-108068952D01*
X174506000Y-107973714D01*
X174553619Y-107926095D01*
X174648857Y-107878476D01*
X174886952Y-107878476D01*
X174982190Y-107926095D01*
X175029809Y-107973714D01*
X175077428Y-108068952D01*
X175077428Y-108259428D01*
X175029809Y-108354666D01*
X174982190Y-108402285D01*
X174886952Y-108449904D01*
G04 #@! TO.C,R20*
X206742380Y-100449142D02*
X206266190Y-100115809D01*
X206742380Y-99877714D02*
X205742380Y-99877714D01*
X205742380Y-100258666D01*
X205790000Y-100353904D01*
X205837619Y-100401523D01*
X205932857Y-100449142D01*
X206075714Y-100449142D01*
X206170952Y-100401523D01*
X206218571Y-100353904D01*
X206266190Y-100258666D01*
X206266190Y-99877714D01*
X205837619Y-100830095D02*
X205790000Y-100877714D01*
X205742380Y-100972952D01*
X205742380Y-101211047D01*
X205790000Y-101306285D01*
X205837619Y-101353904D01*
X205932857Y-101401523D01*
X206028095Y-101401523D01*
X206170952Y-101353904D01*
X206742380Y-100782476D01*
X206742380Y-101401523D01*
X205742380Y-102020571D02*
X205742380Y-102115809D01*
X205790000Y-102211047D01*
X205837619Y-102258666D01*
X205932857Y-102306285D01*
X206123333Y-102353904D01*
X206361428Y-102353904D01*
X206551904Y-102306285D01*
X206647142Y-102258666D01*
X206694761Y-102211047D01*
X206742380Y-102115809D01*
X206742380Y-102020571D01*
X206694761Y-101925333D01*
X206647142Y-101877714D01*
X206551904Y-101830095D01*
X206361428Y-101782476D01*
X206123333Y-101782476D01*
X205932857Y-101830095D01*
X205837619Y-101877714D01*
X205790000Y-101925333D01*
X205742380Y-102020571D01*
G04 #@! TO.C,R21*
X206742380Y-106545142D02*
X206266190Y-106211809D01*
X206742380Y-105973714D02*
X205742380Y-105973714D01*
X205742380Y-106354666D01*
X205790000Y-106449904D01*
X205837619Y-106497523D01*
X205932857Y-106545142D01*
X206075714Y-106545142D01*
X206170952Y-106497523D01*
X206218571Y-106449904D01*
X206266190Y-106354666D01*
X206266190Y-105973714D01*
X205837619Y-106926095D02*
X205790000Y-106973714D01*
X205742380Y-107068952D01*
X205742380Y-107307047D01*
X205790000Y-107402285D01*
X205837619Y-107449904D01*
X205932857Y-107497523D01*
X206028095Y-107497523D01*
X206170952Y-107449904D01*
X206742380Y-106878476D01*
X206742380Y-107497523D01*
X206742380Y-108449904D02*
X206742380Y-107878476D01*
X206742380Y-108164190D02*
X205742380Y-108164190D01*
X205885238Y-108068952D01*
X205980476Y-107973714D01*
X206028095Y-107878476D01*
G04 #@! TO.C,R22*
X215590380Y-100449142D02*
X215114190Y-100115809D01*
X215590380Y-99877714D02*
X214590380Y-99877714D01*
X214590380Y-100258666D01*
X214638000Y-100353904D01*
X214685619Y-100401523D01*
X214780857Y-100449142D01*
X214923714Y-100449142D01*
X215018952Y-100401523D01*
X215066571Y-100353904D01*
X215114190Y-100258666D01*
X215114190Y-99877714D01*
X214685619Y-100830095D02*
X214638000Y-100877714D01*
X214590380Y-100972952D01*
X214590380Y-101211047D01*
X214638000Y-101306285D01*
X214685619Y-101353904D01*
X214780857Y-101401523D01*
X214876095Y-101401523D01*
X215018952Y-101353904D01*
X215590380Y-100782476D01*
X215590380Y-101401523D01*
X214685619Y-101782476D02*
X214638000Y-101830095D01*
X214590380Y-101925333D01*
X214590380Y-102163428D01*
X214638000Y-102258666D01*
X214685619Y-102306285D01*
X214780857Y-102353904D01*
X214876095Y-102353904D01*
X215018952Y-102306285D01*
X215590380Y-101734857D01*
X215590380Y-102353904D01*
G04 #@! TO.C,R23*
X215590380Y-106545142D02*
X215114190Y-106211809D01*
X215590380Y-105973714D02*
X214590380Y-105973714D01*
X214590380Y-106354666D01*
X214638000Y-106449904D01*
X214685619Y-106497523D01*
X214780857Y-106545142D01*
X214923714Y-106545142D01*
X215018952Y-106497523D01*
X215066571Y-106449904D01*
X215114190Y-106354666D01*
X215114190Y-105973714D01*
X214685619Y-106926095D02*
X214638000Y-106973714D01*
X214590380Y-107068952D01*
X214590380Y-107307047D01*
X214638000Y-107402285D01*
X214685619Y-107449904D01*
X214780857Y-107497523D01*
X214876095Y-107497523D01*
X215018952Y-107449904D01*
X215590380Y-106878476D01*
X215590380Y-107497523D01*
X214590380Y-107830857D02*
X214590380Y-108449904D01*
X214971333Y-108116571D01*
X214971333Y-108259428D01*
X215018952Y-108354666D01*
X215066571Y-108402285D01*
X215161809Y-108449904D01*
X215399904Y-108449904D01*
X215495142Y-108402285D01*
X215542761Y-108354666D01*
X215590380Y-108259428D01*
X215590380Y-107973714D01*
X215542761Y-107878476D01*
X215495142Y-107830857D01*
G04 #@! TO.C,R24*
X85478857Y-45664380D02*
X85812190Y-45188190D01*
X86050285Y-45664380D02*
X86050285Y-44664380D01*
X85669333Y-44664380D01*
X85574095Y-44712000D01*
X85526476Y-44759619D01*
X85478857Y-44854857D01*
X85478857Y-44997714D01*
X85526476Y-45092952D01*
X85574095Y-45140571D01*
X85669333Y-45188190D01*
X86050285Y-45188190D01*
X85097904Y-44759619D02*
X85050285Y-44712000D01*
X84955047Y-44664380D01*
X84716952Y-44664380D01*
X84621714Y-44712000D01*
X84574095Y-44759619D01*
X84526476Y-44854857D01*
X84526476Y-44950095D01*
X84574095Y-45092952D01*
X85145523Y-45664380D01*
X84526476Y-45664380D01*
X83669333Y-44997714D02*
X83669333Y-45664380D01*
X83907428Y-44616761D02*
X84145523Y-45331047D01*
X83526476Y-45331047D01*
G04 #@! TO.C,R25*
X105290857Y-45664380D02*
X105624190Y-45188190D01*
X105862285Y-45664380D02*
X105862285Y-44664380D01*
X105481333Y-44664380D01*
X105386095Y-44712000D01*
X105338476Y-44759619D01*
X105290857Y-44854857D01*
X105290857Y-44997714D01*
X105338476Y-45092952D01*
X105386095Y-45140571D01*
X105481333Y-45188190D01*
X105862285Y-45188190D01*
X104909904Y-44759619D02*
X104862285Y-44712000D01*
X104767047Y-44664380D01*
X104528952Y-44664380D01*
X104433714Y-44712000D01*
X104386095Y-44759619D01*
X104338476Y-44854857D01*
X104338476Y-44950095D01*
X104386095Y-45092952D01*
X104957523Y-45664380D01*
X104338476Y-45664380D01*
X103433714Y-44664380D02*
X103909904Y-44664380D01*
X103957523Y-45140571D01*
X103909904Y-45092952D01*
X103814666Y-45045333D01*
X103576571Y-45045333D01*
X103481333Y-45092952D01*
X103433714Y-45140571D01*
X103386095Y-45235809D01*
X103386095Y-45473904D01*
X103433714Y-45569142D01*
X103481333Y-45616761D01*
X103576571Y-45664380D01*
X103814666Y-45664380D01*
X103909904Y-45616761D01*
X103957523Y-45569142D01*
G04 #@! TO.C,R26*
X125356857Y-45664380D02*
X125690190Y-45188190D01*
X125928285Y-45664380D02*
X125928285Y-44664380D01*
X125547333Y-44664380D01*
X125452095Y-44712000D01*
X125404476Y-44759619D01*
X125356857Y-44854857D01*
X125356857Y-44997714D01*
X125404476Y-45092952D01*
X125452095Y-45140571D01*
X125547333Y-45188190D01*
X125928285Y-45188190D01*
X124975904Y-44759619D02*
X124928285Y-44712000D01*
X124833047Y-44664380D01*
X124594952Y-44664380D01*
X124499714Y-44712000D01*
X124452095Y-44759619D01*
X124404476Y-44854857D01*
X124404476Y-44950095D01*
X124452095Y-45092952D01*
X125023523Y-45664380D01*
X124404476Y-45664380D01*
X123547333Y-44664380D02*
X123737809Y-44664380D01*
X123833047Y-44712000D01*
X123880666Y-44759619D01*
X123975904Y-44902476D01*
X124023523Y-45092952D01*
X124023523Y-45473904D01*
X123975904Y-45569142D01*
X123928285Y-45616761D01*
X123833047Y-45664380D01*
X123642571Y-45664380D01*
X123547333Y-45616761D01*
X123499714Y-45569142D01*
X123452095Y-45473904D01*
X123452095Y-45235809D01*
X123499714Y-45140571D01*
X123547333Y-45092952D01*
X123642571Y-45045333D01*
X123833047Y-45045333D01*
X123928285Y-45092952D01*
X123975904Y-45140571D01*
X124023523Y-45235809D01*
G04 #@! TO.C,R27*
X137548857Y-45664380D02*
X137882190Y-45188190D01*
X138120285Y-45664380D02*
X138120285Y-44664380D01*
X137739333Y-44664380D01*
X137644095Y-44712000D01*
X137596476Y-44759619D01*
X137548857Y-44854857D01*
X137548857Y-44997714D01*
X137596476Y-45092952D01*
X137644095Y-45140571D01*
X137739333Y-45188190D01*
X138120285Y-45188190D01*
X137167904Y-44759619D02*
X137120285Y-44712000D01*
X137025047Y-44664380D01*
X136786952Y-44664380D01*
X136691714Y-44712000D01*
X136644095Y-44759619D01*
X136596476Y-44854857D01*
X136596476Y-44950095D01*
X136644095Y-45092952D01*
X137215523Y-45664380D01*
X136596476Y-45664380D01*
X136263142Y-44664380D02*
X135596476Y-44664380D01*
X136025047Y-45664380D01*
G04 #@! TO.C,R28*
X165488857Y-45664380D02*
X165822190Y-45188190D01*
X166060285Y-45664380D02*
X166060285Y-44664380D01*
X165679333Y-44664380D01*
X165584095Y-44712000D01*
X165536476Y-44759619D01*
X165488857Y-44854857D01*
X165488857Y-44997714D01*
X165536476Y-45092952D01*
X165584095Y-45140571D01*
X165679333Y-45188190D01*
X166060285Y-45188190D01*
X165107904Y-44759619D02*
X165060285Y-44712000D01*
X164965047Y-44664380D01*
X164726952Y-44664380D01*
X164631714Y-44712000D01*
X164584095Y-44759619D01*
X164536476Y-44854857D01*
X164536476Y-44950095D01*
X164584095Y-45092952D01*
X165155523Y-45664380D01*
X164536476Y-45664380D01*
X163965047Y-45092952D02*
X164060285Y-45045333D01*
X164107904Y-44997714D01*
X164155523Y-44902476D01*
X164155523Y-44854857D01*
X164107904Y-44759619D01*
X164060285Y-44712000D01*
X163965047Y-44664380D01*
X163774571Y-44664380D01*
X163679333Y-44712000D01*
X163631714Y-44759619D01*
X163584095Y-44854857D01*
X163584095Y-44902476D01*
X163631714Y-44997714D01*
X163679333Y-45045333D01*
X163774571Y-45092952D01*
X163965047Y-45092952D01*
X164060285Y-45140571D01*
X164107904Y-45188190D01*
X164155523Y-45283428D01*
X164155523Y-45473904D01*
X164107904Y-45569142D01*
X164060285Y-45616761D01*
X163965047Y-45664380D01*
X163774571Y-45664380D01*
X163679333Y-45616761D01*
X163631714Y-45569142D01*
X163584095Y-45473904D01*
X163584095Y-45283428D01*
X163631714Y-45188190D01*
X163679333Y-45140571D01*
X163774571Y-45092952D01*
G04 #@! TO.C,R29*
X185300857Y-45664380D02*
X185634190Y-45188190D01*
X185872285Y-45664380D02*
X185872285Y-44664380D01*
X185491333Y-44664380D01*
X185396095Y-44712000D01*
X185348476Y-44759619D01*
X185300857Y-44854857D01*
X185300857Y-44997714D01*
X185348476Y-45092952D01*
X185396095Y-45140571D01*
X185491333Y-45188190D01*
X185872285Y-45188190D01*
X184919904Y-44759619D02*
X184872285Y-44712000D01*
X184777047Y-44664380D01*
X184538952Y-44664380D01*
X184443714Y-44712000D01*
X184396095Y-44759619D01*
X184348476Y-44854857D01*
X184348476Y-44950095D01*
X184396095Y-45092952D01*
X184967523Y-45664380D01*
X184348476Y-45664380D01*
X183872285Y-45664380D02*
X183681809Y-45664380D01*
X183586571Y-45616761D01*
X183538952Y-45569142D01*
X183443714Y-45426285D01*
X183396095Y-45235809D01*
X183396095Y-44854857D01*
X183443714Y-44759619D01*
X183491333Y-44712000D01*
X183586571Y-44664380D01*
X183777047Y-44664380D01*
X183872285Y-44712000D01*
X183919904Y-44759619D01*
X183967523Y-44854857D01*
X183967523Y-45092952D01*
X183919904Y-45188190D01*
X183872285Y-45235809D01*
X183777047Y-45283428D01*
X183586571Y-45283428D01*
X183491333Y-45235809D01*
X183443714Y-45188190D01*
X183396095Y-45092952D01*
G04 #@! TO.C,R30*
X205366857Y-45664380D02*
X205700190Y-45188190D01*
X205938285Y-45664380D02*
X205938285Y-44664380D01*
X205557333Y-44664380D01*
X205462095Y-44712000D01*
X205414476Y-44759619D01*
X205366857Y-44854857D01*
X205366857Y-44997714D01*
X205414476Y-45092952D01*
X205462095Y-45140571D01*
X205557333Y-45188190D01*
X205938285Y-45188190D01*
X205033523Y-44664380D02*
X204414476Y-44664380D01*
X204747809Y-45045333D01*
X204604952Y-45045333D01*
X204509714Y-45092952D01*
X204462095Y-45140571D01*
X204414476Y-45235809D01*
X204414476Y-45473904D01*
X204462095Y-45569142D01*
X204509714Y-45616761D01*
X204604952Y-45664380D01*
X204890666Y-45664380D01*
X204985904Y-45616761D01*
X205033523Y-45569142D01*
X203795428Y-44664380D02*
X203700190Y-44664380D01*
X203604952Y-44712000D01*
X203557333Y-44759619D01*
X203509714Y-44854857D01*
X203462095Y-45045333D01*
X203462095Y-45283428D01*
X203509714Y-45473904D01*
X203557333Y-45569142D01*
X203604952Y-45616761D01*
X203700190Y-45664380D01*
X203795428Y-45664380D01*
X203890666Y-45616761D01*
X203938285Y-45569142D01*
X203985904Y-45473904D01*
X204033523Y-45283428D01*
X204033523Y-45045333D01*
X203985904Y-44854857D01*
X203938285Y-44759619D01*
X203890666Y-44712000D01*
X203795428Y-44664380D01*
G04 #@! TO.C,R31*
X225432857Y-45664380D02*
X225766190Y-45188190D01*
X226004285Y-45664380D02*
X226004285Y-44664380D01*
X225623333Y-44664380D01*
X225528095Y-44712000D01*
X225480476Y-44759619D01*
X225432857Y-44854857D01*
X225432857Y-44997714D01*
X225480476Y-45092952D01*
X225528095Y-45140571D01*
X225623333Y-45188190D01*
X226004285Y-45188190D01*
X225099523Y-44664380D02*
X224480476Y-44664380D01*
X224813809Y-45045333D01*
X224670952Y-45045333D01*
X224575714Y-45092952D01*
X224528095Y-45140571D01*
X224480476Y-45235809D01*
X224480476Y-45473904D01*
X224528095Y-45569142D01*
X224575714Y-45616761D01*
X224670952Y-45664380D01*
X224956666Y-45664380D01*
X225051904Y-45616761D01*
X225099523Y-45569142D01*
X223528095Y-45664380D02*
X224099523Y-45664380D01*
X223813809Y-45664380D02*
X223813809Y-44664380D01*
X223909047Y-44807238D01*
X224004285Y-44902476D01*
X224099523Y-44950095D01*
G04 #@! TO.C,R45*
X165996857Y-114498380D02*
X166330190Y-114022190D01*
X166568285Y-114498380D02*
X166568285Y-113498380D01*
X166187333Y-113498380D01*
X166092095Y-113546000D01*
X166044476Y-113593619D01*
X165996857Y-113688857D01*
X165996857Y-113831714D01*
X166044476Y-113926952D01*
X166092095Y-113974571D01*
X166187333Y-114022190D01*
X166568285Y-114022190D01*
X165139714Y-113831714D02*
X165139714Y-114498380D01*
X165377809Y-113450761D02*
X165615904Y-114165047D01*
X164996857Y-114165047D01*
X164139714Y-113498380D02*
X164615904Y-113498380D01*
X164663523Y-113974571D01*
X164615904Y-113926952D01*
X164520666Y-113879333D01*
X164282571Y-113879333D01*
X164187333Y-113926952D01*
X164139714Y-113974571D01*
X164092095Y-114069809D01*
X164092095Y-114307904D01*
X164139714Y-114403142D01*
X164187333Y-114450761D01*
X164282571Y-114498380D01*
X164520666Y-114498380D01*
X164615904Y-114450761D01*
X164663523Y-114403142D01*
G04 #@! TO.C,Y1*
X180308190Y-95226190D02*
X180308190Y-95702380D01*
X180641523Y-94702380D02*
X180308190Y-95226190D01*
X179974857Y-94702380D01*
X179117714Y-95702380D02*
X179689142Y-95702380D01*
X179403428Y-95702380D02*
X179403428Y-94702380D01*
X179498666Y-94845238D01*
X179593904Y-94940476D01*
X179689142Y-94988095D01*
G04 #@! TO.C,C1*
X142022666Y-111355142D02*
X142070285Y-111402761D01*
X142213142Y-111450380D01*
X142308380Y-111450380D01*
X142451238Y-111402761D01*
X142546476Y-111307523D01*
X142594095Y-111212285D01*
X142641714Y-111021809D01*
X142641714Y-110878952D01*
X142594095Y-110688476D01*
X142546476Y-110593238D01*
X142451238Y-110498000D01*
X142308380Y-110450380D01*
X142213142Y-110450380D01*
X142070285Y-110498000D01*
X142022666Y-110545619D01*
X141070285Y-111450380D02*
X141641714Y-111450380D01*
X141356000Y-111450380D02*
X141356000Y-110450380D01*
X141451238Y-110593238D01*
X141546476Y-110688476D01*
X141641714Y-110736095D01*
G04 #@! TO.C,C2*
X142152666Y-50903142D02*
X142200285Y-50950761D01*
X142343142Y-50998380D01*
X142438380Y-50998380D01*
X142581238Y-50950761D01*
X142676476Y-50855523D01*
X142724095Y-50760285D01*
X142771714Y-50569809D01*
X142771714Y-50426952D01*
X142724095Y-50236476D01*
X142676476Y-50141238D01*
X142581238Y-50046000D01*
X142438380Y-49998380D01*
X142343142Y-49998380D01*
X142200285Y-50046000D01*
X142152666Y-50093619D01*
X141771714Y-50093619D02*
X141724095Y-50046000D01*
X141628857Y-49998380D01*
X141390761Y-49998380D01*
X141295523Y-50046000D01*
X141247904Y-50093619D01*
X141200285Y-50188857D01*
X141200285Y-50284095D01*
X141247904Y-50426952D01*
X141819333Y-50998380D01*
X141200285Y-50998380D01*
G04 #@! TO.C,C3*
X141898666Y-70461142D02*
X141946285Y-70508761D01*
X142089142Y-70556380D01*
X142184380Y-70556380D01*
X142327238Y-70508761D01*
X142422476Y-70413523D01*
X142470095Y-70318285D01*
X142517714Y-70127809D01*
X142517714Y-69984952D01*
X142470095Y-69794476D01*
X142422476Y-69699238D01*
X142327238Y-69604000D01*
X142184380Y-69556380D01*
X142089142Y-69556380D01*
X141946285Y-69604000D01*
X141898666Y-69651619D01*
X141565333Y-69556380D02*
X140946285Y-69556380D01*
X141279619Y-69937333D01*
X141136761Y-69937333D01*
X141041523Y-69984952D01*
X140993904Y-70032571D01*
X140946285Y-70127809D01*
X140946285Y-70365904D01*
X140993904Y-70461142D01*
X141041523Y-70508761D01*
X141136761Y-70556380D01*
X141422476Y-70556380D01*
X141517714Y-70508761D01*
X141565333Y-70461142D01*
G04 #@! TO.C,C4*
X142406666Y-91797142D02*
X142454285Y-91844761D01*
X142597142Y-91892380D01*
X142692380Y-91892380D01*
X142835238Y-91844761D01*
X142930476Y-91749523D01*
X142978095Y-91654285D01*
X143025714Y-91463809D01*
X143025714Y-91320952D01*
X142978095Y-91130476D01*
X142930476Y-91035238D01*
X142835238Y-90940000D01*
X142692380Y-90892380D01*
X142597142Y-90892380D01*
X142454285Y-90940000D01*
X142406666Y-90987619D01*
X141549523Y-91225714D02*
X141549523Y-91892380D01*
X141787619Y-90844761D02*
X142025714Y-91559047D01*
X141406666Y-91559047D01*
G04 #@! TO.C,D1*
X85066095Y-132024380D02*
X85066095Y-131024380D01*
X84828000Y-131024380D01*
X84685142Y-131072000D01*
X84589904Y-131167238D01*
X84542285Y-131262476D01*
X84494666Y-131452952D01*
X84494666Y-131595809D01*
X84542285Y-131786285D01*
X84589904Y-131881523D01*
X84685142Y-131976761D01*
X84828000Y-132024380D01*
X85066095Y-132024380D01*
X83542285Y-132024380D02*
X84113714Y-132024380D01*
X83828000Y-132024380D02*
X83828000Y-131024380D01*
X83923238Y-131167238D01*
X84018476Y-131262476D01*
X84113714Y-131310095D01*
G04 #@! TO.C,D2*
X97258095Y-132024380D02*
X97258095Y-131024380D01*
X97020000Y-131024380D01*
X96877142Y-131072000D01*
X96781904Y-131167238D01*
X96734285Y-131262476D01*
X96686666Y-131452952D01*
X96686666Y-131595809D01*
X96734285Y-131786285D01*
X96781904Y-131881523D01*
X96877142Y-131976761D01*
X97020000Y-132024380D01*
X97258095Y-132024380D01*
X96305714Y-131119619D02*
X96258095Y-131072000D01*
X96162857Y-131024380D01*
X95924761Y-131024380D01*
X95829523Y-131072000D01*
X95781904Y-131119619D01*
X95734285Y-131214857D01*
X95734285Y-131310095D01*
X95781904Y-131452952D01*
X96353333Y-132024380D01*
X95734285Y-132024380D01*
G04 #@! TO.C,D3*
X190476095Y-125420380D02*
X190476095Y-124420380D01*
X190238000Y-124420380D01*
X190095142Y-124468000D01*
X189999904Y-124563238D01*
X189952285Y-124658476D01*
X189904666Y-124848952D01*
X189904666Y-124991809D01*
X189952285Y-125182285D01*
X189999904Y-125277523D01*
X190095142Y-125372761D01*
X190238000Y-125420380D01*
X190476095Y-125420380D01*
X189571333Y-124420380D02*
X188952285Y-124420380D01*
X189285619Y-124801333D01*
X189142761Y-124801333D01*
X189047523Y-124848952D01*
X188999904Y-124896571D01*
X188952285Y-124991809D01*
X188952285Y-125229904D01*
X188999904Y-125325142D01*
X189047523Y-125372761D01*
X189142761Y-125420380D01*
X189428476Y-125420380D01*
X189523714Y-125372761D01*
X189571333Y-125325142D01*
G04 #@! TO.C,D12*
X161104285Y-70514380D02*
X161104285Y-69514380D01*
X160866190Y-69514380D01*
X160723333Y-69562000D01*
X160628095Y-69657238D01*
X160580476Y-69752476D01*
X160532857Y-69942952D01*
X160532857Y-70085809D01*
X160580476Y-70276285D01*
X160628095Y-70371523D01*
X160723333Y-70466761D01*
X160866190Y-70514380D01*
X161104285Y-70514380D01*
X159580476Y-70514380D02*
X160151904Y-70514380D01*
X159866190Y-70514380D02*
X159866190Y-69514380D01*
X159961428Y-69657238D01*
X160056666Y-69752476D01*
X160151904Y-69800095D01*
X159199523Y-69609619D02*
X159151904Y-69562000D01*
X159056666Y-69514380D01*
X158818571Y-69514380D01*
X158723333Y-69562000D01*
X158675714Y-69609619D01*
X158628095Y-69704857D01*
X158628095Y-69800095D01*
X158675714Y-69942952D01*
X159247142Y-70514380D01*
X158628095Y-70514380D01*
G04 #@! TO.C,D13*
X150566285Y-79700380D02*
X150566285Y-78700380D01*
X150328190Y-78700380D01*
X150185333Y-78748000D01*
X150090095Y-78843238D01*
X150042476Y-78938476D01*
X149994857Y-79128952D01*
X149994857Y-79271809D01*
X150042476Y-79462285D01*
X150090095Y-79557523D01*
X150185333Y-79652761D01*
X150328190Y-79700380D01*
X150566285Y-79700380D01*
X149042476Y-79700380D02*
X149613904Y-79700380D01*
X149328190Y-79700380D02*
X149328190Y-78700380D01*
X149423428Y-78843238D01*
X149518666Y-78938476D01*
X149613904Y-78986095D01*
X148709142Y-78700380D02*
X148090095Y-78700380D01*
X148423428Y-79081333D01*
X148280571Y-79081333D01*
X148185333Y-79128952D01*
X148137714Y-79176571D01*
X148090095Y-79271809D01*
X148090095Y-79509904D01*
X148137714Y-79605142D01*
X148185333Y-79652761D01*
X148280571Y-79700380D01*
X148566285Y-79700380D01*
X148661523Y-79652761D01*
X148709142Y-79605142D01*
G04 #@! TO.C,J5*
X87923619Y-100282333D02*
X87209333Y-100282333D01*
X87066476Y-100329952D01*
X86971238Y-100425190D01*
X86923619Y-100568047D01*
X86923619Y-100663285D01*
X87923619Y-99329952D02*
X87923619Y-99806142D01*
X87447428Y-99853761D01*
X87495047Y-99806142D01*
X87542666Y-99710904D01*
X87542666Y-99472809D01*
X87495047Y-99377571D01*
X87447428Y-99329952D01*
X87352190Y-99282333D01*
X87114095Y-99282333D01*
X87018857Y-99329952D01*
X86971238Y-99377571D01*
X86923619Y-99472809D01*
X86923619Y-99710904D01*
X86971238Y-99806142D01*
X87018857Y-99853761D01*
G04 #@! TO.C,U2*
X151637904Y-40092380D02*
X151637904Y-40901904D01*
X151590285Y-40997142D01*
X151542666Y-41044761D01*
X151447428Y-41092380D01*
X151256952Y-41092380D01*
X151161714Y-41044761D01*
X151114095Y-40997142D01*
X151066476Y-40901904D01*
X151066476Y-40092380D01*
X150637904Y-40187619D02*
X150590285Y-40140000D01*
X150495047Y-40092380D01*
X150256952Y-40092380D01*
X150161714Y-40140000D01*
X150114095Y-40187619D01*
X150066476Y-40282857D01*
X150066476Y-40378095D01*
X150114095Y-40520952D01*
X150685523Y-41092380D01*
X150066476Y-41092380D01*
G04 #@! TO.C,U3*
X151637904Y-63460380D02*
X151637904Y-64269904D01*
X151590285Y-64365142D01*
X151542666Y-64412761D01*
X151447428Y-64460380D01*
X151256952Y-64460380D01*
X151161714Y-64412761D01*
X151114095Y-64365142D01*
X151066476Y-64269904D01*
X151066476Y-63460380D01*
X150685523Y-63460380D02*
X150066476Y-63460380D01*
X150399809Y-63841333D01*
X150256952Y-63841333D01*
X150161714Y-63888952D01*
X150114095Y-63936571D01*
X150066476Y-64031809D01*
X150066476Y-64269904D01*
X150114095Y-64365142D01*
X150161714Y-64412761D01*
X150256952Y-64460380D01*
X150542666Y-64460380D01*
X150637904Y-64412761D01*
X150685523Y-64365142D01*
G04 #@! TO.C,U4*
X151637904Y-84796380D02*
X151637904Y-85605904D01*
X151590285Y-85701142D01*
X151542666Y-85748761D01*
X151447428Y-85796380D01*
X151256952Y-85796380D01*
X151161714Y-85748761D01*
X151114095Y-85701142D01*
X151066476Y-85605904D01*
X151066476Y-84796380D01*
X150161714Y-85129714D02*
X150161714Y-85796380D01*
X150399809Y-84748761D02*
X150637904Y-85463047D01*
X150018857Y-85463047D01*
G04 #@! TO.C,C5*
X171299142Y-90511333D02*
X171346761Y-90463714D01*
X171394380Y-90320857D01*
X171394380Y-90225619D01*
X171346761Y-90082761D01*
X171251523Y-89987523D01*
X171156285Y-89939904D01*
X170965809Y-89892285D01*
X170822952Y-89892285D01*
X170632476Y-89939904D01*
X170537238Y-89987523D01*
X170442000Y-90082761D01*
X170394380Y-90225619D01*
X170394380Y-90320857D01*
X170442000Y-90463714D01*
X170489619Y-90511333D01*
X170394380Y-91416095D02*
X170394380Y-90939904D01*
X170870571Y-90892285D01*
X170822952Y-90939904D01*
X170775333Y-91035142D01*
X170775333Y-91273238D01*
X170822952Y-91368476D01*
X170870571Y-91416095D01*
X170965809Y-91463714D01*
X171203904Y-91463714D01*
X171299142Y-91416095D01*
X171346761Y-91368476D01*
X171394380Y-91273238D01*
X171394380Y-91035142D01*
X171346761Y-90939904D01*
X171299142Y-90892285D01*
G04 #@! TO.C,C6*
X171299142Y-96353333D02*
X171346761Y-96305714D01*
X171394380Y-96162857D01*
X171394380Y-96067619D01*
X171346761Y-95924761D01*
X171251523Y-95829523D01*
X171156285Y-95781904D01*
X170965809Y-95734285D01*
X170822952Y-95734285D01*
X170632476Y-95781904D01*
X170537238Y-95829523D01*
X170442000Y-95924761D01*
X170394380Y-96067619D01*
X170394380Y-96162857D01*
X170442000Y-96305714D01*
X170489619Y-96353333D01*
X170394380Y-97210476D02*
X170394380Y-97020000D01*
X170442000Y-96924761D01*
X170489619Y-96877142D01*
X170632476Y-96781904D01*
X170822952Y-96734285D01*
X171203904Y-96734285D01*
X171299142Y-96781904D01*
X171346761Y-96829523D01*
X171394380Y-96924761D01*
X171394380Y-97115238D01*
X171346761Y-97210476D01*
X171299142Y-97258095D01*
X171203904Y-97305714D01*
X170965809Y-97305714D01*
X170870571Y-97258095D01*
X170822952Y-97210476D01*
X170775333Y-97115238D01*
X170775333Y-96924761D01*
X170822952Y-96829523D01*
X170870571Y-96781904D01*
X170965809Y-96734285D01*
G04 #@! TO.C,J7*
X205446380Y-93392666D02*
X206160666Y-93392666D01*
X206303523Y-93345047D01*
X206398761Y-93249809D01*
X206446380Y-93106952D01*
X206446380Y-93011714D01*
X205446380Y-93773619D02*
X205446380Y-94440285D01*
X206446380Y-94011714D01*
G04 #@! TO.C,SW10*
X172041523Y-116768761D02*
X171898666Y-116816380D01*
X171660571Y-116816380D01*
X171565333Y-116768761D01*
X171517714Y-116721142D01*
X171470095Y-116625904D01*
X171470095Y-116530666D01*
X171517714Y-116435428D01*
X171565333Y-116387809D01*
X171660571Y-116340190D01*
X171851047Y-116292571D01*
X171946285Y-116244952D01*
X171993904Y-116197333D01*
X172041523Y-116102095D01*
X172041523Y-116006857D01*
X171993904Y-115911619D01*
X171946285Y-115864000D01*
X171851047Y-115816380D01*
X171612952Y-115816380D01*
X171470095Y-115864000D01*
X171136761Y-115816380D02*
X170898666Y-116816380D01*
X170708190Y-116102095D01*
X170517714Y-116816380D01*
X170279619Y-115816380D01*
X169374857Y-116816380D02*
X169946285Y-116816380D01*
X169660571Y-116816380D02*
X169660571Y-115816380D01*
X169755809Y-115959238D01*
X169851047Y-116054476D01*
X169946285Y-116102095D01*
X168755809Y-115816380D02*
X168660571Y-115816380D01*
X168565333Y-115864000D01*
X168517714Y-115911619D01*
X168470095Y-116006857D01*
X168422476Y-116197333D01*
X168422476Y-116435428D01*
X168470095Y-116625904D01*
X168517714Y-116721142D01*
X168565333Y-116768761D01*
X168660571Y-116816380D01*
X168755809Y-116816380D01*
X168851047Y-116768761D01*
X168898666Y-116721142D01*
X168946285Y-116625904D01*
X168993904Y-116435428D01*
X168993904Y-116197333D01*
X168946285Y-116006857D01*
X168898666Y-115911619D01*
X168851047Y-115864000D01*
X168755809Y-115816380D01*
G04 #@! TO.C,U5*
X191515904Y-83018380D02*
X191515904Y-83827904D01*
X191468285Y-83923142D01*
X191420666Y-83970761D01*
X191325428Y-84018380D01*
X191134952Y-84018380D01*
X191039714Y-83970761D01*
X190992095Y-83923142D01*
X190944476Y-83827904D01*
X190944476Y-83018380D01*
X189992095Y-83018380D02*
X190468285Y-83018380D01*
X190515904Y-83494571D01*
X190468285Y-83446952D01*
X190373047Y-83399333D01*
X190134952Y-83399333D01*
X190039714Y-83446952D01*
X189992095Y-83494571D01*
X189944476Y-83589809D01*
X189944476Y-83827904D01*
X189992095Y-83923142D01*
X190039714Y-83970761D01*
X190134952Y-84018380D01*
X190373047Y-84018380D01*
X190468285Y-83970761D01*
X190515904Y-83923142D01*
G04 #@! TO.C,Q1*
X154725619Y-120046761D02*
X154678000Y-119951523D01*
X154582761Y-119856285D01*
X154439904Y-119713428D01*
X154392285Y-119618190D01*
X154392285Y-119522952D01*
X154630380Y-119570571D02*
X154582761Y-119475333D01*
X154487523Y-119380095D01*
X154297047Y-119332476D01*
X153963714Y-119332476D01*
X153773238Y-119380095D01*
X153678000Y-119475333D01*
X153630380Y-119570571D01*
X153630380Y-119761047D01*
X153678000Y-119856285D01*
X153773238Y-119951523D01*
X153963714Y-119999142D01*
X154297047Y-119999142D01*
X154487523Y-119951523D01*
X154582761Y-119856285D01*
X154630380Y-119761047D01*
X154630380Y-119570571D01*
X154630380Y-120951523D02*
X154630380Y-120380095D01*
X154630380Y-120665809D02*
X153630380Y-120665809D01*
X153773238Y-120570571D01*
X153868476Y-120475333D01*
X153916095Y-120380095D01*
G04 #@! TO.C,Q2*
X150661619Y-120046761D02*
X150614000Y-119951523D01*
X150518761Y-119856285D01*
X150375904Y-119713428D01*
X150328285Y-119618190D01*
X150328285Y-119522952D01*
X150566380Y-119570571D02*
X150518761Y-119475333D01*
X150423523Y-119380095D01*
X150233047Y-119332476D01*
X149899714Y-119332476D01*
X149709238Y-119380095D01*
X149614000Y-119475333D01*
X149566380Y-119570571D01*
X149566380Y-119761047D01*
X149614000Y-119856285D01*
X149709238Y-119951523D01*
X149899714Y-119999142D01*
X150233047Y-119999142D01*
X150423523Y-119951523D01*
X150518761Y-119856285D01*
X150566380Y-119761047D01*
X150566380Y-119570571D01*
X149661619Y-120380095D02*
X149614000Y-120427714D01*
X149566380Y-120522952D01*
X149566380Y-120761047D01*
X149614000Y-120856285D01*
X149661619Y-120903904D01*
X149756857Y-120951523D01*
X149852095Y-120951523D01*
X149994952Y-120903904D01*
X150566380Y-120332476D01*
X150566380Y-120951523D01*
G04 #@! TO.C,D14*
X212415285Y-79319380D02*
X212415285Y-78319380D01*
X212177190Y-78319380D01*
X212034333Y-78367000D01*
X211939095Y-78462238D01*
X211891476Y-78557476D01*
X211843857Y-78747952D01*
X211843857Y-78890809D01*
X211891476Y-79081285D01*
X211939095Y-79176523D01*
X212034333Y-79271761D01*
X212177190Y-79319380D01*
X212415285Y-79319380D01*
X210891476Y-79319380D02*
X211462904Y-79319380D01*
X211177190Y-79319380D02*
X211177190Y-78319380D01*
X211272428Y-78462238D01*
X211367666Y-78557476D01*
X211462904Y-78605095D01*
X210034333Y-78652714D02*
X210034333Y-79319380D01*
X210272428Y-78271761D02*
X210510523Y-78986047D01*
X209891476Y-78986047D01*
G04 #@! TO.C,R46*
X211589857Y-87870380D02*
X211923190Y-87394190D01*
X212161285Y-87870380D02*
X212161285Y-86870380D01*
X211780333Y-86870380D01*
X211685095Y-86918000D01*
X211637476Y-86965619D01*
X211589857Y-87060857D01*
X211589857Y-87203714D01*
X211637476Y-87298952D01*
X211685095Y-87346571D01*
X211780333Y-87394190D01*
X212161285Y-87394190D01*
X210732714Y-87203714D02*
X210732714Y-87870380D01*
X210970809Y-86822761D02*
X211208904Y-87537047D01*
X210589857Y-87537047D01*
X209780333Y-86870380D02*
X209970809Y-86870380D01*
X210066047Y-86918000D01*
X210113666Y-86965619D01*
X210208904Y-87108476D01*
X210256523Y-87298952D01*
X210256523Y-87679904D01*
X210208904Y-87775142D01*
X210161285Y-87822761D01*
X210066047Y-87870380D01*
X209875571Y-87870380D01*
X209780333Y-87822761D01*
X209732714Y-87775142D01*
X209685095Y-87679904D01*
X209685095Y-87441809D01*
X209732714Y-87346571D01*
X209780333Y-87298952D01*
X209875571Y-87251333D01*
X210066047Y-87251333D01*
X210161285Y-87298952D01*
X210208904Y-87346571D01*
X210256523Y-87441809D01*
G04 #@! TO.C,J8*
X184483333Y-110914380D02*
X184483333Y-111628666D01*
X184530952Y-111771523D01*
X184626190Y-111866761D01*
X184769047Y-111914380D01*
X184864285Y-111914380D01*
X183864285Y-111342952D02*
X183959523Y-111295333D01*
X184007142Y-111247714D01*
X184054761Y-111152476D01*
X184054761Y-111104857D01*
X184007142Y-111009619D01*
X183959523Y-110962000D01*
X183864285Y-110914380D01*
X183673809Y-110914380D01*
X183578571Y-110962000D01*
X183530952Y-111009619D01*
X183483333Y-111104857D01*
X183483333Y-111152476D01*
X183530952Y-111247714D01*
X183578571Y-111295333D01*
X183673809Y-111342952D01*
X183864285Y-111342952D01*
X183959523Y-111390571D01*
X184007142Y-111438190D01*
X184054761Y-111533428D01*
X184054761Y-111723904D01*
X184007142Y-111819142D01*
X183959523Y-111866761D01*
X183864285Y-111914380D01*
X183673809Y-111914380D01*
X183578571Y-111866761D01*
X183530952Y-111819142D01*
X183483333Y-111723904D01*
X183483333Y-111533428D01*
X183530952Y-111438190D01*
X183578571Y-111390571D01*
X183673809Y-111342952D01*
G04 #@! TO.C,C7*
X197524666Y-94591142D02*
X197572285Y-94638761D01*
X197715142Y-94686380D01*
X197810380Y-94686380D01*
X197953238Y-94638761D01*
X198048476Y-94543523D01*
X198096095Y-94448285D01*
X198143714Y-94257809D01*
X198143714Y-94114952D01*
X198096095Y-93924476D01*
X198048476Y-93829238D01*
X197953238Y-93734000D01*
X197810380Y-93686380D01*
X197715142Y-93686380D01*
X197572285Y-93734000D01*
X197524666Y-93781619D01*
X197191333Y-93686380D02*
X196524666Y-93686380D01*
X196953238Y-94686380D01*
G04 #@! TO.C,C8*
X184570666Y-99925142D02*
X184618285Y-99972761D01*
X184761142Y-100020380D01*
X184856380Y-100020380D01*
X184999238Y-99972761D01*
X185094476Y-99877523D01*
X185142095Y-99782285D01*
X185189714Y-99591809D01*
X185189714Y-99448952D01*
X185142095Y-99258476D01*
X185094476Y-99163238D01*
X184999238Y-99068000D01*
X184856380Y-99020380D01*
X184761142Y-99020380D01*
X184618285Y-99068000D01*
X184570666Y-99115619D01*
X183999238Y-99448952D02*
X184094476Y-99401333D01*
X184142095Y-99353714D01*
X184189714Y-99258476D01*
X184189714Y-99210857D01*
X184142095Y-99115619D01*
X184094476Y-99068000D01*
X183999238Y-99020380D01*
X183808761Y-99020380D01*
X183713523Y-99068000D01*
X183665904Y-99115619D01*
X183618285Y-99210857D01*
X183618285Y-99258476D01*
X183665904Y-99353714D01*
X183713523Y-99401333D01*
X183808761Y-99448952D01*
X183999238Y-99448952D01*
X184094476Y-99496571D01*
X184142095Y-99544190D01*
X184189714Y-99639428D01*
X184189714Y-99829904D01*
X184142095Y-99925142D01*
X184094476Y-99972761D01*
X183999238Y-100020380D01*
X183808761Y-100020380D01*
X183713523Y-99972761D01*
X183665904Y-99925142D01*
X183618285Y-99829904D01*
X183618285Y-99639428D01*
X183665904Y-99544190D01*
X183713523Y-99496571D01*
X183808761Y-99448952D01*
G04 #@! TO.C,C9*
X101004666Y-116689142D02*
X101052285Y-116736761D01*
X101195142Y-116784380D01*
X101290380Y-116784380D01*
X101433238Y-116736761D01*
X101528476Y-116641523D01*
X101576095Y-116546285D01*
X101623714Y-116355809D01*
X101623714Y-116212952D01*
X101576095Y-116022476D01*
X101528476Y-115927238D01*
X101433238Y-115832000D01*
X101290380Y-115784380D01*
X101195142Y-115784380D01*
X101052285Y-115832000D01*
X101004666Y-115879619D01*
X100528476Y-116784380D02*
X100338000Y-116784380D01*
X100242761Y-116736761D01*
X100195142Y-116689142D01*
X100099904Y-116546285D01*
X100052285Y-116355809D01*
X100052285Y-115974857D01*
X100099904Y-115879619D01*
X100147523Y-115832000D01*
X100242761Y-115784380D01*
X100433238Y-115784380D01*
X100528476Y-115832000D01*
X100576095Y-115879619D01*
X100623714Y-115974857D01*
X100623714Y-116212952D01*
X100576095Y-116308190D01*
X100528476Y-116355809D01*
X100433238Y-116403428D01*
X100242761Y-116403428D01*
X100147523Y-116355809D01*
X100099904Y-116308190D01*
X100052285Y-116212952D01*
X96456452Y-114434928D02*
X95694547Y-114434928D01*
X96075500Y-114815880D02*
X96075500Y-114053976D01*
G04 #@! TD*
M02*
