G04 #@! TF.GenerationSoftware,KiCad,Pcbnew,5.0.2+dfsg1-1~bpo9+1*
G04 #@! TF.CreationDate,2019-09-09T21:32:31+02:00*
G04 #@! TF.ProjectId,frontpanel,66726f6e-7470-4616-9e65-6c2e6b696361,rev?*
G04 #@! TF.SameCoordinates,Original*
G04 #@! TF.FileFunction,Legend,Top*
G04 #@! TF.FilePolarity,Positive*
%FSLAX46Y46*%
G04 Gerber Fmt 4.6, Leading zero omitted, Abs format (unit mm)*
G04 Created by KiCad (PCBNEW 5.0.2+dfsg1-1~bpo9+1) date Mon 09 Sep 2019 09:32:31 PM CEST*
%MOMM*%
%LPD*%
G01*
G04 APERTURE LIST*
%ADD10C,0.150000*%
%ADD11C,0.300000*%
G04 APERTURE END LIST*
D10*
X81901309Y-39076380D02*
X81901309Y-39790666D01*
X81853690Y-39933523D01*
X81758452Y-40028761D01*
X81615595Y-40076380D01*
X81520357Y-40076380D01*
X82853690Y-40076380D02*
X82377500Y-40076380D01*
X82377500Y-39076380D01*
X83758452Y-39981142D02*
X83710833Y-40028761D01*
X83567976Y-40076380D01*
X83472738Y-40076380D01*
X83329880Y-40028761D01*
X83234642Y-39933523D01*
X83187023Y-39838285D01*
X83139404Y-39647809D01*
X83139404Y-39504952D01*
X83187023Y-39314476D01*
X83234642Y-39219238D01*
X83329880Y-39124000D01*
X83472738Y-39076380D01*
X83567976Y-39076380D01*
X83710833Y-39124000D01*
X83758452Y-39171619D01*
X84472738Y-39076380D02*
X84472738Y-39790666D01*
X84425119Y-39933523D01*
X84329880Y-40028761D01*
X84187023Y-40076380D01*
X84091785Y-40076380D01*
X85425119Y-40076380D02*
X84948928Y-40076380D01*
X84948928Y-39076380D01*
X86329880Y-39981142D02*
X86282261Y-40028761D01*
X86139404Y-40076380D01*
X86044166Y-40076380D01*
X85901309Y-40028761D01*
X85806071Y-39933523D01*
X85758452Y-39838285D01*
X85710833Y-39647809D01*
X85710833Y-39504952D01*
X85758452Y-39314476D01*
X85806071Y-39219238D01*
X85901309Y-39124000D01*
X86044166Y-39076380D01*
X86139404Y-39076380D01*
X86282261Y-39124000D01*
X86329880Y-39171619D01*
X87044166Y-39076380D02*
X87044166Y-39790666D01*
X86996547Y-39933523D01*
X86901309Y-40028761D01*
X86758452Y-40076380D01*
X86663214Y-40076380D01*
X87996547Y-40076380D02*
X87520357Y-40076380D01*
X87520357Y-39076380D01*
X88901309Y-39981142D02*
X88853690Y-40028761D01*
X88710833Y-40076380D01*
X88615595Y-40076380D01*
X88472738Y-40028761D01*
X88377500Y-39933523D01*
X88329880Y-39838285D01*
X88282261Y-39647809D01*
X88282261Y-39504952D01*
X88329880Y-39314476D01*
X88377500Y-39219238D01*
X88472738Y-39124000D01*
X88615595Y-39076380D01*
X88710833Y-39076380D01*
X88853690Y-39124000D01*
X88901309Y-39171619D01*
X89615595Y-39076380D02*
X89615595Y-39790666D01*
X89567976Y-39933523D01*
X89472738Y-40028761D01*
X89329880Y-40076380D01*
X89234642Y-40076380D01*
X90567976Y-40076380D02*
X90091785Y-40076380D01*
X90091785Y-39076380D01*
X91472738Y-39981142D02*
X91425119Y-40028761D01*
X91282261Y-40076380D01*
X91187023Y-40076380D01*
X91044166Y-40028761D01*
X90948928Y-39933523D01*
X90901309Y-39838285D01*
X90853690Y-39647809D01*
X90853690Y-39504952D01*
X90901309Y-39314476D01*
X90948928Y-39219238D01*
X91044166Y-39124000D01*
X91187023Y-39076380D01*
X91282261Y-39076380D01*
X91425119Y-39124000D01*
X91472738Y-39171619D01*
D11*
X80855857Y-32193571D02*
X81713000Y-32193571D01*
X81284428Y-33693571D02*
X81284428Y-32193571D01*
X82427285Y-33693571D02*
X82284428Y-33622142D01*
X82213000Y-33550714D01*
X82141571Y-33407857D01*
X82141571Y-32979285D01*
X82213000Y-32836428D01*
X82284428Y-32765000D01*
X82427285Y-32693571D01*
X82641571Y-32693571D01*
X82784428Y-32765000D01*
X82855857Y-32836428D01*
X82927285Y-32979285D01*
X82927285Y-33407857D01*
X82855857Y-33550714D01*
X82784428Y-33622142D01*
X82641571Y-33693571D01*
X82427285Y-33693571D01*
X83570142Y-33693571D02*
X83570142Y-32693571D01*
X83570142Y-32836428D02*
X83641571Y-32765000D01*
X83784428Y-32693571D01*
X83998714Y-32693571D01*
X84141571Y-32765000D01*
X84213000Y-32907857D01*
X84213000Y-33693571D01*
X84213000Y-32907857D02*
X84284428Y-32765000D01*
X84427285Y-32693571D01*
X84641571Y-32693571D01*
X84784428Y-32765000D01*
X84855857Y-32907857D01*
X84855857Y-33693571D01*
X86213000Y-33693571D02*
X86213000Y-32907857D01*
X86141571Y-32765000D01*
X85998714Y-32693571D01*
X85713000Y-32693571D01*
X85570142Y-32765000D01*
X86213000Y-33622142D02*
X86070142Y-33693571D01*
X85713000Y-33693571D01*
X85570142Y-33622142D01*
X85498714Y-33479285D01*
X85498714Y-33336428D01*
X85570142Y-33193571D01*
X85713000Y-33122142D01*
X86070142Y-33122142D01*
X86213000Y-33050714D01*
X86927285Y-33693571D02*
X86927285Y-32693571D01*
X86927285Y-32979285D02*
X86998714Y-32836428D01*
X87070142Y-32765000D01*
X87213000Y-32693571D01*
X87355857Y-32693571D01*
X88498714Y-32693571D02*
X88498714Y-33693571D01*
X87855857Y-32693571D02*
X87855857Y-33479285D01*
X87927285Y-33622142D01*
X88070142Y-33693571D01*
X88284428Y-33693571D01*
X88427285Y-33622142D01*
X88498714Y-33550714D01*
X89141571Y-33622142D02*
X89284428Y-33693571D01*
X89570142Y-33693571D01*
X89713000Y-33622142D01*
X89784428Y-33479285D01*
X89784428Y-33407857D01*
X89713000Y-33265000D01*
X89570142Y-33193571D01*
X89355857Y-33193571D01*
X89213000Y-33122142D01*
X89141571Y-32979285D01*
X89141571Y-32907857D01*
X89213000Y-32765000D01*
X89355857Y-32693571D01*
X89570142Y-32693571D01*
X89713000Y-32765000D01*
X91498714Y-33622142D02*
X91713000Y-33693571D01*
X92070142Y-33693571D01*
X92213000Y-33622142D01*
X92284428Y-33550714D01*
X92355857Y-33407857D01*
X92355857Y-33265000D01*
X92284428Y-33122142D01*
X92213000Y-33050714D01*
X92070142Y-32979285D01*
X91784428Y-32907857D01*
X91641571Y-32836428D01*
X91570142Y-32765000D01*
X91498714Y-32622142D01*
X91498714Y-32479285D01*
X91570142Y-32336428D01*
X91641571Y-32265000D01*
X91784428Y-32193571D01*
X92141571Y-32193571D01*
X92355857Y-32265000D01*
X93570142Y-33622142D02*
X93427285Y-33693571D01*
X93141571Y-33693571D01*
X92998714Y-33622142D01*
X92927285Y-33479285D01*
X92927285Y-32907857D01*
X92998714Y-32765000D01*
X93141571Y-32693571D01*
X93427285Y-32693571D01*
X93570142Y-32765000D01*
X93641571Y-32907857D01*
X93641571Y-33050714D01*
X92927285Y-33193571D01*
X94927285Y-32693571D02*
X94927285Y-34193571D01*
X94927285Y-33622142D02*
X94784428Y-33693571D01*
X94498714Y-33693571D01*
X94355857Y-33622142D01*
X94284428Y-33550714D01*
X94213000Y-33407857D01*
X94213000Y-32979285D01*
X94284428Y-32836428D01*
X94355857Y-32765000D01*
X94498714Y-32693571D01*
X94784428Y-32693571D01*
X94927285Y-32765000D01*
X96284428Y-32693571D02*
X96284428Y-33693571D01*
X95641571Y-32693571D02*
X95641571Y-33479285D01*
X95713000Y-33622142D01*
X95855857Y-33693571D01*
X96070142Y-33693571D01*
X96213000Y-33622142D01*
X96284428Y-33550714D01*
X97570142Y-33622142D02*
X97427285Y-33693571D01*
X97141571Y-33693571D01*
X96998714Y-33622142D01*
X96927285Y-33479285D01*
X96927285Y-32907857D01*
X96998714Y-32765000D01*
X97141571Y-32693571D01*
X97427285Y-32693571D01*
X97570142Y-32765000D01*
X97641571Y-32907857D01*
X97641571Y-33050714D01*
X96927285Y-33193571D01*
X98284428Y-32693571D02*
X98284428Y-33693571D01*
X98284428Y-32836428D02*
X98355857Y-32765000D01*
X98498714Y-32693571D01*
X98713000Y-32693571D01*
X98855857Y-32765000D01*
X98927285Y-32907857D01*
X98927285Y-33693571D01*
X100284428Y-33622142D02*
X100141571Y-33693571D01*
X99855857Y-33693571D01*
X99713000Y-33622142D01*
X99641571Y-33550714D01*
X99570142Y-33407857D01*
X99570142Y-32979285D01*
X99641571Y-32836428D01*
X99713000Y-32765000D01*
X99855857Y-32693571D01*
X100141571Y-32693571D01*
X100284428Y-32765000D01*
X101498714Y-33622142D02*
X101355857Y-33693571D01*
X101070142Y-33693571D01*
X100927285Y-33622142D01*
X100855857Y-33479285D01*
X100855857Y-32907857D01*
X100927285Y-32765000D01*
X101070142Y-32693571D01*
X101355857Y-32693571D01*
X101498714Y-32765000D01*
X101570142Y-32907857D01*
X101570142Y-33050714D01*
X100855857Y-33193571D01*
X102213000Y-33693571D02*
X102213000Y-32693571D01*
X102213000Y-32979285D02*
X102284428Y-32836428D01*
X102355857Y-32765000D01*
X102498714Y-32693571D01*
X102641571Y-32693571D01*
X104141571Y-32693571D02*
X104498714Y-33693571D01*
X104855857Y-32693571D01*
X106213000Y-33693571D02*
X105355857Y-33693571D01*
X105784428Y-33693571D02*
X105784428Y-32193571D01*
X105641571Y-32407857D01*
X105498714Y-32550714D01*
X105355857Y-32622142D01*
X106855857Y-33550714D02*
X106927285Y-33622142D01*
X106855857Y-33693571D01*
X106784428Y-33622142D01*
X106855857Y-33550714D01*
X106855857Y-33693571D01*
X107855857Y-32193571D02*
X107998714Y-32193571D01*
X108141571Y-32265000D01*
X108213000Y-32336428D01*
X108284428Y-32479285D01*
X108355857Y-32765000D01*
X108355857Y-33122142D01*
X108284428Y-33407857D01*
X108213000Y-33550714D01*
X108141571Y-33622142D01*
X107998714Y-33693571D01*
X107855857Y-33693571D01*
X107713000Y-33622142D01*
X107641571Y-33550714D01*
X107570142Y-33407857D01*
X107498714Y-33122142D01*
X107498714Y-32765000D01*
X107570142Y-32479285D01*
X107641571Y-32336428D01*
X107713000Y-32265000D01*
X107855857Y-32193571D01*
X110641571Y-32907857D02*
X110141571Y-32907857D01*
X110141571Y-33693571D02*
X110141571Y-32193571D01*
X110855857Y-32193571D01*
X111427285Y-33693571D02*
X111427285Y-32693571D01*
X111427285Y-32979285D02*
X111498714Y-32836428D01*
X111570142Y-32765000D01*
X111713000Y-32693571D01*
X111855857Y-32693571D01*
X112570142Y-33693571D02*
X112427285Y-33622142D01*
X112355857Y-33550714D01*
X112284428Y-33407857D01*
X112284428Y-32979285D01*
X112355857Y-32836428D01*
X112427285Y-32765000D01*
X112570142Y-32693571D01*
X112784428Y-32693571D01*
X112927285Y-32765000D01*
X112998714Y-32836428D01*
X113070142Y-32979285D01*
X113070142Y-33407857D01*
X112998714Y-33550714D01*
X112927285Y-33622142D01*
X112784428Y-33693571D01*
X112570142Y-33693571D01*
X113713000Y-32693571D02*
X113713000Y-33693571D01*
X113713000Y-32836428D02*
X113784428Y-32765000D01*
X113927285Y-32693571D01*
X114141571Y-32693571D01*
X114284428Y-32765000D01*
X114355857Y-32907857D01*
X114355857Y-33693571D01*
X114855857Y-32693571D02*
X115427285Y-32693571D01*
X115070142Y-32193571D02*
X115070142Y-33479285D01*
X115141571Y-33622142D01*
X115284428Y-33693571D01*
X115427285Y-33693571D01*
X115927285Y-32693571D02*
X115927285Y-34193571D01*
X115927285Y-32765000D02*
X116070142Y-32693571D01*
X116355857Y-32693571D01*
X116498714Y-32765000D01*
X116570142Y-32836428D01*
X116641571Y-32979285D01*
X116641571Y-33407857D01*
X116570142Y-33550714D01*
X116498714Y-33622142D01*
X116355857Y-33693571D01*
X116070142Y-33693571D01*
X115927285Y-33622142D01*
X117927285Y-33693571D02*
X117927285Y-32907857D01*
X117855857Y-32765000D01*
X117713000Y-32693571D01*
X117427285Y-32693571D01*
X117284428Y-32765000D01*
X117927285Y-33622142D02*
X117784428Y-33693571D01*
X117427285Y-33693571D01*
X117284428Y-33622142D01*
X117213000Y-33479285D01*
X117213000Y-33336428D01*
X117284428Y-33193571D01*
X117427285Y-33122142D01*
X117784428Y-33122142D01*
X117927285Y-33050714D01*
X118641571Y-32693571D02*
X118641571Y-33693571D01*
X118641571Y-32836428D02*
X118713000Y-32765000D01*
X118855857Y-32693571D01*
X119070142Y-32693571D01*
X119213000Y-32765000D01*
X119284428Y-32907857D01*
X119284428Y-33693571D01*
X120570142Y-33622142D02*
X120427285Y-33693571D01*
X120141571Y-33693571D01*
X119998714Y-33622142D01*
X119927285Y-33479285D01*
X119927285Y-32907857D01*
X119998714Y-32765000D01*
X120141571Y-32693571D01*
X120427285Y-32693571D01*
X120570142Y-32765000D01*
X120641571Y-32907857D01*
X120641571Y-33050714D01*
X119927285Y-33193571D01*
X121498714Y-33693571D02*
X121355857Y-33622142D01*
X121284428Y-33479285D01*
X121284428Y-32193571D01*
X81713000Y-35243571D02*
X81713000Y-36457857D01*
X81641571Y-36600714D01*
X81570142Y-36672142D01*
X81427285Y-36743571D01*
X81213000Y-36743571D01*
X81070142Y-36672142D01*
X81713000Y-36172142D02*
X81570142Y-36243571D01*
X81284428Y-36243571D01*
X81141571Y-36172142D01*
X81070142Y-36100714D01*
X80998714Y-35957857D01*
X80998714Y-35529285D01*
X81070142Y-35386428D01*
X81141571Y-35315000D01*
X81284428Y-35243571D01*
X81570142Y-35243571D01*
X81713000Y-35315000D01*
X82427285Y-36243571D02*
X82427285Y-35243571D01*
X82427285Y-34743571D02*
X82355857Y-34815000D01*
X82427285Y-34886428D01*
X82498714Y-34815000D01*
X82427285Y-34743571D01*
X82427285Y-34886428D01*
X82927285Y-35243571D02*
X83498714Y-35243571D01*
X83141571Y-34743571D02*
X83141571Y-36029285D01*
X83213000Y-36172142D01*
X83355857Y-36243571D01*
X83498714Y-36243571D01*
X83998714Y-36243571D02*
X83998714Y-34743571D01*
X84641571Y-36243571D02*
X84641571Y-35457857D01*
X84570142Y-35315000D01*
X84427285Y-35243571D01*
X84213000Y-35243571D01*
X84070142Y-35315000D01*
X83998714Y-35386428D01*
X85998714Y-35243571D02*
X85998714Y-36243571D01*
X85355857Y-35243571D02*
X85355857Y-36029285D01*
X85427285Y-36172142D01*
X85570142Y-36243571D01*
X85784428Y-36243571D01*
X85927285Y-36172142D01*
X85998714Y-36100714D01*
X86713000Y-36243571D02*
X86713000Y-34743571D01*
X86713000Y-35315000D02*
X86855857Y-35243571D01*
X87141571Y-35243571D01*
X87284428Y-35315000D01*
X87355857Y-35386428D01*
X87427285Y-35529285D01*
X87427285Y-35957857D01*
X87355857Y-36100714D01*
X87284428Y-36172142D01*
X87141571Y-36243571D01*
X86855857Y-36243571D01*
X86713000Y-36172142D01*
X88070142Y-36100714D02*
X88141571Y-36172142D01*
X88070142Y-36243571D01*
X87998714Y-36172142D01*
X88070142Y-36100714D01*
X88070142Y-36243571D01*
X89427285Y-36172142D02*
X89284428Y-36243571D01*
X88998714Y-36243571D01*
X88855857Y-36172142D01*
X88784428Y-36100714D01*
X88713000Y-35957857D01*
X88713000Y-35529285D01*
X88784428Y-35386428D01*
X88855857Y-35315000D01*
X88998714Y-35243571D01*
X89284428Y-35243571D01*
X89427285Y-35315000D01*
X90284428Y-36243571D02*
X90141571Y-36172142D01*
X90070142Y-36100714D01*
X89998714Y-35957857D01*
X89998714Y-35529285D01*
X90070142Y-35386428D01*
X90141571Y-35315000D01*
X90284428Y-35243571D01*
X90498714Y-35243571D01*
X90641571Y-35315000D01*
X90713000Y-35386428D01*
X90784428Y-35529285D01*
X90784428Y-35957857D01*
X90713000Y-36100714D01*
X90641571Y-36172142D01*
X90498714Y-36243571D01*
X90284428Y-36243571D01*
X91427285Y-36243571D02*
X91427285Y-35243571D01*
X91427285Y-35386428D02*
X91498714Y-35315000D01*
X91641571Y-35243571D01*
X91855857Y-35243571D01*
X91998714Y-35315000D01*
X92070142Y-35457857D01*
X92070142Y-36243571D01*
X92070142Y-35457857D02*
X92141571Y-35315000D01*
X92284428Y-35243571D01*
X92498714Y-35243571D01*
X92641571Y-35315000D01*
X92713000Y-35457857D01*
X92713000Y-36243571D01*
X94498714Y-34672142D02*
X93213000Y-36600714D01*
X94784428Y-35243571D02*
X95355857Y-35243571D01*
X94998714Y-34743571D02*
X94998714Y-36029285D01*
X95070142Y-36172142D01*
X95213000Y-36243571D01*
X95355857Y-36243571D01*
X96070142Y-36243571D02*
X95927285Y-36172142D01*
X95855857Y-36100714D01*
X95784428Y-35957857D01*
X95784428Y-35529285D01*
X95855857Y-35386428D01*
X95927285Y-35315000D01*
X96070142Y-35243571D01*
X96284428Y-35243571D01*
X96427285Y-35315000D01*
X96498714Y-35386428D01*
X96570142Y-35529285D01*
X96570142Y-35957857D01*
X96498714Y-36100714D01*
X96427285Y-36172142D01*
X96284428Y-36243571D01*
X96070142Y-36243571D01*
X97213000Y-36243571D02*
X97213000Y-35243571D01*
X97213000Y-35386428D02*
X97284428Y-35315000D01*
X97427285Y-35243571D01*
X97641571Y-35243571D01*
X97784428Y-35315000D01*
X97855857Y-35457857D01*
X97855857Y-36243571D01*
X97855857Y-35457857D02*
X97927285Y-35315000D01*
X98070142Y-35243571D01*
X98284428Y-35243571D01*
X98427285Y-35315000D01*
X98498714Y-35457857D01*
X98498714Y-36243571D01*
X99855857Y-36243571D02*
X99855857Y-35457857D01*
X99784428Y-35315000D01*
X99641571Y-35243571D01*
X99355857Y-35243571D01*
X99213000Y-35315000D01*
X99855857Y-36172142D02*
X99713000Y-36243571D01*
X99355857Y-36243571D01*
X99213000Y-36172142D01*
X99141571Y-36029285D01*
X99141571Y-35886428D01*
X99213000Y-35743571D01*
X99355857Y-35672142D01*
X99713000Y-35672142D01*
X99855857Y-35600714D01*
X100570142Y-36243571D02*
X100570142Y-35243571D01*
X100570142Y-35529285D02*
X100641571Y-35386428D01*
X100713000Y-35315000D01*
X100855857Y-35243571D01*
X100998714Y-35243571D01*
X102141571Y-35243571D02*
X102141571Y-36243571D01*
X101498714Y-35243571D02*
X101498714Y-36029285D01*
X101570142Y-36172142D01*
X101713000Y-36243571D01*
X101927285Y-36243571D01*
X102070142Y-36172142D01*
X102141571Y-36100714D01*
X102784428Y-36172142D02*
X102927285Y-36243571D01*
X103213000Y-36243571D01*
X103355857Y-36172142D01*
X103427285Y-36029285D01*
X103427285Y-35957857D01*
X103355857Y-35815000D01*
X103213000Y-35743571D01*
X102998714Y-35743571D01*
X102855857Y-35672142D01*
X102784428Y-35529285D01*
X102784428Y-35457857D01*
X102855857Y-35315000D01*
X102998714Y-35243571D01*
X103213000Y-35243571D01*
X103355857Y-35315000D01*
X105141571Y-34672142D02*
X103855857Y-36600714D01*
X106284428Y-36243571D02*
X106284428Y-34743571D01*
X106284428Y-36172142D02*
X106141571Y-36243571D01*
X105855857Y-36243571D01*
X105713000Y-36172142D01*
X105641571Y-36100714D01*
X105570142Y-35957857D01*
X105570142Y-35529285D01*
X105641571Y-35386428D01*
X105713000Y-35315000D01*
X105855857Y-35243571D01*
X106141571Y-35243571D01*
X106284428Y-35315000D01*
X106998714Y-36243571D02*
X106998714Y-35243571D01*
X106998714Y-34743571D02*
X106927285Y-34815000D01*
X106998714Y-34886428D01*
X107070142Y-34815000D01*
X106998714Y-34743571D01*
X106998714Y-34886428D01*
X107570142Y-35243571D02*
X107927285Y-36243571D01*
X108284428Y-35243571D02*
X107927285Y-36243571D01*
X107784428Y-36600714D01*
X107713000Y-36672142D01*
X107570142Y-36743571D01*
X108855857Y-36243571D02*
X108855857Y-35243571D01*
X108855857Y-35386428D02*
X108927285Y-35315000D01*
X109070142Y-35243571D01*
X109284428Y-35243571D01*
X109427285Y-35315000D01*
X109498714Y-35457857D01*
X109498714Y-36243571D01*
X109498714Y-35457857D02*
X109570142Y-35315000D01*
X109713000Y-35243571D01*
X109927285Y-35243571D01*
X110070142Y-35315000D01*
X110141571Y-35457857D01*
X110141571Y-36243571D01*
X111427285Y-36172142D02*
X111284428Y-36243571D01*
X110998714Y-36243571D01*
X110855857Y-36172142D01*
X110784428Y-36029285D01*
X110784428Y-35457857D01*
X110855857Y-35315000D01*
X110998714Y-35243571D01*
X111284428Y-35243571D01*
X111427285Y-35315000D01*
X111498714Y-35457857D01*
X111498714Y-35600714D01*
X110784428Y-35743571D01*
X111927285Y-35243571D02*
X112498714Y-35243571D01*
X112141571Y-34743571D02*
X112141571Y-36029285D01*
X112213000Y-36172142D01*
X112355857Y-36243571D01*
X112498714Y-36243571D01*
X112998714Y-36243571D02*
X112998714Y-35243571D01*
X112998714Y-35529285D02*
X113070142Y-35386428D01*
X113141571Y-35315000D01*
X113284428Y-35243571D01*
X113427285Y-35243571D01*
X114141571Y-36243571D02*
X113998714Y-36172142D01*
X113927285Y-36100714D01*
X113855857Y-35957857D01*
X113855857Y-35529285D01*
X113927285Y-35386428D01*
X113998714Y-35315000D01*
X114141571Y-35243571D01*
X114355857Y-35243571D01*
X114498714Y-35315000D01*
X114570142Y-35386428D01*
X114641571Y-35529285D01*
X114641571Y-35957857D01*
X114570142Y-36100714D01*
X114498714Y-36172142D01*
X114355857Y-36243571D01*
X114141571Y-36243571D01*
M02*
