G04 #@! TF.GenerationSoftware,KiCad,Pcbnew,5.0.2+dfsg1-1~bpo9+1*
G04 #@! TF.CreationDate,2019-09-09T21:32:31+02:00*
G04 #@! TF.ProjectId,frontpanel,66726f6e-7470-4616-9e65-6c2e6b696361,rev?*
G04 #@! TF.SameCoordinates,Original*
G04 #@! TF.FileFunction,Profile,NP*
%FSLAX46Y46*%
G04 Gerber Fmt 4.6, Leading zero omitted, Abs format (unit mm)*
G04 Created by KiCad (PCBNEW 5.0.2+dfsg1-1~bpo9+1) date Mon 09 Sep 2019 09:32:31 PM CEST*
%MOMM*%
%LPD*%
G01*
G04 APERTURE LIST*
%ADD10C,0.200000*%
G04 APERTURE END LIST*
D10*
X72019690Y-29951000D02*
X71792420Y-30397000D01*
X72098000Y-29457000D02*
X72019690Y-29951000D01*
X72019690Y-28962000D02*
X72098000Y-29457000D01*
X71792420Y-28516000D02*
X72019690Y-28962000D01*
X71438450Y-28162000D02*
X71792420Y-28516000D01*
X70992420Y-27935000D02*
X71438450Y-28162000D01*
X70497990Y-27856000D02*
X70992420Y-27935000D01*
X68618000Y-27856000D02*
X70497990Y-27856000D01*
X68123570Y-27935000D02*
X68618000Y-27856000D01*
X67677540Y-28162000D02*
X68123570Y-27935000D01*
X67323570Y-28516000D02*
X67677540Y-28162000D01*
X67096300Y-28962000D02*
X67323570Y-28516000D01*
X67017990Y-29457000D02*
X67096300Y-28962000D01*
X67096300Y-29951000D02*
X67017990Y-29457000D01*
X67323570Y-30397000D02*
X67096300Y-29951000D01*
X200338000Y-107294000D02*
X200838000Y-106794000D01*
X160838000Y-107294000D02*
X160338000Y-106794000D01*
X160838000Y-106794000D02*
X160338000Y-107294000D01*
X160338000Y-106794000D02*
X160838000Y-107294000D01*
X160338000Y-107294000D02*
X160838000Y-106794000D01*
X120838000Y-107294000D02*
X120338000Y-106794000D01*
X120838000Y-106794000D02*
X120338000Y-107294000D01*
X120338000Y-106794000D02*
X120838000Y-107294000D01*
X120338000Y-107294000D02*
X120838000Y-106794000D01*
X140838000Y-107294000D02*
X140338000Y-106794000D01*
X140838000Y-106794000D02*
X140338000Y-107294000D01*
X140338000Y-106794000D02*
X140838000Y-107294000D01*
X140338000Y-107294000D02*
X140838000Y-106794000D01*
X220838000Y-107294000D02*
X220338000Y-106794000D01*
X220838000Y-106794000D02*
X220338000Y-107294000D01*
X64478000Y-154544000D02*
X237198000Y-154544000D01*
X64478000Y-26044000D02*
X64478000Y-154544000D01*
X200338000Y-63294000D02*
X200838000Y-62794000D01*
X180838000Y-63294000D02*
X180338000Y-62794000D01*
X180838000Y-62794000D02*
X180338000Y-63294000D01*
X180338000Y-62794000D02*
X180838000Y-63294000D01*
X180338000Y-63294000D02*
X180838000Y-62794000D01*
X120338000Y-63294000D02*
X120838000Y-62794000D01*
X120838000Y-63294000D02*
X120338000Y-62794000D01*
X120838000Y-62794000D02*
X120338000Y-63294000D01*
X120338000Y-62794000D02*
X120838000Y-63294000D01*
X200838000Y-45294000D02*
X200338000Y-44794000D01*
X200838000Y-44794000D02*
X200338000Y-45294000D01*
X200338000Y-44794000D02*
X200838000Y-45294000D01*
X200338000Y-45294000D02*
X200838000Y-44794000D01*
X80838000Y-45294000D02*
X80338000Y-44794000D01*
X80838000Y-44794000D02*
X80338000Y-45294000D01*
X180838000Y-107294000D02*
X180338000Y-106794000D01*
X180838000Y-106794000D02*
X180338000Y-107294000D01*
X180338000Y-106794000D02*
X180838000Y-107294000D01*
X180338000Y-107294000D02*
X180838000Y-106794000D01*
X100838000Y-107294000D02*
X100338000Y-106794000D01*
X100838000Y-106794000D02*
X100338000Y-107294000D01*
X100338000Y-106794000D02*
X100838000Y-107294000D01*
X100338000Y-107294000D02*
X100838000Y-106794000D01*
X80838000Y-107294000D02*
X80338000Y-106794000D01*
X80838000Y-106794000D02*
X80338000Y-107294000D01*
X80338000Y-106794000D02*
X80838000Y-107294000D01*
X80338000Y-107294000D02*
X80838000Y-106794000D01*
X200838000Y-107294000D02*
X200338000Y-106794000D01*
X200838000Y-106794000D02*
X200338000Y-107294000D01*
X200338000Y-106794000D02*
X200838000Y-107294000D01*
X67677540Y-30751000D02*
X67323570Y-30397000D01*
X68123570Y-30978000D02*
X67677540Y-30751000D01*
X68618000Y-31056000D02*
X68123570Y-30978000D01*
X232118000Y-31056000D02*
X230238000Y-31056000D01*
X232612000Y-30978000D02*
X232118000Y-31056000D01*
X233058000Y-30751000D02*
X232612000Y-30978000D01*
X233412000Y-30397000D02*
X233058000Y-30751000D01*
X233640000Y-29951000D02*
X233412000Y-30397000D01*
X233718000Y-29457000D02*
X233640000Y-29951000D01*
X233640000Y-28962000D02*
X233718000Y-29457000D01*
X233412000Y-28516000D02*
X233640000Y-28962000D01*
X233058000Y-28162000D02*
X233412000Y-28516000D01*
X232612000Y-27935000D02*
X233058000Y-28162000D01*
X232118000Y-27856000D02*
X232612000Y-27935000D01*
X230238000Y-27856000D02*
X232118000Y-27856000D01*
X229744000Y-27935000D02*
X230238000Y-27856000D01*
X232612000Y-149609810D02*
X233058000Y-149837080D01*
X232118000Y-149531500D02*
X232612000Y-149609810D01*
X230238000Y-149531500D02*
X232118000Y-149531500D01*
X229744000Y-149609810D02*
X230238000Y-149531500D01*
X229298000Y-149837080D02*
X229744000Y-149609810D01*
X228944000Y-150191050D02*
X229298000Y-149837080D01*
X228716000Y-150637080D02*
X228944000Y-150191050D01*
X228638000Y-151131510D02*
X228716000Y-150637080D01*
X228716000Y-151625940D02*
X228638000Y-151131510D01*
X228944000Y-152071970D02*
X228716000Y-151625940D01*
X229298000Y-152425930D02*
X228944000Y-152071970D01*
X229744000Y-152653190D02*
X229298000Y-152425930D01*
X230238000Y-152731500D02*
X229744000Y-152653190D01*
X200838000Y-129294000D02*
X200338000Y-128794000D01*
X200838000Y-128794000D02*
X200338000Y-129294000D01*
X140838000Y-44794000D02*
X140338000Y-45294000D01*
X140338000Y-44794000D02*
X140838000Y-45294000D01*
X140338000Y-45294000D02*
X140838000Y-44794000D01*
X100838000Y-45294000D02*
X100338000Y-44794000D01*
X100838000Y-44794000D02*
X100338000Y-45294000D01*
X100338000Y-44794000D02*
X100838000Y-45294000D01*
X100338000Y-45294000D02*
X100838000Y-44794000D01*
X220838000Y-45294000D02*
X220338000Y-44794000D01*
X220838000Y-44794000D02*
X220338000Y-45294000D01*
X220338000Y-44794000D02*
X220838000Y-45294000D01*
X220338000Y-45294000D02*
X220838000Y-44794000D01*
X70497990Y-31056000D02*
X68618000Y-31056000D01*
X70992420Y-30978000D02*
X70497990Y-31056000D01*
X71438450Y-30751000D02*
X70992420Y-30978000D01*
X71792420Y-30397000D02*
X71438450Y-30751000D01*
X220338000Y-106794000D02*
X220838000Y-107294000D01*
X220338000Y-107294000D02*
X220838000Y-106794000D01*
X200838000Y-85294000D02*
X200338000Y-84794000D01*
X200838000Y-84794000D02*
X200338000Y-85294000D01*
X200338000Y-84794000D02*
X200838000Y-85294000D01*
X200338000Y-85294000D02*
X200838000Y-84794000D01*
X100338000Y-85294000D02*
X100838000Y-84794000D01*
X100838000Y-85294000D02*
X100338000Y-84794000D01*
X100838000Y-84794000D02*
X100338000Y-85294000D01*
X100338000Y-84794000D02*
X100838000Y-85294000D01*
X80838000Y-85294000D02*
X80338000Y-84794000D01*
X80838000Y-84794000D02*
X80338000Y-85294000D01*
X80338000Y-84794000D02*
X80838000Y-85294000D01*
X80338000Y-85294000D02*
X80838000Y-84794000D01*
X160838000Y-85294000D02*
X160338000Y-84794000D01*
X229298000Y-28162000D02*
X229744000Y-27935000D01*
X228944000Y-28516000D02*
X229298000Y-28162000D01*
X228716000Y-28962000D02*
X228944000Y-28516000D01*
X228638000Y-29457000D02*
X228716000Y-28962000D01*
X228716000Y-29951000D02*
X228638000Y-29457000D01*
X230238000Y-31056000D02*
X229744000Y-30978000D01*
X237198000Y-154544000D02*
X237198000Y-26044000D01*
X228944000Y-30397000D02*
X228716000Y-29951000D01*
X229298000Y-30751000D02*
X228944000Y-30397000D01*
X229744000Y-30978000D02*
X229298000Y-30751000D01*
X100838000Y-128794000D02*
X100338000Y-129294000D01*
X100338000Y-128794000D02*
X100838000Y-129294000D01*
X100338000Y-129294000D02*
X100838000Y-128794000D01*
X80838000Y-129294000D02*
X80338000Y-128794000D01*
X80838000Y-128794000D02*
X80338000Y-129294000D01*
X80338000Y-128794000D02*
X80838000Y-129294000D01*
X80338000Y-129294000D02*
X80838000Y-128794000D01*
X120838000Y-129294000D02*
X120338000Y-128794000D01*
X120838000Y-128794000D02*
X120338000Y-129294000D01*
X120338000Y-128794000D02*
X120838000Y-129294000D01*
X120338000Y-129294000D02*
X120838000Y-128794000D01*
X220838000Y-129294000D02*
X220338000Y-128794000D01*
X220838000Y-128794000D02*
X220338000Y-129294000D01*
X220338000Y-128794000D02*
X220838000Y-129294000D01*
X220338000Y-129294000D02*
X220838000Y-128794000D01*
X70992420Y-152653190D02*
X70497990Y-152731500D01*
X71438450Y-152425930D02*
X70992420Y-152653190D01*
X71792420Y-152071970D02*
X71438450Y-152425930D01*
X72019690Y-151625940D02*
X71792420Y-152071970D01*
X72098000Y-151131510D02*
X72019690Y-151625940D01*
X72019690Y-150637080D02*
X72098000Y-151131510D01*
X71792420Y-150191050D02*
X72019690Y-150637080D01*
X71438450Y-149837080D02*
X71792420Y-150191050D01*
X70992420Y-149609810D02*
X71438450Y-149837080D01*
X70497990Y-149531500D02*
X70992420Y-149609810D01*
X68618000Y-149531500D02*
X70497990Y-149531500D01*
X68123570Y-149609810D02*
X68618000Y-149531500D01*
X67677540Y-149837080D02*
X68123570Y-149609810D01*
X67323570Y-150191050D02*
X67677540Y-149837080D01*
X67096300Y-150637080D02*
X67323570Y-150191050D01*
X140338000Y-85294000D02*
X140838000Y-84794000D01*
X140838000Y-85294000D02*
X140338000Y-84794000D01*
X140838000Y-84794000D02*
X140338000Y-85294000D01*
X140338000Y-84794000D02*
X140838000Y-85294000D01*
X120338000Y-85294000D02*
X120838000Y-84794000D01*
X120838000Y-85294000D02*
X120338000Y-84794000D01*
X120838000Y-84794000D02*
X120338000Y-85294000D01*
X120338000Y-84794000D02*
X120838000Y-85294000D01*
X140338000Y-63294000D02*
X140838000Y-62794000D01*
X140838000Y-63294000D02*
X140338000Y-62794000D01*
X140838000Y-62794000D02*
X140338000Y-63294000D01*
X140338000Y-62794000D02*
X140838000Y-63294000D01*
X70497990Y-152731500D02*
X68618000Y-152731500D01*
X160838000Y-63294000D02*
X160338000Y-62794000D01*
X160838000Y-62794000D02*
X160338000Y-63294000D01*
X160338000Y-62794000D02*
X160838000Y-63294000D01*
X160338000Y-63294000D02*
X160838000Y-62794000D01*
X100838000Y-63294000D02*
X100338000Y-62794000D01*
X100838000Y-62794000D02*
X100338000Y-63294000D01*
X100338000Y-62794000D02*
X100838000Y-63294000D01*
X100338000Y-63294000D02*
X100838000Y-62794000D01*
X80838000Y-63294000D02*
X80338000Y-62794000D01*
X80838000Y-62794000D02*
X80338000Y-63294000D01*
X80338000Y-62794000D02*
X80838000Y-63294000D01*
X80338000Y-63294000D02*
X80838000Y-62794000D01*
X200838000Y-63294000D02*
X200338000Y-62794000D01*
X200838000Y-62794000D02*
X200338000Y-63294000D01*
X200338000Y-62794000D02*
X200838000Y-63294000D01*
X160838000Y-84794000D02*
X160338000Y-85294000D01*
X160338000Y-84794000D02*
X160838000Y-85294000D01*
X160338000Y-85294000D02*
X160838000Y-84794000D01*
X180838000Y-85294000D02*
X180338000Y-84794000D01*
X180838000Y-84794000D02*
X180338000Y-85294000D01*
X180338000Y-84794000D02*
X180838000Y-85294000D01*
X180338000Y-85294000D02*
X180838000Y-84794000D01*
X220838000Y-85294000D02*
X220338000Y-84794000D01*
X220838000Y-84794000D02*
X220338000Y-85294000D01*
X220338000Y-84794000D02*
X220838000Y-85294000D01*
X220338000Y-85294000D02*
X220838000Y-84794000D01*
X220838000Y-63294000D02*
X220338000Y-62794000D01*
X220838000Y-62794000D02*
X220338000Y-63294000D01*
X220338000Y-62794000D02*
X220838000Y-63294000D01*
X220338000Y-63294000D02*
X220838000Y-62794000D01*
X67017990Y-151131510D02*
X67096300Y-150637080D01*
X67096300Y-151625940D02*
X67017990Y-151131510D01*
X67323570Y-152071970D02*
X67096300Y-151625940D01*
X67677540Y-152425930D02*
X67323570Y-152071970D01*
X68123570Y-152653190D02*
X67677540Y-152425930D01*
X68618000Y-152731500D02*
X68123570Y-152653190D01*
X232118000Y-152731500D02*
X230238000Y-152731500D01*
X232612000Y-152653190D02*
X232118000Y-152731500D01*
X233058000Y-152425930D02*
X232612000Y-152653190D01*
X233412000Y-152071970D02*
X233058000Y-152425930D01*
X233640000Y-151625940D02*
X233412000Y-152071970D01*
X233718000Y-151131510D02*
X233640000Y-151625940D01*
X233640000Y-150637080D02*
X233718000Y-151131510D01*
X233412000Y-150191050D02*
X233640000Y-150637080D01*
X233058000Y-149837080D02*
X233412000Y-150191050D01*
X237198000Y-26044000D02*
X64478000Y-26044000D01*
X80338000Y-44794000D02*
X80838000Y-45294000D01*
X80338000Y-45294000D02*
X80838000Y-44794000D01*
X180838000Y-45294000D02*
X180338000Y-44794000D01*
X180838000Y-44794000D02*
X180338000Y-45294000D01*
X180338000Y-44794000D02*
X180838000Y-45294000D01*
X180338000Y-45294000D02*
X180838000Y-44794000D01*
X120838000Y-45294000D02*
X120338000Y-44794000D01*
X120838000Y-44794000D02*
X120338000Y-45294000D01*
X120338000Y-44794000D02*
X120838000Y-45294000D01*
X120338000Y-45294000D02*
X120838000Y-44794000D01*
X160838000Y-45294000D02*
X160338000Y-44794000D01*
X160838000Y-44794000D02*
X160338000Y-45294000D01*
X160338000Y-44794000D02*
X160838000Y-45294000D01*
X160338000Y-45294000D02*
X160838000Y-44794000D01*
X140838000Y-45294000D02*
X140338000Y-44794000D01*
X200338000Y-128794000D02*
X200838000Y-129294000D01*
X200338000Y-129294000D02*
X200838000Y-128794000D01*
X180838000Y-129294000D02*
X180338000Y-128794000D01*
X180838000Y-128794000D02*
X180338000Y-129294000D01*
X180338000Y-128794000D02*
X180838000Y-129294000D01*
X180338000Y-129294000D02*
X180838000Y-128794000D01*
X140838000Y-129294000D02*
X140338000Y-128794000D01*
X140838000Y-128794000D02*
X140338000Y-129294000D01*
X140338000Y-128794000D02*
X140838000Y-129294000D01*
X140338000Y-129294000D02*
X140838000Y-128794000D01*
X160838000Y-129294000D02*
X160338000Y-128794000D01*
X160838000Y-128794000D02*
X160338000Y-129294000D01*
X160338000Y-128794000D02*
X160838000Y-129294000D01*
X160338000Y-129294000D02*
X160838000Y-128794000D01*
X100838000Y-129294000D02*
X100338000Y-128794000D01*
M02*
