M48
;DRILL file {KiCad 5.0.2+dfsg1-1~bpo9+1} date Mon 09 Sep 2019 09:32:37 PM CEST
;FORMAT={-:-/ absolute / inch / decimal}
FMAT,2
INCH,TZ
T1C0.2520
T2C0.2913
T3C0.3858
%
G90
G05
T1
X8.6846Y-5.0805
X7.1098Y-4.2143
X7.8972Y-5.0805
X7.1098Y-5.0805
X8.6846Y-4.2143
X5.535Y-4.2143
X3.9602Y-4.2143
X4.7476Y-4.2143
X7.8972Y-4.2143
X6.3224Y-4.2143
X5.535Y-5.0805
X3.1728Y-4.2143
X6.3224Y-5.0805
T2
X4.7476Y-2.482
X7.8972Y-3.3482
X8.6846Y-2.482
X5.535Y-3.3482
X4.7476Y-5.0805
X8.6846Y-3.3482
X7.1098Y-3.3482
X4.7476Y-3.3482
X3.9602Y-3.3482
X5.535Y-2.482
X7.8972Y-2.482
X7.1098Y-2.482
X3.1728Y-2.482
X6.3224Y-2.482
X3.9602Y-2.482
X6.3224Y-3.3482
X3.1728Y-3.3482
X3.9602Y-5.0805
T3
X3.1728Y-5.0805
T0
M30
