G04 #@! TF.GenerationSoftware,KiCad,Pcbnew,5.0.2+dfsg1-1~bpo9+1*
G04 #@! TF.CreationDate,2019-09-09T21:32:31+02:00*
G04 #@! TF.ProjectId,frontpanel,66726f6e-7470-4616-9e65-6c2e6b696361,rev?*
G04 #@! TF.SameCoordinates,Original*
G04 #@! TF.FileFunction,Soldermask,Top*
G04 #@! TF.FilePolarity,Negative*
%FSLAX46Y46*%
G04 Gerber Fmt 4.6, Leading zero omitted, Abs format (unit mm)*
G04 Created by KiCad (PCBNEW 5.0.2+dfsg1-1~bpo9+1) date Mon 09 Sep 2019 09:32:31 PM CEST*
%MOMM*%
%LPD*%
G01*
G04 APERTURE LIST*
%ADD10C,0.100000*%
G04 APERTURE END LIST*
D10*
G36*
X82323840Y-123321693D02*
X82323842Y-123321694D01*
X82323843Y-123321694D01*
X82723906Y-123487406D01*
X83406856Y-123770293D01*
X84381544Y-124421559D01*
X85210441Y-125250456D01*
X85861707Y-126225144D01*
X86310307Y-127308160D01*
X86539000Y-128457876D01*
X86539000Y-129630124D01*
X86310307Y-130779840D01*
X85861707Y-131862856D01*
X85210441Y-132837544D01*
X84381544Y-133666441D01*
X83406856Y-134317707D01*
X82723906Y-134600594D01*
X82323843Y-134766306D01*
X82323842Y-134766306D01*
X82323840Y-134766307D01*
X81174124Y-134995000D01*
X80001876Y-134995000D01*
X78852160Y-134766307D01*
X78852158Y-134766306D01*
X78852157Y-134766306D01*
X78452094Y-134600594D01*
X77769144Y-134317707D01*
X76794456Y-133666441D01*
X75965559Y-132837544D01*
X75314293Y-131862856D01*
X74865693Y-130779840D01*
X74637000Y-129630124D01*
X74637000Y-128457876D01*
X74865693Y-127308160D01*
X75314293Y-126225144D01*
X75965559Y-125250456D01*
X76794456Y-124421559D01*
X77769144Y-123770293D01*
X78452094Y-123487406D01*
X78852157Y-123321694D01*
X78852158Y-123321694D01*
X78852160Y-123321693D01*
X80001876Y-123093000D01*
X81174124Y-123093000D01*
X82323840Y-123321693D01*
X82323840Y-123321693D01*
G37*
G36*
X121514874Y-124384289D02*
X121973816Y-124475578D01*
X122838442Y-124833718D01*
X123021993Y-124956363D01*
X123616589Y-125353659D01*
X124278341Y-126015411D01*
X124278343Y-126015414D01*
X124798282Y-126793558D01*
X125156422Y-127658184D01*
X125247711Y-128117126D01*
X125339000Y-128576066D01*
X125339000Y-129511934D01*
X125156422Y-130429816D01*
X124798282Y-131294442D01*
X124491312Y-131753855D01*
X124278341Y-132072589D01*
X123616589Y-132734341D01*
X123616586Y-132734343D01*
X122838442Y-133254282D01*
X121973816Y-133612422D01*
X121514874Y-133703711D01*
X121055934Y-133795000D01*
X120120066Y-133795000D01*
X119661126Y-133703711D01*
X119202184Y-133612422D01*
X118337558Y-133254282D01*
X117559414Y-132734343D01*
X117559411Y-132734341D01*
X116897659Y-132072589D01*
X116684688Y-131753855D01*
X116377718Y-131294442D01*
X116019578Y-130429816D01*
X115928289Y-129970874D01*
X115837000Y-129511934D01*
X115837000Y-128576066D01*
X115928289Y-128117126D01*
X116019578Y-127658184D01*
X116377718Y-126793558D01*
X116897657Y-126015414D01*
X116897659Y-126015411D01*
X117559411Y-125353659D01*
X118154007Y-124956363D01*
X118337558Y-124833718D01*
X119202184Y-124475578D01*
X119661126Y-124384289D01*
X120120066Y-124293000D01*
X121055934Y-124293000D01*
X121514874Y-124384289D01*
X121514874Y-124384289D01*
G37*
G36*
X101514874Y-124384289D02*
X101973816Y-124475578D01*
X102838442Y-124833718D01*
X103021993Y-124956363D01*
X103616589Y-125353659D01*
X104278341Y-126015411D01*
X104278343Y-126015414D01*
X104798282Y-126793558D01*
X105156422Y-127658184D01*
X105247711Y-128117126D01*
X105339000Y-128576066D01*
X105339000Y-129511934D01*
X105247711Y-129970874D01*
X105156422Y-130429816D01*
X104798282Y-131294442D01*
X104491312Y-131753855D01*
X104278341Y-132072589D01*
X103616589Y-132734341D01*
X103616586Y-132734343D01*
X102838442Y-133254282D01*
X101973816Y-133612422D01*
X101514874Y-133703711D01*
X101055934Y-133795000D01*
X100120066Y-133795000D01*
X99661126Y-133703711D01*
X99202184Y-133612422D01*
X98337558Y-133254282D01*
X97559414Y-132734343D01*
X97559411Y-132734341D01*
X96897659Y-132072589D01*
X96684688Y-131753855D01*
X96377718Y-131294442D01*
X96019578Y-130429816D01*
X95928289Y-129970874D01*
X95837000Y-129511934D01*
X95837000Y-128576066D01*
X95928289Y-128117126D01*
X96019578Y-127658184D01*
X96377718Y-126793558D01*
X96897657Y-126015414D01*
X96897659Y-126015411D01*
X97559411Y-125353659D01*
X98154007Y-124956363D01*
X98337558Y-124833718D01*
X99202184Y-124475578D01*
X99661126Y-124384289D01*
X100120066Y-124293000D01*
X101055934Y-124293000D01*
X101514874Y-124384289D01*
X101514874Y-124384289D01*
G37*
G36*
X161211391Y-124833718D02*
X161827971Y-124956363D01*
X162601604Y-125276812D01*
X163295501Y-125740460D01*
X163297858Y-125742035D01*
X163889965Y-126334142D01*
X163889967Y-126334145D01*
X164355188Y-127030396D01*
X164615226Y-127658184D01*
X164675637Y-127804030D01*
X164839000Y-128625312D01*
X164839000Y-129462688D01*
X164829204Y-129511934D01*
X164675637Y-130283971D01*
X164355188Y-131057604D01*
X163891540Y-131751501D01*
X163889965Y-131753858D01*
X163297858Y-132345965D01*
X163297855Y-132345967D01*
X162601604Y-132811188D01*
X161827971Y-133131637D01*
X161417329Y-133213318D01*
X161006688Y-133295000D01*
X160169312Y-133295000D01*
X159758671Y-133213318D01*
X159348029Y-133131637D01*
X158574396Y-132811188D01*
X157878145Y-132345967D01*
X157878142Y-132345965D01*
X157286035Y-131753858D01*
X157284460Y-131751501D01*
X156820812Y-131057604D01*
X156500363Y-130283971D01*
X156346796Y-129511934D01*
X156337000Y-129462688D01*
X156337000Y-128625312D01*
X156500363Y-127804030D01*
X156560774Y-127658184D01*
X156820812Y-127030396D01*
X157286033Y-126334145D01*
X157286035Y-126334142D01*
X157878142Y-125742035D01*
X157880499Y-125740460D01*
X158574396Y-125276812D01*
X159348029Y-124956363D01*
X159964609Y-124833718D01*
X160169312Y-124793000D01*
X161006688Y-124793000D01*
X161211391Y-124833718D01*
X161211391Y-124833718D01*
G37*
G36*
X221211391Y-124833718D02*
X221827971Y-124956363D01*
X222601604Y-125276812D01*
X223295501Y-125740460D01*
X223297858Y-125742035D01*
X223889965Y-126334142D01*
X223889967Y-126334145D01*
X224355188Y-127030396D01*
X224615226Y-127658184D01*
X224675637Y-127804030D01*
X224839000Y-128625312D01*
X224839000Y-129462688D01*
X224829204Y-129511934D01*
X224675637Y-130283971D01*
X224355188Y-131057604D01*
X223891540Y-131751501D01*
X223889965Y-131753858D01*
X223297858Y-132345965D01*
X223297855Y-132345967D01*
X222601604Y-132811188D01*
X221827971Y-133131637D01*
X221417329Y-133213318D01*
X221006688Y-133295000D01*
X220169312Y-133295000D01*
X219758671Y-133213318D01*
X219348029Y-133131637D01*
X218574396Y-132811188D01*
X217878145Y-132345967D01*
X217878142Y-132345965D01*
X217286035Y-131753858D01*
X217284460Y-131751501D01*
X216820812Y-131057604D01*
X216500363Y-130283971D01*
X216346796Y-129511934D01*
X216337000Y-129462688D01*
X216337000Y-128625312D01*
X216500363Y-127804030D01*
X216560774Y-127658184D01*
X216820812Y-127030396D01*
X217286033Y-126334145D01*
X217286035Y-126334142D01*
X217878142Y-125742035D01*
X217880499Y-125740460D01*
X218574396Y-125276812D01*
X219348029Y-124956363D01*
X219964609Y-124833718D01*
X220169312Y-124793000D01*
X221006688Y-124793000D01*
X221211391Y-124833718D01*
X221211391Y-124833718D01*
G37*
G36*
X201211391Y-124833718D02*
X201827971Y-124956363D01*
X202601604Y-125276812D01*
X203295501Y-125740460D01*
X203297858Y-125742035D01*
X203889965Y-126334142D01*
X203889967Y-126334145D01*
X204355188Y-127030396D01*
X204615226Y-127658184D01*
X204675637Y-127804030D01*
X204839000Y-128625312D01*
X204839000Y-129462688D01*
X204829204Y-129511934D01*
X204675637Y-130283971D01*
X204355188Y-131057604D01*
X203891540Y-131751501D01*
X203889965Y-131753858D01*
X203297858Y-132345965D01*
X203297855Y-132345967D01*
X202601604Y-132811188D01*
X201827971Y-133131637D01*
X201417329Y-133213318D01*
X201006688Y-133295000D01*
X200169312Y-133295000D01*
X199758671Y-133213318D01*
X199348029Y-133131637D01*
X198574396Y-132811188D01*
X197878145Y-132345967D01*
X197878142Y-132345965D01*
X197286035Y-131753858D01*
X197284460Y-131751501D01*
X196820812Y-131057604D01*
X196500363Y-130283971D01*
X196346796Y-129511934D01*
X196337000Y-129462688D01*
X196337000Y-128625312D01*
X196500363Y-127804030D01*
X196560774Y-127658184D01*
X196820812Y-127030396D01*
X197286033Y-126334145D01*
X197286035Y-126334142D01*
X197878142Y-125742035D01*
X197880499Y-125740460D01*
X198574396Y-125276812D01*
X199348029Y-124956363D01*
X199964609Y-124833718D01*
X200169312Y-124793000D01*
X201006688Y-124793000D01*
X201211391Y-124833718D01*
X201211391Y-124833718D01*
G37*
G36*
X141211391Y-124833718D02*
X141827971Y-124956363D01*
X142601604Y-125276812D01*
X143295501Y-125740460D01*
X143297858Y-125742035D01*
X143889965Y-126334142D01*
X143889967Y-126334145D01*
X144355188Y-127030396D01*
X144615226Y-127658184D01*
X144675637Y-127804030D01*
X144839000Y-128625312D01*
X144839000Y-129462688D01*
X144829204Y-129511934D01*
X144675637Y-130283971D01*
X144355188Y-131057604D01*
X143891540Y-131751501D01*
X143889965Y-131753858D01*
X143297858Y-132345965D01*
X143297855Y-132345967D01*
X142601604Y-132811188D01*
X141827971Y-133131637D01*
X141417329Y-133213318D01*
X141006688Y-133295000D01*
X140169312Y-133295000D01*
X139758671Y-133213318D01*
X139348029Y-133131637D01*
X138574396Y-132811188D01*
X137878145Y-132345967D01*
X137878142Y-132345965D01*
X137286035Y-131753858D01*
X137284460Y-131751501D01*
X136820812Y-131057604D01*
X136500363Y-130283971D01*
X136346796Y-129511934D01*
X136337000Y-129462688D01*
X136337000Y-128625312D01*
X136500363Y-127804030D01*
X136560774Y-127658184D01*
X136820812Y-127030396D01*
X137286033Y-126334145D01*
X137286035Y-126334142D01*
X137878142Y-125742035D01*
X137880499Y-125740460D01*
X138574396Y-125276812D01*
X139348029Y-124956363D01*
X139964609Y-124833718D01*
X140169312Y-124793000D01*
X141006688Y-124793000D01*
X141211391Y-124833718D01*
X141211391Y-124833718D01*
G37*
G36*
X181211391Y-124833718D02*
X181827971Y-124956363D01*
X182601604Y-125276812D01*
X183295501Y-125740460D01*
X183297858Y-125742035D01*
X183889965Y-126334142D01*
X183889967Y-126334145D01*
X184355188Y-127030396D01*
X184615226Y-127658184D01*
X184675637Y-127804030D01*
X184839000Y-128625312D01*
X184839000Y-129462688D01*
X184829204Y-129511934D01*
X184675637Y-130283971D01*
X184355188Y-131057604D01*
X183891540Y-131751501D01*
X183889965Y-131753858D01*
X183297858Y-132345965D01*
X183297855Y-132345967D01*
X182601604Y-132811188D01*
X181827971Y-133131637D01*
X181417329Y-133213318D01*
X181006688Y-133295000D01*
X180169312Y-133295000D01*
X179758671Y-133213318D01*
X179348029Y-133131637D01*
X178574396Y-132811188D01*
X177878145Y-132345967D01*
X177878142Y-132345965D01*
X177286035Y-131753858D01*
X177284460Y-131751501D01*
X176820812Y-131057604D01*
X176500363Y-130283971D01*
X176346796Y-129511934D01*
X176337000Y-129462688D01*
X176337000Y-128625312D01*
X176500363Y-127804030D01*
X176560774Y-127658184D01*
X176820812Y-127030396D01*
X177286033Y-126334145D01*
X177286035Y-126334142D01*
X177878142Y-125742035D01*
X177880499Y-125740460D01*
X178574396Y-125276812D01*
X179348029Y-124956363D01*
X179964609Y-124833718D01*
X180169312Y-124793000D01*
X181006688Y-124793000D01*
X181211391Y-124833718D01*
X181211391Y-124833718D01*
G37*
G36*
X181417329Y-102874681D02*
X181827971Y-102956363D01*
X182601604Y-103276812D01*
X183295501Y-103740460D01*
X183297858Y-103742035D01*
X183889965Y-104334142D01*
X183889967Y-104334145D01*
X184355188Y-105030396D01*
X184675637Y-105804029D01*
X184839000Y-106625313D01*
X184839000Y-107462687D01*
X184675637Y-108283971D01*
X184355188Y-109057604D01*
X183891540Y-109751501D01*
X183889965Y-109753858D01*
X183297858Y-110345965D01*
X183297855Y-110345967D01*
X182601604Y-110811188D01*
X181827971Y-111131637D01*
X181417329Y-111213318D01*
X181006688Y-111295000D01*
X180169312Y-111295000D01*
X179758671Y-111213318D01*
X179348029Y-111131637D01*
X178574396Y-110811188D01*
X177878145Y-110345967D01*
X177878142Y-110345965D01*
X177286035Y-109753858D01*
X177284460Y-109751501D01*
X176820812Y-109057604D01*
X176500363Y-108283971D01*
X176337000Y-107462687D01*
X176337000Y-106625313D01*
X176500363Y-105804029D01*
X176820812Y-105030396D01*
X177286033Y-104334145D01*
X177286035Y-104334142D01*
X177878142Y-103742035D01*
X177880499Y-103740460D01*
X178574396Y-103276812D01*
X179348029Y-102956363D01*
X179758671Y-102874682D01*
X180169312Y-102793000D01*
X181006688Y-102793000D01*
X181417329Y-102874681D01*
X181417329Y-102874681D01*
G37*
G36*
X101417329Y-102874681D02*
X101827971Y-102956363D01*
X102601604Y-103276812D01*
X103295501Y-103740460D01*
X103297858Y-103742035D01*
X103889965Y-104334142D01*
X103889967Y-104334145D01*
X104355188Y-105030396D01*
X104675637Y-105804029D01*
X104839000Y-106625313D01*
X104839000Y-107462687D01*
X104675637Y-108283971D01*
X104355188Y-109057604D01*
X103891540Y-109751501D01*
X103889965Y-109753858D01*
X103297858Y-110345965D01*
X103297855Y-110345967D01*
X102601604Y-110811188D01*
X101827971Y-111131637D01*
X101417329Y-111213318D01*
X101006688Y-111295000D01*
X100169312Y-111295000D01*
X99758671Y-111213318D01*
X99348029Y-111131637D01*
X98574396Y-110811188D01*
X97878145Y-110345967D01*
X97878142Y-110345965D01*
X97286035Y-109753858D01*
X97284460Y-109751501D01*
X96820812Y-109057604D01*
X96500363Y-108283971D01*
X96337000Y-107462687D01*
X96337000Y-106625313D01*
X96500363Y-105804029D01*
X96820812Y-105030396D01*
X97286033Y-104334145D01*
X97286035Y-104334142D01*
X97878142Y-103742035D01*
X97880499Y-103740460D01*
X98574396Y-103276812D01*
X99348029Y-102956363D01*
X99758671Y-102874682D01*
X100169312Y-102793000D01*
X101006688Y-102793000D01*
X101417329Y-102874681D01*
X101417329Y-102874681D01*
G37*
G36*
X121417329Y-102874681D02*
X121827971Y-102956363D01*
X122601604Y-103276812D01*
X123295501Y-103740460D01*
X123297858Y-103742035D01*
X123889965Y-104334142D01*
X123889967Y-104334145D01*
X124355188Y-105030396D01*
X124675637Y-105804029D01*
X124839000Y-106625313D01*
X124839000Y-107462687D01*
X124675637Y-108283971D01*
X124355188Y-109057604D01*
X123891540Y-109751501D01*
X123889965Y-109753858D01*
X123297858Y-110345965D01*
X123297855Y-110345967D01*
X122601604Y-110811188D01*
X121827971Y-111131637D01*
X121417329Y-111213318D01*
X121006688Y-111295000D01*
X120169312Y-111295000D01*
X119758671Y-111213318D01*
X119348029Y-111131637D01*
X118574396Y-110811188D01*
X117878145Y-110345967D01*
X117878142Y-110345965D01*
X117286035Y-109753858D01*
X117284460Y-109751501D01*
X116820812Y-109057604D01*
X116500363Y-108283971D01*
X116337000Y-107462687D01*
X116337000Y-106625313D01*
X116500363Y-105804029D01*
X116820812Y-105030396D01*
X117286033Y-104334145D01*
X117286035Y-104334142D01*
X117878142Y-103742035D01*
X117880499Y-103740460D01*
X118574396Y-103276812D01*
X119348029Y-102956363D01*
X119758671Y-102874682D01*
X120169312Y-102793000D01*
X121006688Y-102793000D01*
X121417329Y-102874681D01*
X121417329Y-102874681D01*
G37*
G36*
X141417329Y-102874681D02*
X141827971Y-102956363D01*
X142601604Y-103276812D01*
X143295501Y-103740460D01*
X143297858Y-103742035D01*
X143889965Y-104334142D01*
X143889967Y-104334145D01*
X144355188Y-105030396D01*
X144675637Y-105804029D01*
X144839000Y-106625313D01*
X144839000Y-107462687D01*
X144675637Y-108283971D01*
X144355188Y-109057604D01*
X143891540Y-109751501D01*
X143889965Y-109753858D01*
X143297858Y-110345965D01*
X143297855Y-110345967D01*
X142601604Y-110811188D01*
X141827971Y-111131637D01*
X141417329Y-111213318D01*
X141006688Y-111295000D01*
X140169312Y-111295000D01*
X139758671Y-111213318D01*
X139348029Y-111131637D01*
X138574396Y-110811188D01*
X137878145Y-110345967D01*
X137878142Y-110345965D01*
X137286035Y-109753858D01*
X137284460Y-109751501D01*
X136820812Y-109057604D01*
X136500363Y-108283971D01*
X136337000Y-107462687D01*
X136337000Y-106625313D01*
X136500363Y-105804029D01*
X136820812Y-105030396D01*
X137286033Y-104334145D01*
X137286035Y-104334142D01*
X137878142Y-103742035D01*
X137880499Y-103740460D01*
X138574396Y-103276812D01*
X139348029Y-102956363D01*
X139758671Y-102874682D01*
X140169312Y-102793000D01*
X141006688Y-102793000D01*
X141417329Y-102874681D01*
X141417329Y-102874681D01*
G37*
G36*
X161417329Y-102874681D02*
X161827971Y-102956363D01*
X162601604Y-103276812D01*
X163295501Y-103740460D01*
X163297858Y-103742035D01*
X163889965Y-104334142D01*
X163889967Y-104334145D01*
X164355188Y-105030396D01*
X164675637Y-105804029D01*
X164839000Y-106625313D01*
X164839000Y-107462687D01*
X164675637Y-108283971D01*
X164355188Y-109057604D01*
X163891540Y-109751501D01*
X163889965Y-109753858D01*
X163297858Y-110345965D01*
X163297855Y-110345967D01*
X162601604Y-110811188D01*
X161827971Y-111131637D01*
X161417329Y-111213318D01*
X161006688Y-111295000D01*
X160169312Y-111295000D01*
X159758671Y-111213318D01*
X159348029Y-111131637D01*
X158574396Y-110811188D01*
X157878145Y-110345967D01*
X157878142Y-110345965D01*
X157286035Y-109753858D01*
X157284460Y-109751501D01*
X156820812Y-109057604D01*
X156500363Y-108283971D01*
X156337000Y-107462687D01*
X156337000Y-106625313D01*
X156500363Y-105804029D01*
X156820812Y-105030396D01*
X157286033Y-104334145D01*
X157286035Y-104334142D01*
X157878142Y-103742035D01*
X157880499Y-103740460D01*
X158574396Y-103276812D01*
X159348029Y-102956363D01*
X159758671Y-102874682D01*
X160169312Y-102793000D01*
X161006688Y-102793000D01*
X161417329Y-102874681D01*
X161417329Y-102874681D01*
G37*
G36*
X201417329Y-102874681D02*
X201827971Y-102956363D01*
X202601604Y-103276812D01*
X203295501Y-103740460D01*
X203297858Y-103742035D01*
X203889965Y-104334142D01*
X203889967Y-104334145D01*
X204355188Y-105030396D01*
X204675637Y-105804029D01*
X204839000Y-106625313D01*
X204839000Y-107462687D01*
X204675637Y-108283971D01*
X204355188Y-109057604D01*
X203891540Y-109751501D01*
X203889965Y-109753858D01*
X203297858Y-110345965D01*
X203297855Y-110345967D01*
X202601604Y-110811188D01*
X201827971Y-111131637D01*
X201417329Y-111213318D01*
X201006688Y-111295000D01*
X200169312Y-111295000D01*
X199758671Y-111213318D01*
X199348029Y-111131637D01*
X198574396Y-110811188D01*
X197878145Y-110345967D01*
X197878142Y-110345965D01*
X197286035Y-109753858D01*
X197284460Y-109751501D01*
X196820812Y-109057604D01*
X196500363Y-108283971D01*
X196337000Y-107462687D01*
X196337000Y-106625313D01*
X196500363Y-105804029D01*
X196820812Y-105030396D01*
X197286033Y-104334145D01*
X197286035Y-104334142D01*
X197878142Y-103742035D01*
X197880499Y-103740460D01*
X198574396Y-103276812D01*
X199348029Y-102956363D01*
X199758671Y-102874682D01*
X200169312Y-102793000D01*
X201006688Y-102793000D01*
X201417329Y-102874681D01*
X201417329Y-102874681D01*
G37*
G36*
X81417329Y-102874681D02*
X81827971Y-102956363D01*
X82601604Y-103276812D01*
X83295501Y-103740460D01*
X83297858Y-103742035D01*
X83889965Y-104334142D01*
X83889967Y-104334145D01*
X84355188Y-105030396D01*
X84675637Y-105804029D01*
X84839000Y-106625313D01*
X84839000Y-107462687D01*
X84675637Y-108283971D01*
X84355188Y-109057604D01*
X83891540Y-109751501D01*
X83889965Y-109753858D01*
X83297858Y-110345965D01*
X83297855Y-110345967D01*
X82601604Y-110811188D01*
X81827971Y-111131637D01*
X81417329Y-111213318D01*
X81006688Y-111295000D01*
X80169312Y-111295000D01*
X79758671Y-111213318D01*
X79348029Y-111131637D01*
X78574396Y-110811188D01*
X77878145Y-110345967D01*
X77878142Y-110345965D01*
X77286035Y-109753858D01*
X77284460Y-109751501D01*
X76820812Y-109057604D01*
X76500363Y-108283971D01*
X76337000Y-107462687D01*
X76337000Y-106625313D01*
X76500363Y-105804029D01*
X76820812Y-105030396D01*
X77286033Y-104334145D01*
X77286035Y-104334142D01*
X77878142Y-103742035D01*
X77880499Y-103740460D01*
X78574396Y-103276812D01*
X79348029Y-102956363D01*
X79758671Y-102874682D01*
X80169312Y-102793000D01*
X81006688Y-102793000D01*
X81417329Y-102874681D01*
X81417329Y-102874681D01*
G37*
G36*
X221417329Y-102874681D02*
X221827971Y-102956363D01*
X222601604Y-103276812D01*
X223295501Y-103740460D01*
X223297858Y-103742035D01*
X223889965Y-104334142D01*
X223889967Y-104334145D01*
X224355188Y-105030396D01*
X224675637Y-105804029D01*
X224839000Y-106625313D01*
X224839000Y-107462687D01*
X224675637Y-108283971D01*
X224355188Y-109057604D01*
X223891540Y-109751501D01*
X223889965Y-109753858D01*
X223297858Y-110345965D01*
X223297855Y-110345967D01*
X222601604Y-110811188D01*
X221827971Y-111131637D01*
X221417329Y-111213318D01*
X221006688Y-111295000D01*
X220169312Y-111295000D01*
X219758671Y-111213318D01*
X219348029Y-111131637D01*
X218574396Y-110811188D01*
X217878145Y-110345967D01*
X217878142Y-110345965D01*
X217286035Y-109753858D01*
X217284460Y-109751501D01*
X216820812Y-109057604D01*
X216500363Y-108283971D01*
X216337000Y-107462687D01*
X216337000Y-106625313D01*
X216500363Y-105804029D01*
X216820812Y-105030396D01*
X217286033Y-104334145D01*
X217286035Y-104334142D01*
X217878142Y-103742035D01*
X217880499Y-103740460D01*
X218574396Y-103276812D01*
X219348029Y-102956363D01*
X219758671Y-102874682D01*
X220169312Y-102793000D01*
X221006688Y-102793000D01*
X221417329Y-102874681D01*
X221417329Y-102874681D01*
G37*
G36*
X81514874Y-80384289D02*
X81973816Y-80475578D01*
X82838442Y-80833718D01*
X83611343Y-81350154D01*
X83616589Y-81353659D01*
X84278341Y-82015411D01*
X84278343Y-82015414D01*
X84798282Y-82793558D01*
X85156422Y-83658184D01*
X85339000Y-84576067D01*
X85339000Y-85511933D01*
X85156422Y-86429816D01*
X84798282Y-87294442D01*
X84281846Y-88067343D01*
X84278341Y-88072589D01*
X83616589Y-88734341D01*
X83616586Y-88734343D01*
X82838442Y-89254282D01*
X81973816Y-89612422D01*
X81055934Y-89795000D01*
X80120066Y-89795000D01*
X79202184Y-89612422D01*
X78337558Y-89254282D01*
X77559414Y-88734343D01*
X77559411Y-88734341D01*
X76897659Y-88072589D01*
X76894154Y-88067343D01*
X76377718Y-87294442D01*
X76019578Y-86429816D01*
X75837000Y-85511933D01*
X75837000Y-84576067D01*
X76019578Y-83658184D01*
X76377718Y-82793558D01*
X76897657Y-82015414D01*
X76897659Y-82015411D01*
X77559411Y-81353659D01*
X77564657Y-81350154D01*
X78337558Y-80833718D01*
X79202184Y-80475578D01*
X79661126Y-80384289D01*
X80120066Y-80293000D01*
X81055934Y-80293000D01*
X81514874Y-80384289D01*
X81514874Y-80384289D01*
G37*
G36*
X101514874Y-80384289D02*
X101973816Y-80475578D01*
X102838442Y-80833718D01*
X103611343Y-81350154D01*
X103616589Y-81353659D01*
X104278341Y-82015411D01*
X104278343Y-82015414D01*
X104798282Y-82793558D01*
X105156422Y-83658184D01*
X105339000Y-84576067D01*
X105339000Y-85511933D01*
X105156422Y-86429816D01*
X104798282Y-87294442D01*
X104281846Y-88067343D01*
X104278341Y-88072589D01*
X103616589Y-88734341D01*
X103616586Y-88734343D01*
X102838442Y-89254282D01*
X101973816Y-89612422D01*
X101055934Y-89795000D01*
X100120066Y-89795000D01*
X99202184Y-89612422D01*
X98337558Y-89254282D01*
X97559414Y-88734343D01*
X97559411Y-88734341D01*
X96897659Y-88072589D01*
X96894154Y-88067343D01*
X96377718Y-87294442D01*
X96019578Y-86429816D01*
X95837000Y-85511933D01*
X95837000Y-84576067D01*
X96019578Y-83658184D01*
X96377718Y-82793558D01*
X96897657Y-82015414D01*
X96897659Y-82015411D01*
X97559411Y-81353659D01*
X97564657Y-81350154D01*
X98337558Y-80833718D01*
X99202184Y-80475578D01*
X99661126Y-80384289D01*
X100120066Y-80293000D01*
X101055934Y-80293000D01*
X101514874Y-80384289D01*
X101514874Y-80384289D01*
G37*
G36*
X121514874Y-80384289D02*
X121973816Y-80475578D01*
X122838442Y-80833718D01*
X123611343Y-81350154D01*
X123616589Y-81353659D01*
X124278341Y-82015411D01*
X124278343Y-82015414D01*
X124798282Y-82793558D01*
X125156422Y-83658184D01*
X125339000Y-84576067D01*
X125339000Y-85511933D01*
X125156422Y-86429816D01*
X124798282Y-87294442D01*
X124281846Y-88067343D01*
X124278341Y-88072589D01*
X123616589Y-88734341D01*
X123616586Y-88734343D01*
X122838442Y-89254282D01*
X121973816Y-89612422D01*
X121055934Y-89795000D01*
X120120066Y-89795000D01*
X119202184Y-89612422D01*
X118337558Y-89254282D01*
X117559414Y-88734343D01*
X117559411Y-88734341D01*
X116897659Y-88072589D01*
X116894154Y-88067343D01*
X116377718Y-87294442D01*
X116019578Y-86429816D01*
X115837000Y-85511933D01*
X115837000Y-84576067D01*
X116019578Y-83658184D01*
X116377718Y-82793558D01*
X116897657Y-82015414D01*
X116897659Y-82015411D01*
X117559411Y-81353659D01*
X117564657Y-81350154D01*
X118337558Y-80833718D01*
X119202184Y-80475578D01*
X119661126Y-80384289D01*
X120120066Y-80293000D01*
X121055934Y-80293000D01*
X121514874Y-80384289D01*
X121514874Y-80384289D01*
G37*
G36*
X141514874Y-80384289D02*
X141973816Y-80475578D01*
X142838442Y-80833718D01*
X143611343Y-81350154D01*
X143616589Y-81353659D01*
X144278341Y-82015411D01*
X144278343Y-82015414D01*
X144798282Y-82793558D01*
X145156422Y-83658184D01*
X145339000Y-84576067D01*
X145339000Y-85511933D01*
X145156422Y-86429816D01*
X144798282Y-87294442D01*
X144281846Y-88067343D01*
X144278341Y-88072589D01*
X143616589Y-88734341D01*
X143616586Y-88734343D01*
X142838442Y-89254282D01*
X141973816Y-89612422D01*
X141055934Y-89795000D01*
X140120066Y-89795000D01*
X139202184Y-89612422D01*
X138337558Y-89254282D01*
X137559414Y-88734343D01*
X137559411Y-88734341D01*
X136897659Y-88072589D01*
X136894154Y-88067343D01*
X136377718Y-87294442D01*
X136019578Y-86429816D01*
X135837000Y-85511933D01*
X135837000Y-84576067D01*
X136019578Y-83658184D01*
X136377718Y-82793558D01*
X136897657Y-82015414D01*
X136897659Y-82015411D01*
X137559411Y-81353659D01*
X137564657Y-81350154D01*
X138337558Y-80833718D01*
X139202184Y-80475578D01*
X140120066Y-80293000D01*
X141055934Y-80293000D01*
X141514874Y-80384289D01*
X141514874Y-80384289D01*
G37*
G36*
X221514874Y-80384289D02*
X221973816Y-80475578D01*
X222838442Y-80833718D01*
X223611343Y-81350154D01*
X223616589Y-81353659D01*
X224278341Y-82015411D01*
X224278343Y-82015414D01*
X224798282Y-82793558D01*
X225156422Y-83658184D01*
X225339000Y-84576067D01*
X225339000Y-85511933D01*
X225156422Y-86429816D01*
X224798282Y-87294442D01*
X224281846Y-88067343D01*
X224278341Y-88072589D01*
X223616589Y-88734341D01*
X223616586Y-88734343D01*
X222838442Y-89254282D01*
X221973816Y-89612422D01*
X221055934Y-89795000D01*
X220120066Y-89795000D01*
X219202184Y-89612422D01*
X218337558Y-89254282D01*
X217559414Y-88734343D01*
X217559411Y-88734341D01*
X216897659Y-88072589D01*
X216894154Y-88067343D01*
X216377718Y-87294442D01*
X216019578Y-86429816D01*
X215837000Y-85511933D01*
X215837000Y-84576067D01*
X216019578Y-83658184D01*
X216377718Y-82793558D01*
X216897657Y-82015414D01*
X216897659Y-82015411D01*
X217559411Y-81353659D01*
X217564657Y-81350154D01*
X218337558Y-80833718D01*
X219202184Y-80475578D01*
X220120066Y-80293000D01*
X221055934Y-80293000D01*
X221514874Y-80384289D01*
X221514874Y-80384289D01*
G37*
G36*
X181514874Y-80384289D02*
X181973816Y-80475578D01*
X182838442Y-80833718D01*
X183611343Y-81350154D01*
X183616589Y-81353659D01*
X184278341Y-82015411D01*
X184278343Y-82015414D01*
X184798282Y-82793558D01*
X185156422Y-83658184D01*
X185339000Y-84576067D01*
X185339000Y-85511933D01*
X185156422Y-86429816D01*
X184798282Y-87294442D01*
X184281846Y-88067343D01*
X184278341Y-88072589D01*
X183616589Y-88734341D01*
X183616586Y-88734343D01*
X182838442Y-89254282D01*
X181973816Y-89612422D01*
X181055934Y-89795000D01*
X180120066Y-89795000D01*
X179202184Y-89612422D01*
X178337558Y-89254282D01*
X177559414Y-88734343D01*
X177559411Y-88734341D01*
X176897659Y-88072589D01*
X176894154Y-88067343D01*
X176377718Y-87294442D01*
X176019578Y-86429816D01*
X175837000Y-85511933D01*
X175837000Y-84576067D01*
X176019578Y-83658184D01*
X176377718Y-82793558D01*
X176897657Y-82015414D01*
X176897659Y-82015411D01*
X177559411Y-81353659D01*
X177564657Y-81350154D01*
X178337558Y-80833718D01*
X179202184Y-80475578D01*
X180120066Y-80293000D01*
X181055934Y-80293000D01*
X181514874Y-80384289D01*
X181514874Y-80384289D01*
G37*
G36*
X161514874Y-80384289D02*
X161973816Y-80475578D01*
X162838442Y-80833718D01*
X163611343Y-81350154D01*
X163616589Y-81353659D01*
X164278341Y-82015411D01*
X164278343Y-82015414D01*
X164798282Y-82793558D01*
X165156422Y-83658184D01*
X165339000Y-84576067D01*
X165339000Y-85511933D01*
X165156422Y-86429816D01*
X164798282Y-87294442D01*
X164281846Y-88067343D01*
X164278341Y-88072589D01*
X163616589Y-88734341D01*
X163616586Y-88734343D01*
X162838442Y-89254282D01*
X161973816Y-89612422D01*
X161055934Y-89795000D01*
X160120066Y-89795000D01*
X159202184Y-89612422D01*
X158337558Y-89254282D01*
X157559414Y-88734343D01*
X157559411Y-88734341D01*
X156897659Y-88072589D01*
X156894154Y-88067343D01*
X156377718Y-87294442D01*
X156019578Y-86429816D01*
X155837000Y-85511933D01*
X155837000Y-84576067D01*
X156019578Y-83658184D01*
X156377718Y-82793558D01*
X156897657Y-82015414D01*
X156897659Y-82015411D01*
X157559411Y-81353659D01*
X157564657Y-81350154D01*
X158337558Y-80833718D01*
X159202184Y-80475578D01*
X160120066Y-80293000D01*
X161055934Y-80293000D01*
X161514874Y-80384289D01*
X161514874Y-80384289D01*
G37*
G36*
X201514874Y-80384289D02*
X201973816Y-80475578D01*
X202838442Y-80833718D01*
X203611343Y-81350154D01*
X203616589Y-81353659D01*
X204278341Y-82015411D01*
X204278343Y-82015414D01*
X204798282Y-82793558D01*
X205156422Y-83658184D01*
X205339000Y-84576067D01*
X205339000Y-85511933D01*
X205156422Y-86429816D01*
X204798282Y-87294442D01*
X204281846Y-88067343D01*
X204278341Y-88072589D01*
X203616589Y-88734341D01*
X203616586Y-88734343D01*
X202838442Y-89254282D01*
X201973816Y-89612422D01*
X201055934Y-89795000D01*
X200120066Y-89795000D01*
X199202184Y-89612422D01*
X198337558Y-89254282D01*
X197559414Y-88734343D01*
X197559411Y-88734341D01*
X196897659Y-88072589D01*
X196894154Y-88067343D01*
X196377718Y-87294442D01*
X196019578Y-86429816D01*
X195837000Y-85511933D01*
X195837000Y-84576067D01*
X196019578Y-83658184D01*
X196377718Y-82793558D01*
X196897657Y-82015414D01*
X196897659Y-82015411D01*
X197559411Y-81353659D01*
X197564657Y-81350154D01*
X198337558Y-80833718D01*
X199202184Y-80475578D01*
X200120066Y-80293000D01*
X201055934Y-80293000D01*
X201514874Y-80384289D01*
X201514874Y-80384289D01*
G37*
G36*
X201973816Y-58475578D02*
X202838442Y-58833718D01*
X203611343Y-59350154D01*
X203616589Y-59353659D01*
X204278341Y-60015411D01*
X204278343Y-60015414D01*
X204798282Y-60793558D01*
X205156422Y-61658184D01*
X205339000Y-62576067D01*
X205339000Y-63511933D01*
X205156422Y-64429816D01*
X204798282Y-65294442D01*
X204281846Y-66067343D01*
X204278341Y-66072589D01*
X203616589Y-66734341D01*
X203616586Y-66734343D01*
X202838442Y-67254282D01*
X201973816Y-67612422D01*
X201514874Y-67703711D01*
X201055934Y-67795000D01*
X200120066Y-67795000D01*
X199661126Y-67703711D01*
X199202184Y-67612422D01*
X198337558Y-67254282D01*
X197559414Y-66734343D01*
X197559411Y-66734341D01*
X196897659Y-66072589D01*
X196894154Y-66067343D01*
X196377718Y-65294442D01*
X196019578Y-64429816D01*
X195837000Y-63511933D01*
X195837000Y-62576067D01*
X196019578Y-61658184D01*
X196377718Y-60793558D01*
X196897657Y-60015414D01*
X196897659Y-60015411D01*
X197559411Y-59353659D01*
X197564657Y-59350154D01*
X198337558Y-58833718D01*
X199202184Y-58475578D01*
X200120066Y-58293000D01*
X201055934Y-58293000D01*
X201973816Y-58475578D01*
X201973816Y-58475578D01*
G37*
G36*
X221973816Y-58475578D02*
X222838442Y-58833718D01*
X223611343Y-59350154D01*
X223616589Y-59353659D01*
X224278341Y-60015411D01*
X224278343Y-60015414D01*
X224798282Y-60793558D01*
X225156422Y-61658184D01*
X225339000Y-62576067D01*
X225339000Y-63511933D01*
X225156422Y-64429816D01*
X224798282Y-65294442D01*
X224281846Y-66067343D01*
X224278341Y-66072589D01*
X223616589Y-66734341D01*
X223616586Y-66734343D01*
X222838442Y-67254282D01*
X221973816Y-67612422D01*
X221514874Y-67703711D01*
X221055934Y-67795000D01*
X220120066Y-67795000D01*
X219661126Y-67703711D01*
X219202184Y-67612422D01*
X218337558Y-67254282D01*
X217559414Y-66734343D01*
X217559411Y-66734341D01*
X216897659Y-66072589D01*
X216894154Y-66067343D01*
X216377718Y-65294442D01*
X216019578Y-64429816D01*
X215837000Y-63511933D01*
X215837000Y-62576067D01*
X216019578Y-61658184D01*
X216377718Y-60793558D01*
X216897657Y-60015414D01*
X216897659Y-60015411D01*
X217559411Y-59353659D01*
X217564657Y-59350154D01*
X218337558Y-58833718D01*
X219202184Y-58475578D01*
X220120066Y-58293000D01*
X221055934Y-58293000D01*
X221973816Y-58475578D01*
X221973816Y-58475578D01*
G37*
G36*
X181973816Y-58475578D02*
X182838442Y-58833718D01*
X183611343Y-59350154D01*
X183616589Y-59353659D01*
X184278341Y-60015411D01*
X184278343Y-60015414D01*
X184798282Y-60793558D01*
X185156422Y-61658184D01*
X185339000Y-62576067D01*
X185339000Y-63511933D01*
X185156422Y-64429816D01*
X184798282Y-65294442D01*
X184281846Y-66067343D01*
X184278341Y-66072589D01*
X183616589Y-66734341D01*
X183616586Y-66734343D01*
X182838442Y-67254282D01*
X181973816Y-67612422D01*
X181514874Y-67703711D01*
X181055934Y-67795000D01*
X180120066Y-67795000D01*
X179661126Y-67703711D01*
X179202184Y-67612422D01*
X178337558Y-67254282D01*
X177559414Y-66734343D01*
X177559411Y-66734341D01*
X176897659Y-66072589D01*
X176894154Y-66067343D01*
X176377718Y-65294442D01*
X176019578Y-64429816D01*
X175837000Y-63511933D01*
X175837000Y-62576067D01*
X176019578Y-61658184D01*
X176377718Y-60793558D01*
X176897657Y-60015414D01*
X176897659Y-60015411D01*
X177559411Y-59353659D01*
X177564657Y-59350154D01*
X178337558Y-58833718D01*
X179202184Y-58475578D01*
X180120066Y-58293000D01*
X181055934Y-58293000D01*
X181973816Y-58475578D01*
X181973816Y-58475578D01*
G37*
G36*
X161973816Y-58475578D02*
X162838442Y-58833718D01*
X163611343Y-59350154D01*
X163616589Y-59353659D01*
X164278341Y-60015411D01*
X164278343Y-60015414D01*
X164798282Y-60793558D01*
X165156422Y-61658184D01*
X165339000Y-62576067D01*
X165339000Y-63511933D01*
X165156422Y-64429816D01*
X164798282Y-65294442D01*
X164281846Y-66067343D01*
X164278341Y-66072589D01*
X163616589Y-66734341D01*
X163616586Y-66734343D01*
X162838442Y-67254282D01*
X161973816Y-67612422D01*
X161514874Y-67703711D01*
X161055934Y-67795000D01*
X160120066Y-67795000D01*
X159661126Y-67703711D01*
X159202184Y-67612422D01*
X158337558Y-67254282D01*
X157559414Y-66734343D01*
X157559411Y-66734341D01*
X156897659Y-66072589D01*
X156894154Y-66067343D01*
X156377718Y-65294442D01*
X156019578Y-64429816D01*
X155837000Y-63511933D01*
X155837000Y-62576067D01*
X156019578Y-61658184D01*
X156377718Y-60793558D01*
X156897657Y-60015414D01*
X156897659Y-60015411D01*
X157559411Y-59353659D01*
X157564657Y-59350154D01*
X158337558Y-58833718D01*
X159202184Y-58475578D01*
X160120066Y-58293000D01*
X161055934Y-58293000D01*
X161973816Y-58475578D01*
X161973816Y-58475578D01*
G37*
G36*
X141973816Y-58475578D02*
X142838442Y-58833718D01*
X143611343Y-59350154D01*
X143616589Y-59353659D01*
X144278341Y-60015411D01*
X144278343Y-60015414D01*
X144798282Y-60793558D01*
X145156422Y-61658184D01*
X145339000Y-62576067D01*
X145339000Y-63511933D01*
X145156422Y-64429816D01*
X144798282Y-65294442D01*
X144281846Y-66067343D01*
X144278341Y-66072589D01*
X143616589Y-66734341D01*
X143616586Y-66734343D01*
X142838442Y-67254282D01*
X141973816Y-67612422D01*
X141514874Y-67703711D01*
X141055934Y-67795000D01*
X140120066Y-67795000D01*
X139661126Y-67703711D01*
X139202184Y-67612422D01*
X138337558Y-67254282D01*
X137559414Y-66734343D01*
X137559411Y-66734341D01*
X136897659Y-66072589D01*
X136894154Y-66067343D01*
X136377718Y-65294442D01*
X136019578Y-64429816D01*
X135837000Y-63511933D01*
X135837000Y-62576067D01*
X136019578Y-61658184D01*
X136377718Y-60793558D01*
X136897657Y-60015414D01*
X136897659Y-60015411D01*
X137559411Y-59353659D01*
X137564657Y-59350154D01*
X138337558Y-58833718D01*
X139202184Y-58475578D01*
X140120066Y-58293000D01*
X141055934Y-58293000D01*
X141973816Y-58475578D01*
X141973816Y-58475578D01*
G37*
G36*
X101973816Y-58475578D02*
X102838442Y-58833718D01*
X103611343Y-59350154D01*
X103616589Y-59353659D01*
X104278341Y-60015411D01*
X104278343Y-60015414D01*
X104798282Y-60793558D01*
X105156422Y-61658184D01*
X105339000Y-62576067D01*
X105339000Y-63511933D01*
X105156422Y-64429816D01*
X104798282Y-65294442D01*
X104281846Y-66067343D01*
X104278341Y-66072589D01*
X103616589Y-66734341D01*
X103616586Y-66734343D01*
X102838442Y-67254282D01*
X101973816Y-67612422D01*
X101514874Y-67703711D01*
X101055934Y-67795000D01*
X100120066Y-67795000D01*
X99661126Y-67703711D01*
X99202184Y-67612422D01*
X98337558Y-67254282D01*
X97559414Y-66734343D01*
X97559411Y-66734341D01*
X96897659Y-66072589D01*
X96894154Y-66067343D01*
X96377718Y-65294442D01*
X96019578Y-64429816D01*
X95837000Y-63511933D01*
X95837000Y-62576067D01*
X96019578Y-61658184D01*
X96377718Y-60793558D01*
X96897657Y-60015414D01*
X96897659Y-60015411D01*
X97559411Y-59353659D01*
X97564657Y-59350154D01*
X98337558Y-58833718D01*
X99202184Y-58475578D01*
X100120066Y-58293000D01*
X101055934Y-58293000D01*
X101973816Y-58475578D01*
X101973816Y-58475578D01*
G37*
G36*
X81973816Y-58475578D02*
X82838442Y-58833718D01*
X83611343Y-59350154D01*
X83616589Y-59353659D01*
X84278341Y-60015411D01*
X84278343Y-60015414D01*
X84798282Y-60793558D01*
X85156422Y-61658184D01*
X85339000Y-62576067D01*
X85339000Y-63511933D01*
X85156422Y-64429816D01*
X84798282Y-65294442D01*
X84281846Y-66067343D01*
X84278341Y-66072589D01*
X83616589Y-66734341D01*
X83616586Y-66734343D01*
X82838442Y-67254282D01*
X81973816Y-67612422D01*
X81514874Y-67703711D01*
X81055934Y-67795000D01*
X80120066Y-67795000D01*
X79661126Y-67703711D01*
X79202184Y-67612422D01*
X78337558Y-67254282D01*
X77559414Y-66734343D01*
X77559411Y-66734341D01*
X76897659Y-66072589D01*
X76894154Y-66067343D01*
X76377718Y-65294442D01*
X76019578Y-64429816D01*
X75837000Y-63511933D01*
X75837000Y-62576067D01*
X76019578Y-61658184D01*
X76377718Y-60793558D01*
X76897657Y-60015414D01*
X76897659Y-60015411D01*
X77559411Y-59353659D01*
X77564657Y-59350154D01*
X78337558Y-58833718D01*
X79202184Y-58475578D01*
X80120066Y-58293000D01*
X81055934Y-58293000D01*
X81973816Y-58475578D01*
X81973816Y-58475578D01*
G37*
G36*
X121973816Y-58475578D02*
X122838442Y-58833718D01*
X123611343Y-59350154D01*
X123616589Y-59353659D01*
X124278341Y-60015411D01*
X124278343Y-60015414D01*
X124798282Y-60793558D01*
X125156422Y-61658184D01*
X125339000Y-62576067D01*
X125339000Y-63511933D01*
X125156422Y-64429816D01*
X124798282Y-65294442D01*
X124281846Y-66067343D01*
X124278341Y-66072589D01*
X123616589Y-66734341D01*
X123616586Y-66734343D01*
X122838442Y-67254282D01*
X121973816Y-67612422D01*
X121514874Y-67703711D01*
X121055934Y-67795000D01*
X120120066Y-67795000D01*
X119661126Y-67703711D01*
X119202184Y-67612422D01*
X118337558Y-67254282D01*
X117559414Y-66734343D01*
X117559411Y-66734341D01*
X116897659Y-66072589D01*
X116894154Y-66067343D01*
X116377718Y-65294442D01*
X116019578Y-64429816D01*
X115837000Y-63511933D01*
X115837000Y-62576067D01*
X116019578Y-61658184D01*
X116377718Y-60793558D01*
X116897657Y-60015414D01*
X116897659Y-60015411D01*
X117559411Y-59353659D01*
X117564657Y-59350154D01*
X118337558Y-58833718D01*
X119202184Y-58475578D01*
X120120066Y-58293000D01*
X121055934Y-58293000D01*
X121973816Y-58475578D01*
X121973816Y-58475578D01*
G37*
G36*
X220963256Y-43435298D02*
X221069579Y-43456447D01*
X221370042Y-43580903D01*
X221636852Y-43759180D01*
X221640454Y-43761587D01*
X221870413Y-43991546D01*
X222051098Y-44261960D01*
X222175553Y-44562422D01*
X222239000Y-44881389D01*
X222239000Y-45206611D01*
X222175553Y-45525578D01*
X222051098Y-45826040D01*
X221870413Y-46096454D01*
X221640454Y-46326413D01*
X221640451Y-46326415D01*
X221370042Y-46507097D01*
X221069579Y-46631553D01*
X220963256Y-46652702D01*
X220750611Y-46695000D01*
X220425389Y-46695000D01*
X220212744Y-46652702D01*
X220106421Y-46631553D01*
X219805958Y-46507097D01*
X219535549Y-46326415D01*
X219535546Y-46326413D01*
X219305587Y-46096454D01*
X219124902Y-45826040D01*
X219000447Y-45525578D01*
X218937000Y-45206611D01*
X218937000Y-44881389D01*
X219000447Y-44562422D01*
X219124902Y-44261960D01*
X219305587Y-43991546D01*
X219535546Y-43761587D01*
X219539148Y-43759180D01*
X219805958Y-43580903D01*
X220106421Y-43456447D01*
X220212744Y-43435298D01*
X220425389Y-43393000D01*
X220750611Y-43393000D01*
X220963256Y-43435298D01*
X220963256Y-43435298D01*
G37*
G36*
X200963256Y-43435298D02*
X201069579Y-43456447D01*
X201370042Y-43580903D01*
X201636852Y-43759180D01*
X201640454Y-43761587D01*
X201870413Y-43991546D01*
X202051098Y-44261960D01*
X202175553Y-44562422D01*
X202239000Y-44881389D01*
X202239000Y-45206611D01*
X202175553Y-45525578D01*
X202051098Y-45826040D01*
X201870413Y-46096454D01*
X201640454Y-46326413D01*
X201640451Y-46326415D01*
X201370042Y-46507097D01*
X201069579Y-46631553D01*
X200963256Y-46652702D01*
X200750611Y-46695000D01*
X200425389Y-46695000D01*
X200212744Y-46652702D01*
X200106421Y-46631553D01*
X199805958Y-46507097D01*
X199535549Y-46326415D01*
X199535546Y-46326413D01*
X199305587Y-46096454D01*
X199124902Y-45826040D01*
X199000447Y-45525578D01*
X198937000Y-45206611D01*
X198937000Y-44881389D01*
X199000447Y-44562422D01*
X199124902Y-44261960D01*
X199305587Y-43991546D01*
X199535546Y-43761587D01*
X199539148Y-43759180D01*
X199805958Y-43580903D01*
X200106421Y-43456447D01*
X200212744Y-43435298D01*
X200425389Y-43393000D01*
X200750611Y-43393000D01*
X200963256Y-43435298D01*
X200963256Y-43435298D01*
G37*
G36*
X180963256Y-43435298D02*
X181069579Y-43456447D01*
X181370042Y-43580903D01*
X181636852Y-43759180D01*
X181640454Y-43761587D01*
X181870413Y-43991546D01*
X182051098Y-44261960D01*
X182175553Y-44562422D01*
X182239000Y-44881389D01*
X182239000Y-45206611D01*
X182175553Y-45525578D01*
X182051098Y-45826040D01*
X181870413Y-46096454D01*
X181640454Y-46326413D01*
X181640451Y-46326415D01*
X181370042Y-46507097D01*
X181069579Y-46631553D01*
X180963256Y-46652702D01*
X180750611Y-46695000D01*
X180425389Y-46695000D01*
X180212744Y-46652702D01*
X180106421Y-46631553D01*
X179805958Y-46507097D01*
X179535549Y-46326415D01*
X179535546Y-46326413D01*
X179305587Y-46096454D01*
X179124902Y-45826040D01*
X179000447Y-45525578D01*
X178937000Y-45206611D01*
X178937000Y-44881389D01*
X179000447Y-44562422D01*
X179124902Y-44261960D01*
X179305587Y-43991546D01*
X179535546Y-43761587D01*
X179539148Y-43759180D01*
X179805958Y-43580903D01*
X180106421Y-43456447D01*
X180212744Y-43435298D01*
X180425389Y-43393000D01*
X180750611Y-43393000D01*
X180963256Y-43435298D01*
X180963256Y-43435298D01*
G37*
G36*
X160963256Y-43435298D02*
X161069579Y-43456447D01*
X161370042Y-43580903D01*
X161636852Y-43759180D01*
X161640454Y-43761587D01*
X161870413Y-43991546D01*
X162051098Y-44261960D01*
X162175553Y-44562422D01*
X162239000Y-44881389D01*
X162239000Y-45206611D01*
X162175553Y-45525578D01*
X162051098Y-45826040D01*
X161870413Y-46096454D01*
X161640454Y-46326413D01*
X161640451Y-46326415D01*
X161370042Y-46507097D01*
X161069579Y-46631553D01*
X160963256Y-46652702D01*
X160750611Y-46695000D01*
X160425389Y-46695000D01*
X160212744Y-46652702D01*
X160106421Y-46631553D01*
X159805958Y-46507097D01*
X159535549Y-46326415D01*
X159535546Y-46326413D01*
X159305587Y-46096454D01*
X159124902Y-45826040D01*
X159000447Y-45525578D01*
X158937000Y-45206611D01*
X158937000Y-44881389D01*
X159000447Y-44562422D01*
X159124902Y-44261960D01*
X159305587Y-43991546D01*
X159535546Y-43761587D01*
X159539148Y-43759180D01*
X159805958Y-43580903D01*
X160106421Y-43456447D01*
X160212744Y-43435298D01*
X160425389Y-43393000D01*
X160750611Y-43393000D01*
X160963256Y-43435298D01*
X160963256Y-43435298D01*
G37*
G36*
X140963256Y-43435298D02*
X141069579Y-43456447D01*
X141370042Y-43580903D01*
X141636852Y-43759180D01*
X141640454Y-43761587D01*
X141870413Y-43991546D01*
X142051098Y-44261960D01*
X142175553Y-44562422D01*
X142239000Y-44881389D01*
X142239000Y-45206611D01*
X142175553Y-45525578D01*
X142051098Y-45826040D01*
X141870413Y-46096454D01*
X141640454Y-46326413D01*
X141640451Y-46326415D01*
X141370042Y-46507097D01*
X141069579Y-46631553D01*
X140963256Y-46652702D01*
X140750611Y-46695000D01*
X140425389Y-46695000D01*
X140212744Y-46652702D01*
X140106421Y-46631553D01*
X139805958Y-46507097D01*
X139535549Y-46326415D01*
X139535546Y-46326413D01*
X139305587Y-46096454D01*
X139124902Y-45826040D01*
X139000447Y-45525578D01*
X138937000Y-45206611D01*
X138937000Y-44881389D01*
X139000447Y-44562422D01*
X139124902Y-44261960D01*
X139305587Y-43991546D01*
X139535546Y-43761587D01*
X139539148Y-43759180D01*
X139805958Y-43580903D01*
X140106421Y-43456447D01*
X140212744Y-43435298D01*
X140425389Y-43393000D01*
X140750611Y-43393000D01*
X140963256Y-43435298D01*
X140963256Y-43435298D01*
G37*
G36*
X120963256Y-43435298D02*
X121069579Y-43456447D01*
X121370042Y-43580903D01*
X121636852Y-43759180D01*
X121640454Y-43761587D01*
X121870413Y-43991546D01*
X122051098Y-44261960D01*
X122175553Y-44562422D01*
X122239000Y-44881389D01*
X122239000Y-45206611D01*
X122175553Y-45525578D01*
X122051098Y-45826040D01*
X121870413Y-46096454D01*
X121640454Y-46326413D01*
X121640451Y-46326415D01*
X121370042Y-46507097D01*
X121069579Y-46631553D01*
X120963256Y-46652702D01*
X120750611Y-46695000D01*
X120425389Y-46695000D01*
X120212744Y-46652702D01*
X120106421Y-46631553D01*
X119805958Y-46507097D01*
X119535549Y-46326415D01*
X119535546Y-46326413D01*
X119305587Y-46096454D01*
X119124902Y-45826040D01*
X119000447Y-45525578D01*
X118937000Y-45206611D01*
X118937000Y-44881389D01*
X119000447Y-44562422D01*
X119124902Y-44261960D01*
X119305587Y-43991546D01*
X119535546Y-43761587D01*
X119539148Y-43759180D01*
X119805958Y-43580903D01*
X120106421Y-43456447D01*
X120212744Y-43435298D01*
X120425389Y-43393000D01*
X120750611Y-43393000D01*
X120963256Y-43435298D01*
X120963256Y-43435298D01*
G37*
G36*
X100963256Y-43435298D02*
X101069579Y-43456447D01*
X101370042Y-43580903D01*
X101636852Y-43759180D01*
X101640454Y-43761587D01*
X101870413Y-43991546D01*
X102051098Y-44261960D01*
X102175553Y-44562422D01*
X102239000Y-44881389D01*
X102239000Y-45206611D01*
X102175553Y-45525578D01*
X102051098Y-45826040D01*
X101870413Y-46096454D01*
X101640454Y-46326413D01*
X101640451Y-46326415D01*
X101370042Y-46507097D01*
X101069579Y-46631553D01*
X100963256Y-46652702D01*
X100750611Y-46695000D01*
X100425389Y-46695000D01*
X100212744Y-46652702D01*
X100106421Y-46631553D01*
X99805958Y-46507097D01*
X99535549Y-46326415D01*
X99535546Y-46326413D01*
X99305587Y-46096454D01*
X99124902Y-45826040D01*
X99000447Y-45525578D01*
X98937000Y-45206611D01*
X98937000Y-44881389D01*
X99000447Y-44562422D01*
X99124902Y-44261960D01*
X99305587Y-43991546D01*
X99535546Y-43761587D01*
X99539148Y-43759180D01*
X99805958Y-43580903D01*
X100106421Y-43456447D01*
X100212744Y-43435298D01*
X100425389Y-43393000D01*
X100750611Y-43393000D01*
X100963256Y-43435298D01*
X100963256Y-43435298D01*
G37*
G36*
X80963256Y-43435298D02*
X81069579Y-43456447D01*
X81370042Y-43580903D01*
X81636852Y-43759180D01*
X81640454Y-43761587D01*
X81870413Y-43991546D01*
X82051098Y-44261960D01*
X82175553Y-44562422D01*
X82239000Y-44881389D01*
X82239000Y-45206611D01*
X82175553Y-45525578D01*
X82051098Y-45826040D01*
X81870413Y-46096454D01*
X81640454Y-46326413D01*
X81640451Y-46326415D01*
X81370042Y-46507097D01*
X81069579Y-46631553D01*
X80963256Y-46652702D01*
X80750611Y-46695000D01*
X80425389Y-46695000D01*
X80212744Y-46652702D01*
X80106421Y-46631553D01*
X79805958Y-46507097D01*
X79535549Y-46326415D01*
X79535546Y-46326413D01*
X79305587Y-46096454D01*
X79124902Y-45826040D01*
X79000447Y-45525578D01*
X78937000Y-45206611D01*
X78937000Y-44881389D01*
X79000447Y-44562422D01*
X79124902Y-44261960D01*
X79305587Y-43991546D01*
X79535546Y-43761587D01*
X79539148Y-43759180D01*
X79805958Y-43580903D01*
X80106421Y-43456447D01*
X80212744Y-43435298D01*
X80425389Y-43393000D01*
X80750611Y-43393000D01*
X80963256Y-43435298D01*
X80963256Y-43435298D01*
G37*
M02*
